<svg width="10" height="10" viewBox="0 0 10 10" fill="none" xmlns="http://www.w3.org/2000/svg">
<path fill-rule="evenodd" clip-rule="evenodd" d="M0.220011 9.78C0.360637 9.92045 0.551261 9.99934 0.750011 9.99934C0.948762 9.99934 1.13939 9.92045 1.28001 9.78L8.50001 2.56V8.25C8.50001 8.44891 8.57903 8.63968 8.71968 8.78033C8.86033 8.92098 9.0511 9 9.25001 9C9.44892 9 9.63969 8.92098 9.78034 8.78033C9.92099 8.63968 10 8.44891 10 8.25V0.75C10 0.551088 9.92099 0.360322 9.78034 0.21967C9.63969 0.0790175 9.44892 0 9.25001 0H1.75001C1.5511 0 1.36033 0.0790175 1.21968 0.21967C1.07903 0.360322 1.00001 0.551088 1.00001 0.75C1.00001 0.948912 1.07903 1.13968 1.21968 1.28033C1.36033 1.42098 1.5511 1.5 1.75001 1.5H7.44001L0.220011 8.72C0.0795608 8.86063 0.000671387 9.05125 0.000671387 9.25C0.000671387 9.44875 0.0795608 9.63937 0.220011 9.78Z" fill="white" fill-opacity="0.858824"/>
</svg>
