<svg width="537" height="536" viewBox="0 0 537 536" fill="none" xmlns="http://www.w3.org/2000/svg">
<path d="M6.32904 39.3459C6.21951 39.8186 6.17362 40.2383 6.15305 40.4353C6.04513 41.4692 6.00601 43.1443 6.008 45.0603L6.00801 45.0618C6.01043 46.9323 6.04997 48.6217 6.17536 49.63C6.17584 49.6338 6.1765 49.6395 6.17737 49.6471C6.18796 49.739 6.22963 50.1006 6.34692 50.5691C6.43066 51.905 6.56102 53.1319 6.75982 54.2964C7.23075 57.0549 8.04472 59.2436 9.18098 61.6318L9.18149 61.6329C9.75174 62.8308 10.6823 64.0739 11.5929 65.2042C12.5995 66.4535 13.9606 68.019 15.7225 69.959C19.2529 73.8463 24.5965 79.4608 32.3899 87.4621C47.9899 103.478 73.5943 129.251 114.579 170.3L118.825 166.061L114.579 170.3L212.188 268.063L114.902 365.318C72.5389 407.667 47.0149 433.297 31.797 448.917C24.1957 456.718 19.1095 462.08 15.7647 465.803C12.612 469.312 10.5161 471.881 9.52054 473.895L9.52031 473.895C8.26332 476.438 7.32015 478.681 6.78181 481.453C6.54207 482.687 6.3948 483.968 6.30601 485.355C6.2185 485.74 6.18101 486.043 6.16621 486.163L6.16432 486.179C6.03925 487.186 6 488.797 6 490.554C6 492.311 6.03925 493.922 6.16432 494.929L6.16621 494.945C6.18872 495.127 6.26371 495.735 6.48736 496.405C6.86639 499.792 7.61423 502.97 8.83085 506C10.7331 510.738 13.6465 514.78 17.5039 518.558L21.702 514.271L17.5039 518.558C21.3772 522.351 25.0388 525.195 29.675 526.928C34.2166 528.625 39.1578 529.05 45.1852 529.045C49.4065 529.042 52.527 528.963 55.1454 528.539C58.0343 528.072 60.1473 527.218 62.4447 526.025L62.4453 526.025C63.2105 525.627 63.9241 525.072 64.3433 524.739C64.8769 524.315 65.5009 523.787 66.1975 523.176C67.5965 521.949 69.4517 520.248 71.7602 518.08C76.3858 513.734 82.971 507.379 91.6424 498.893C108.993 481.913 134.79 456.305 170.166 420.965L267.672 323.557L365.685 421.444C414.518 470.213 440.195 495.817 454.348 509.472C468.11 522.75 471.683 525.528 475.907 527.073L475.908 527.073C480.146 528.623 485.196 529.398 489.956 529.518C494.681 529.637 499.672 529.125 503.725 527.695L501.729 522.037L503.726 527.695C513.969 524.081 523.32 514.845 526.888 504.685C527.308 503.488 527.789 502.21 528.22 501.129C528.435 500.588 528.63 500.117 528.793 499.741C528.874 499.553 528.942 499.402 528.996 499.285C529.009 499.257 529.02 499.233 529.03 499.212C529.064 499.14 529.08 499.109 529.08 499.11L529.082 499.106C529.976 497.402 530.281 495.251 530.429 493.953C530.611 492.35 530.688 490.573 530.676 488.944C530.665 487.369 530.569 485.648 530.314 484.234C530.211 483.663 529.977 482.483 529.354 481.356C529.207 481.089 528.919 480.601 528.441 480.076C528.34 479.544 528.199 478.98 528.002 478.383C527.457 476.733 526.584 475.118 525.409 473.384C523.125 470.013 519.104 465.342 512.209 458.008C498.308 443.221 471.599 416.455 420.449 365.318L323.171 268.063L420.781 170.3C472.032 118.968 498.657 92.2468 512.45 77.5715C519.288 70.2957 523.251 65.6929 525.49 62.3856C526.643 60.6813 527.502 59.0893 528.034 57.4532C528.392 56.3505 528.556 55.364 528.628 54.4956C528.954 54.0535 529.146 53.6801 529.236 53.5008C529.53 52.9197 529.713 52.367 529.828 51.9743C530.063 51.1685 530.219 50.2951 530.33 49.4992C530.556 47.8642 530.68 45.8616 530.68 43.828C530.68 41.8869 530.603 40.0712 530.451 38.6958C530.384 38.0932 530.267 37.2124 530.016 36.3906L530.009 36.3655C529.932 36.1111 529.564 34.8825 528.541 33.7864C528.345 33.5766 528.069 33.3127 527.712 33.0477C527.443 32.5263 527.112 31.8166 526.763 30.9563L524.535 31.8615L526.762 30.956C523.506 22.9424 518.945 17.0342 512.209 12.5711L512.208 12.5707C505.142 7.89067 498.723 6.16034 489.658 6.19308L489.658 6.19308C489.227 6.19465 488.749 6.17922 488.228 6.16245C485.843 6.08551 482.581 5.98032 479.005 7.35934C474.873 8.95275 470.247 12.3753 463.252 18.6114C450.631 29.862 428.143 52.3238 383.567 96.8463C377.965 102.442 372.015 108.385 365.691 114.699L267.68 212.553L169.669 114.699C125.067 70.1683 99.3062 44.5441 84.1363 29.8216C76.5635 22.4722 71.5519 17.7632 68.1222 14.7572C64.8868 11.9217 62.5047 10.0829 60.347 9.1874L60.3464 9.18712C53.2919 6.26016 43.894 5.17216 36.787 6.67093L6.32904 39.3459ZM6.32904 39.3459C6.41301 37.9796 6.55266 36.732 6.78184 35.5473C7.33553 32.6852 8.34876 30.479 9.66083 27.9806L6.32904 39.3459ZM36.7856 6.67123C25.2948 9.09274 15.3802 17.0889 9.66101 27.9803L36.7856 6.67123Z" fill="#F4F1EA" stroke="#F4F1EA" stroke-width="12"/>
</svg>
