<svg width="512" height="512" viewBox="0 0 512 512" fill="none" xmlns="http://www.w3.org/2000/svg">
<path d="M299 0.699992C294 1.19999 282.5 3.79999 275.4 5.99999C243.1 15.9 218.7 40.4 208.1 73.5C202.4 91.4 201.8 97.6 201.3 144.2L200.8 187H161.9H123V233V279H162H201V395.5V512H248.5H296V395.5V279H335.3H374.5L380.3 233.7C383.5 208.9 386.1 188.2 386 187.7C386 187.3 365.7 187 340.9 187H295.8L296.2 151.2C296.6 117.2 296.7 115.2 298.9 108.5C300.7 102.9 302.3 100.5 306.4 96.4C315.8 87 326.2 85 367.3 85H389V44.1V3.19999L383.3 2.59999C363 0.399992 312.6 -0.800008 299 0.699992Z" fill="#F4F1EA"/>
</svg>
