<svg width="512" height="512" viewBox="0 0 512 512" fill="none" xmlns="http://www.w3.org/2000/svg">
<g clip-path="url(#clip0_298_72)">
<path d="M149.7 1.10032C106.9 3.40032 74.2999 15.0003 50.5999 36.1003C18.8999 64.4003 4.99991 97.2003 1.99991 151C-0.700089 199.7 -8.92687e-05 350.7 3.09991 378C7.29991 416.2 20.2999 446 42.2999 468.2C60.0999 486.1 77.2999 496.2 102.5 503.5C129.5 511.3 149.5 512.3 271.5 511.7C369.5 511.3 377.4 511 397.5 506.9C456.5 495 496.5 454.7 507.9 395.8C511.9 375.2 512.1 364.3 511.8 246.5L511.4 133.5L509.1 121C503.1 88.3003 491.3 64.2003 471.7 44.2003C444 15.9003 413.1 4.00032 360 1.00032C338.5 -0.199677 171.9 -0.0996765 149.7 1.10032ZM369 49.0003C398.8 51.9003 419.4 59.8003 434.7 74.3003C446.1 85.0003 453.4 96.9003 458.4 112.9C462.2 124.9 463.9 136 465 156.5C466.3 179.8 466.3 333.2 465 356.1C462.7 397.6 455.1 418.1 435.2 437.2C419.4 452.2 401.2 459.9 373.5 463C348.7 465.8 163.8 465.8 140.5 463C121.1 460.7 105.1 455.9 93.3999 448.9C86.6999 445 73.4999 432.8 68.5999 426.1C60.6999 415.4 54.4999 399.2 51.5999 382C48.8999 365.8 47.9999 333.4 47.9999 255.5C47.9999 178.9 48.8999 147.4 51.4999 131.5C55.8999 104.1 66.1999 84.8003 83.6999 70.7003C92.8999 63.3003 99.5999 59.7003 112 55.6003C125.1 51.3003 139.8 49.1003 163.2 48.0003C189.8 46.8003 354.9 47.6003 369 49.0003Z" fill="#F4F1EA"/>
<path d="M384.8 89.3C369.8 93.6 360.7 108.5 363.2 124.6C364.3 131.6 366.7 136.4 371.7 141.3C377.8 147.5 382.2 149.3 392.3 149.8C400.6 150.2 401.4 150.1 407.5 147.1C414.4 143.7 418.7 139.3 422.3 132C425.3 125.7 425.4 113.4 422.4 106.9C415.8 92.7 399.7 85.2 384.8 89.3Z" fill="#F4F1EA"/>
<path d="M239.6 125.1C219.5 127.8 199.6 135.5 182 147.3C172.6 153.6 154 172.2 147.7 181.7C137.8 196.7 130.3 214.9 126.9 232.5C124.8 243 125.1 271.3 127.4 281.8C138.9 335.2 177.7 374.1 231.2 385.7C242.8 388.2 271.2 388.2 282.8 385.7C309.8 379.8 330.2 368.8 349.6 349.5C369.3 330 380.8 308.7 386.7 281C389.2 269.2 389.2 242.8 386.7 231C375.3 177.3 335.7 137.5 282.5 126.5C273 124.5 249.3 123.7 239.6 125.1ZM277.6 174C307.7 181.7 330.9 204.9 339.1 235.5C340.8 241.7 341.3 246.4 341.3 256C341.3 270.4 339.2 279.7 333.5 291.7C315.3 330.1 271.3 349.7 232 336.9C203.2 327.6 182.3 305.1 174.3 275C171.9 266 172 246.1 174.4 236.5C184.6 196.8 220.8 169.6 260.6 171.6C265.7 171.8 273.3 172.9 277.6 174Z" fill="#F4F1EA"/>
</g>
<defs>
<clipPath id="clip0_298_72">
<rect width="512" height="512" fill="white"/>
</clipPath>
</defs>
</svg>
