<svg width="411" height="410" viewBox="0 0 411 410" fill="none" xmlns="http://www.w3.org/2000/svg">
<path d="M35 1.89972C26.1 4.79972 20.9 7.89972 14.4 14.3997C4.7 24.0997 0 35.3997 0 48.9997C0 69.0997 10.7 86.1997 28.7 94.6997C35.8 98.0997 37.4 98.4997 46.7 98.7997C59.2 99.2997 67.6 97.0997 76.9 90.8997C84.7 85.6997 89.4 80.1997 93.6 71.4997C100.9 56.3997 100.7 41.1997 93.2 25.9997C89.9 19.2997 80.3 9.49972 73.4 5.79972C62.6 -0.000282235 46.1 -1.70028 35 1.89972Z" fill="#F4F1EA"/>
<path d="M297.5 129.6C266 134.1 243.8 146.9 230.1 168.6L227 173.4V154.7V136H186H145V273V410H188H230.9L231.2 329.2C231.6 250.1 231.6 248.3 233.7 240.8C240 218.6 252.2 207.4 272.8 205.2C299.5 202.2 315.5 213.2 321.7 238.7C323.2 244.7 323.4 255.2 323.7 327.7L324.1 410H367.1H410.1L409.7 316.7C409.3 235.9 409.1 222.2 407.6 214.1C402.2 183 391.9 162 375.6 148.8C364.9 140.2 351.9 134.6 335.3 131.6C327 130 303.1 128.8 297.5 129.6Z" fill="#F4F1EA"/>
<path d="M6 273V410H49H92V273V136H49H6V273Z" fill="#F4F1EA"/>
</svg>
