<svg width="30" height="31" viewBox="0 0 30 31" fill="none" xmlns="http://www.w3.org/2000/svg">
<rect y="0.5" width="30" height="30" rx="15" fill="#AF8E60"/>
<path fill-rule="evenodd" clip-rule="evenodd" d="M9 10.5C9 9.94772 9.44772 9.5 10 9.5H20C20.5523 9.5 21 9.94772 21 10.5V20.5C21 21.0523 20.5523 21.5 20 21.5C19.4477 21.5 19 21.0523 19 20.5V11.5H10C9.44772 11.5 9 11.0523 9 10.5Z" fill="white"/>
<path fill-rule="evenodd" clip-rule="evenodd" d="M20.7071 9.79289C21.0976 10.1834 21.0976 10.8166 20.7071 11.2071L10.7071 21.2071C10.3166 21.5976 9.68342 21.5976 9.29289 21.2071C8.90237 20.8166 8.90237 20.1834 9.29289 19.7929L19.2929 9.79289C19.6834 9.40237 20.3166 9.40237 20.7071 9.79289Z" fill="white"/>
</svg>
