<svg width="64" height="80" viewBox="0 0 64 80" fill="none" xmlns="http://www.w3.org/2000/svg">
<path d="M18.5 2.5C17.1 3.8 16 5.6 16 6.5C16 7.7 14.8 8 10.5 8C5.9 8 4.5 8.4 2.5 10.5L0 12.9V44V75.1L2.5 77.5L4.9 80H32H59.1L61.5 77.5L64 75.1V44V12.9L61.5 10.5C59.5 8.4 58.1 8 53.5 8C49.2 8 48 7.7 48 6.5C48 5.6 46.9 3.8 45.5 2.5C43.2 0.0999988 42.4 -1.19209e-06 32 -1.19209e-06C21.6 -1.19209e-06 20.8 0.0999988 18.5 2.5ZM39.4 6.6C40.3 6.9 41 8 41 9C41 11.4 39.1 12 32 12C28.8 12 25.5 11.7 24.6 11.4C22.7 10.7 22.5 7.4 24.3 6.7C26.1 5.9 37.6 5.9 39.4 6.6ZM18.7 16C20.9 17.7 22.8 18 32 18C41.2 18 43.1 17.7 45.3 16C48.3 13.6 54.2 13.4 56.4 15.6C58.8 17.9 58.8 70.1 56.4 72.4C54.1 74.8 9.9 74.8 7.6 72.4C5.2 70.1 5.2 17.9 7.6 15.6C9.8 13.4 15.7 13.6 18.7 16Z" fill="#F4F1EA"/>
<path d="M26.5 38C17.4 47 16.2 48.6 15.2 53.1C14.5 55.9 14 59.5 14 61.1C14 63.6 14.4 64 16.9 64C18.5 64 22.1 63.5 24.9 62.8C29.4 61.8 31 60.6 40 51.5C49.7 41.6 50 41.1 50 36.8C50 30.8 47.1 28 41 28C36.9 28 36.3 28.4 26.5 38ZM43 36.8C43 39.1 25.9 56 23.6 56C20.2 56 22.3 52.4 30.7 43.9C39.1 35.3 43 33 43 36.8Z" fill="#F4F1EA"/>
</svg>
