<svg width="450" height="512" viewBox="0 0 450 512" fill="none" xmlns="http://www.w3.org/2000/svg">
<path d="M235.7 183.2C235.4 382.7 235.9 367.5 230.1 381.8C214.2 421.6 165.1 439.8 127.2 420C106.9 409.4 93.2999 392.5 87.8999 371C84.8999 359.3 85.5999 342.1 89.2999 330.5C97.3999 306 118 286.9 143.5 280.5C152.4 278.2 168.1 278.2 177.3 280.4C181.1 281.3 184.3 282 184.6 282C184.8 282 185 262.7 185 239.1V196.3L178.9 195.6C168 194.5 147.1 195 136.4 196.5C101.3 201.8 70.7999 217.3 45.4999 242.8C23.5999 265 8.9999 292.4 2.7999 323.3C-0.400098 339.3 -0.400098 368.7 2.7999 383.8C10.2999 418.2 24.5999 444 49.6999 468.1C78.9999 496.2 118.7 512 160 512C202.6 512 241.9 496.4 271.8 467.6C295.8 444.5 310.6 417.9 318.1 384.5C320.4 374.5 320.4 374.2 320.7 271.9L321.1 169.3L332 176.5C364.1 197.7 399.1 209.2 438.6 211.6L450 212.3V170.3V128.3L441.6 127.7C381.9 123.1 334.2 80.9 322.9 22.8C321.9 17.4 321 9.99999 321 6.49999V-7.62939e-06H278.5H236L235.7 183.2Z" fill="#F4F1EA"/>
</svg>
