<svg width="498" height="300" viewBox="0 0 498 300" fill="none" xmlns="http://www.w3.org/2000/svg">
<path fill-rule="evenodd" clip-rule="evenodd" d="M400.592 21.3014L358.411 42.5135L361.019 47.555C362.453 50.3279 363.387 52.8339 363.096 53.1253C361.423 54.7965 344.644 60.4765 341.381 60.4765C339.249 60.4765 334.304 57.7855 330.393 54.497C321.192 46.7612 309.554 41.5232 296.338 39.1727C284.346 37.0398 275.372 37.9172 260.79 42.651L250.678 45.9329L244.062 42.5577C233.784 37.3132 219.847 34.2866 205.982 34.2866C189.284 34.2866 178.939 36.6355 161.834 44.314C151.567 48.9218 145.488 50.6553 139.6 50.6553C130.173 50.6553 128.789 49.7828 131.167 45.3387C132.468 42.908 132.35 41.6149 130.7 40.2071C129.486 39.171 112.053 30.2337 91.9591 20.3454C56.7763 3.03393 55.3375 2.48558 53.0836 5.54489C51.7953 7.29306 50.7428 9.51755 50.7428 10.4882C50.7428 11.4589 65.5368 19.6056 83.6176 28.5903C101.698 37.5751 116.794 45.4009 117.162 45.9804C117.707 46.8365 64.9426 156.493 63.0979 158.336C62.7984 158.638 49.9588 152.578 34.5673 144.872C19.1775 137.167 5.95656 130.862 5.19214 130.862C3.96613 130.862 0 137.853 0 140.015C0 140.464 15.231 148.229 33.8471 157.271L67.6942 173.713L70.3754 170.16L73.0549 166.606L80.3145 172.083C84.3068 175.095 89.1322 180.637 91.0376 184.397C92.9429 188.159 96.215 194.04 98.3069 197.469C101.168 202.157 102.018 205.732 101.733 211.887C101.104 225.453 111.466 237.237 124.034 237.251C128.374 237.256 129.717 238.114 131.093 241.759C134.811 251.6 147.757 260.177 155.286 257.788C157.671 257.031 158.648 257.807 159.478 261.114C162.001 271.161 170.998 278.18 181.357 278.18C185.568 278.18 186.797 279.271 190.112 285.951C193.275 292.324 195.357 294.288 201.682 296.868C208.494 299.645 210.214 299.768 216.399 297.915C220.42 296.711 225.467 293.504 228.254 290.381L233.111 284.945L241.091 290.801C251.912 298.745 259.658 301.255 267.749 299.438C275.332 297.735 284.428 288.701 285.884 281.427C286.869 276.502 288.702 275.199 290.516 278.135C291.058 279.011 294.415 280.512 297.978 281.471C310.893 284.95 326.024 276.392 328.287 264.332C329.313 258.865 329.429 258.797 337.761 258.961C342.878 259.061 348.32 258.013 351.589 256.296C357.575 253.155 363.369 244.882 363.378 239.461C363.384 236.222 364.176 235.953 373.124 236.16C383.685 236.402 388.667 233.922 395.202 225.17C400.035 218.696 399.849 205.485 394.822 198.44C391.342 193.559 391.244 192.835 393.489 188.494C396.375 182.914 407.034 172.996 414.042 169.372C418.935 166.842 419.111 166.881 420.949 170.916C421.987 173.194 423.47 175.057 424.244 175.057C425.57 175.057 495.933 141.266 497.157 140.041C498.098 139.102 493.916 130.862 492.499 130.862C491.78 130.862 477.398 137.502 460.542 145.62C443.686 153.737 429.358 159.815 428.702 159.124C427.22 157.566 374.842 49.9596 374.842 48.4733C374.842 47.8808 391.797 38.9108 412.521 28.5428L450.199 9.68943L447.671 4.80011C446.282 2.11238 444.61 -0.0482852 443.957 0.000820756C443.306 0.0482899 423.791 9.63378 400.592 21.3014ZM231.003 49.4685L236.527 51.7323L226.706 55.4235C221.304 57.4532 209.151 60.9528 199.698 63.1986C171.388 69.9261 164.505 75.1493 164.505 89.9089C164.505 99.794 170.877 108.43 182.637 114.486C192.564 119.597 211.578 120.752 227.997 117.241C245.094 113.586 252.768 116.153 258.595 127.478C263.244 136.515 269.978 141.881 284.108 147.805C300.44 154.654 381.221 200.237 385.073 204.779C386.647 206.637 387.937 209.973 387.937 212.194C387.937 216.944 379.735 225.8 375.335 225.8C373.667 225.8 357.079 217.026 338.471 206.305L304.64 186.81L302.093 190.697C300.692 192.835 299.556 195.163 299.569 195.87C299.582 196.577 309.296 202.679 321.153 209.431C348.589 225.053 351.926 227.8 351.926 234.767C351.926 237.738 350.548 241.871 348.864 243.951C343.169 250.985 337.327 249.132 307.102 230.706L279.465 213.857L276.447 217.783C274.787 219.942 273.412 222.132 273.393 222.651C273.373 223.168 281.138 228.227 290.648 233.894C313.147 247.295 317.552 251.063 317.552 256.912C317.552 259.459 317.094 262.736 316.535 264.193C315.449 267.023 307.709 271.632 304.043 271.632C302.827 271.632 292.366 265.703 280.798 258.457C269.23 251.211 258.82 245.645 257.666 246.089C256.51 246.532 254.775 248.371 253.809 250.174C252.272 253.047 253.019 254.103 259.841 258.696C272.103 266.952 274.993 270.12 274.993 275.299C274.993 282.03 272.541 285.757 266.798 287.76C260.794 289.852 258.643 289.166 247.807 281.699C239.527 275.994 239.446 275.852 239.567 267.489C239.645 261.989 238.676 257.496 236.791 254.619C233.314 249.312 224.761 243.82 219.962 243.812C217.058 243.807 216.354 242.588 215.651 236.338C214.38 225.07 204.351 215.979 193.191 215.979C189.205 215.979 187.806 215.042 186.459 211.477C181.776 199.08 168.993 192.871 156.846 197.094C149.901 199.509 149.719 199.479 146.738 195.443C139.924 186.216 125.276 183.685 115.096 189.975C112.017 191.879 109.038 192.977 108.478 192.416C107.917 191.855 104.773 186.43 101.489 180.362C96.1348 170.461 90.3828 164.529 79.6859 157.87C77.409 156.452 80.1524 149.89 100.224 108.764L123.389 61.2949H138.219C151.911 61.2949 154.008 60.8366 165.587 55.3072C177.417 49.6584 189.379 46.2406 200.516 45.3289C208.183 44.7004 224.91 46.9723 231.003 49.4685ZM310.186 55.5675C315.588 58.1979 322.682 62.6469 325.952 65.4542C334.602 72.879 342.678 73.5108 357.01 67.8882C363.319 65.4132 368.725 63.6536 369.025 63.9793C370.18 65.2283 414.117 155.966 413.724 156.292C413.495 156.48 410.799 157.913 407.732 159.474C399.981 163.419 387.048 175.846 384.637 181.667C383.532 184.333 381.845 186.515 380.886 186.515C378.992 186.515 321.001 154.459 318.452 152.002C317.496 151.08 318.485 150.504 321.019 150.504C327.833 150.504 341.769 145.726 346.285 141.84L350.52 138.198L346.536 134.453L342.55 130.709L336.764 134.124C328.18 139.188 312.748 141.205 298.96 139.066C283.029 136.594 273.455 131.029 267.5 120.777C264.444 115.518 260.191 111.059 255.724 108.432C248.165 103.986 250.794 104.055 211.537 107.263C195.555 108.569 185.918 105.767 179.283 97.8805C170.928 87.9512 175.86 80.2105 192.602 76.9777C205.147 74.5551 237.796 64.0694 252.835 57.6316C276.023 47.7073 292.804 47.1033 310.186 55.5675ZM136.176 200.838C140.867 206.3 140.965 209.629 136.649 216.994C132.075 224.798 126.733 227.252 119.699 224.779C107.238 220.395 114.317 197.973 128.162 197.973C131.422 197.973 134.732 199.157 136.176 200.838ZM169.227 208.007C173.845 210.111 177.67 217.85 176.105 221.925C173.92 227.623 161.064 243.666 157.28 245.421C150.171 248.718 140.77 241.877 140.77 233.408C140.77 230.157 155.185 210.543 159.221 208.3C163.79 205.761 164.269 205.747 169.227 208.007ZM201.271 231.02C203.106 232.989 204.608 236.551 204.608 238.932C204.608 243.195 193.748 260.66 188.6 264.675C181.625 270.116 170.234 264.445 170.234 255.53C170.234 251.034 180.956 233.93 186.529 229.535C190.536 226.376 197.607 227.088 201.271 231.02ZM225.768 259.577C230.287 265.322 230.075 267.468 224.048 276.86C216.264 288.988 209.331 291.235 202.079 283.982C196.412 278.317 197.057 273.197 204.646 263.595C210.255 256.499 212.058 255.263 216.805 255.263C220.874 255.263 223.291 256.426 225.768 259.577Z" fill="black"/>
</svg>
