<svg width="512" height="512" viewBox="0 0 512 512" fill="none" xmlns="http://www.w3.org/2000/svg">
<path d="M161.7 33.5007C113.4 40.4007 71.0999 61.0007 41.6999 92.0007C20.0999 114.701 6.89994 140.201 1.59994 169.101C-0.500064 180.101 -0.500064 202.601 1.49994 215.001C7.39994 251.201 29.9999 286.101 63.9999 311.501C68.0999 314.601 71.5999 317.501 71.7999 318.001C71.9999 318.401 66.6999 329.701 59.9999 343.001C53.2999 356.301 48.0999 367.501 48.3999 367.701C48.6999 368.001 64.1999 361.701 82.8999 353.701L117 339.101L121.1 340.601C133.1 344.801 164 351.701 164 350.101C164 349.801 163.3 345.701 162.5 341.001C160.5 329.901 160.6 308.501 162.6 297.901C175.9 226.101 240.9 172.501 327.4 161.901C333.8 161.101 344.9 160.901 359.1 161.201L381 161.801L380.3 159.101C377.3 146.601 369.7 128.901 362.7 118.001C344.8 90.0007 319.8 68.3007 288 53.1007C268.6 43.9007 253.6 39.1007 231 34.8007C217 32.2007 176.3 31.4007 161.7 33.5007ZM137.5 106.901C155.5 115.101 155.5 140.901 137.5 149.101C132.3 151.501 123.7 151.501 118.5 149.101C110.1 145.301 105 137.401 105 128.001C105 114.901 114.9 105.001 128 105.001C131.2 105.001 135.2 105.801 137.5 106.901ZM265.5 106.901C276.9 112.101 282.3 126.201 277.1 137.501C273.3 145.901 265.4 151.001 256 151.001C242.9 151.001 233 141.101 233 128.001C233 114.901 242.9 105.001 256 105.001C259.2 105.001 263.2 105.801 265.5 106.901Z" fill="#F4F1EA"/>
<path d="M324.5 193.501C267.3 201.701 219.9 233.601 201 276.801C193.9 292.701 192.5 300.101 192.5 320.001C192.5 335.201 192.8 338.601 194.8 346.001C209.2 399.101 261.7 438.901 328 447.001C342.5 448.701 365.7 448.301 380.6 445.901L393.9 443.701L436.5 462.001C459.9 472.001 479.3 480.001 479.6 479.701C479.9 479.501 473.5 466.101 465.5 450.001C457.4 433.901 451.2 420.401 451.7 420.101C452.2 419.801 454.8 418.001 457.5 416.101C468.9 408.301 483.1 394.501 491.3 383.201C497.8 374.201 506.4 356.401 509.2 346.001C511.2 338.701 511.5 335.101 511.5 320.001C511.5 304.801 511.2 301.401 509.2 294.001C494.8 240.901 442.3 201.101 376 193.001C364.6 191.601 335.6 191.901 324.5 193.501ZM313.5 266.901C324.9 272.101 330.3 286.201 325.1 297.501C318.4 312.101 298.9 315.701 287.6 304.401C276.3 293.101 279.9 273.601 294.5 266.901C299.7 264.501 308.3 264.501 313.5 266.901ZM409.5 266.901C420.9 272.101 426.3 286.201 421.1 297.501C414.4 312.101 394.9 315.701 383.6 304.401C372.3 293.101 375.9 273.601 390.5 266.901C395.7 264.501 404.3 264.501 409.5 266.901Z" fill="#F4F1EA"/>
</svg>
