<svg width="512" height="512" viewBox="0 0 512 512" fill="none" xmlns="http://www.w3.org/2000/svg">
<path d="M243 15.6002C193.1 19.9002 151.4 35.3002 114 63.4002C102.2 72.2002 82.2001 91.6002 72.5001 103.5C45.5001 136.7 28.0001 177.1 21.3001 221C19.2001 235.2 19.0001 269 20.9001 283C24.9001 312.5 33.5001 340 45.9001 363.7L50.8001 372.8L34.0001 434.2C24.7001 467.9 17.3001 495.7 17.6001 495.9C17.8001 496.1 46.2001 488.9 80.7001 479.8L143.4 463.3L155.7 469.2C204 492.3 262.5 498.1 315 485C348.1 476.7 381.2 460.3 407.7 439C433.5 418.1 458.4 386.5 472.5 356.5C494 311.2 500.7 262.5 492.4 213C475.5 112.4 394.1 32.9002 292.8 18.0002C280.4 16.2002 252.2 14.8002 243 15.6002ZM285.4 58.6002C327.6 64.4002 365.6 83.5002 396.6 114.4C444.1 162 463.9 227.7 450.5 293.2C444.1 324.3 429.3 355 408.8 379.5C377.8 416.7 336.2 440.3 287.5 448.7C273.5 451 241.2 451 227.5 448.7C202 444.2 179.5 436.2 158.6 424.1L149.7 419L113.3 428.6C93.2001 433.8 76.6001 437.9 76.4001 437.7C76.2001 437.5 80.3001 421.3 85.7001 401.7L95.4001 366.1L90.3001 357.8C63.3001 313.6 54.5001 264.3 64.5001 214.5C78.6001 144.6 130.8 86.9002 199.1 65.6002C228 56.6002 254.9 54.4002 285.4 58.6002Z" fill="#F4F1EA"/>
<path d="M167.8 143.901C156.6 147.601 142 166.901 138.1 183.101C132.1 208.701 139.9 234.401 163.9 267.401C185.7 297.401 209.3 320.701 235.2 337.701C252 348.701 281.2 361.401 300.5 366.101C310.6 368.501 328.9 368.701 337.4 366.501C350.6 363.001 367.1 351.801 372.4 342.701C375.9 336.801 378.2 326.801 378.4 317.701C378.5 310.601 378.3 309.701 376.1 308.101C371.3 304.401 324.9 283.001 320.6 282.401C315.4 281.601 315.2 281.801 305.1 294.901C294.7 308.301 289.8 313.001 286.5 313.001C282.3 313.001 256.8 300.001 246.3 292.401C241.3 288.801 233.4 282.201 228.8 277.701C214.9 264.001 199 242.101 199 236.601C199 234.801 200.9 231.501 204.4 227.101C215.3 213.501 218 209.001 218 204.601C218 199.401 198.5 152.001 194.3 147.101C191.5 143.801 191.5 143.801 181 143.401C175.2 143.201 169.3 143.401 167.8 143.901Z" fill="#F4F1EA"/>
</svg>
