<svg width="372" height="94" viewBox="0 0 372 94" fill="none" xmlns="http://www.w3.org/2000/svg">
<g filter="url(#filter0_d_445_229)">
<path d="M72.2089 1.60035C69.1902 2.92676 67.1319 6.81452 67.5436 10.3821C68.1382 15.9622 74.1757 19.3926 79.3898 17.0599C83.1404 15.4133 84.9699 11.617 84.1466 7.13469C83.7807 5.16794 81.4481 2.42364 79.4356 1.60035C77.5603 0.777054 73.9927 0.822792 72.2089 1.60035Z" fill="white"/>
</g>
<g filter="url(#filter1_d_445_229)">
<path d="M2 42.3535V83.2893H9.31815H16.6363V79.1271V74.9192L18.1914 76.9774C22.811 83.0149 32.9649 86.3538 41.0149 84.4785C46.0004 83.2893 49.3393 81.3226 53.4558 77.1604C59.8134 70.757 62.0546 64.7195 62.0546 54.4741C62.0546 46.973 61.3228 43.5884 58.4413 37.6424C52.541 25.476 39.4141 19.8502 26.8817 24.1039C23.7715 25.1558 21.759 26.528 19.1519 29.4095L16.865 31.8794L17.0022 16.6485L17.1394 1.41763H9.59258H2V42.3535ZM37.859 36.3617C42.57 38.6487 45.9089 43.8628 46.8694 50.4492C48.1501 59.2309 44.6282 67.2809 37.9047 70.8485C35.8922 71.9462 35.1146 72.0834 31.2726 72.0834C27.2934 72.0834 26.6988 71.9462 24.4576 70.7112C18.1457 67.1894 14.944 59.4139 16.1789 50.5864C17.0937 44 20.2954 38.7401 24.8235 36.4075C28.6198 34.4865 33.9254 34.4407 37.859 36.3617Z" fill="white"/>
</g>
<g filter="url(#filter2_d_445_229)">
<path d="M119.274 23.0969C114.471 24.1946 110.4 26.8474 107.565 30.8267C107.061 31.467 107.016 30.9639 107.153 27.7164L107.29 23.8287H99.6976H92.105V53.5586V83.2886H99.3774H106.696L106.833 64.1699L106.97 45.097L108.251 42.3527C110.629 37.2758 113.465 35.1261 117.947 35.1261C122.201 35.1261 125.768 37.3672 127.918 41.438C128.879 43.2218 128.924 43.7706 129.062 63.2552L129.199 83.2886H136.243H143.332V66.4569C143.332 48.8018 143.652 44.8226 145.207 41.1635C148.409 33.7082 157.237 32.7019 162.908 39.151C165.881 42.5357 165.973 43.4047 165.973 64.6273V83.2886H173.199H180.38V63.0265C180.38 38.6022 179.969 35.4005 176.264 30.0034C171.187 22.6395 159.249 20.3983 149.461 25.0179C146.945 26.2071 142.737 29.8204 141.548 31.8329C141.137 32.4732 140.908 32.5647 140.725 32.1531C140.176 30.7809 137.478 27.625 135.694 26.2986C131.577 23.1884 124.808 21.8619 119.274 23.0969Z" fill="white"/>
</g>
<g filter="url(#filter3_d_445_229)">
<path d="M278.626 23.3271C268.838 24.6993 260.377 30.691 256.306 39.1526C253.79 44.3668 252.921 48.8949 253.241 54.8866C253.699 63.8056 256.306 69.7059 262.663 75.972C268.792 82.0552 273.824 84.2049 281.965 84.2049C289.832 84.2049 295.504 82.0552 300.581 77.1612C303.325 74.5541 307.99 67.8306 307.99 66.5042C307.99 65.1778 308.768 66.1383 310.369 69.5229C315.171 79.4939 322.992 84.4336 334.061 84.3879C342.34 84.3421 348.56 81.735 354.46 75.7891C358.485 71.7641 361.276 66.9158 362.648 61.5644C363.608 57.9054 363.608 50.0841 362.648 46.0134C360.361 35.9967 352.86 27.5351 343.438 24.4249C340.236 23.3729 339.047 23.1899 333.832 23.1899C328.618 23.1899 327.429 23.3729 324.182 24.4249C318.281 26.3916 312.839 30.2794 309.728 34.716L308.356 36.7285L307.579 35.4021C307.121 34.716 305.292 32.7492 303.508 31.1027C299.986 27.8552 295.229 25.1567 290.976 24.1047C287.591 23.2357 281.919 22.9155 278.626 23.3271ZM288.14 35.9509C291.479 36.9572 294.589 39.1984 296.876 42.3086C299.025 45.1901 301.587 49.9011 301.587 50.9074C301.587 51.2275 300.123 54.4292 298.339 58.0426C293.125 68.6081 289.192 71.8098 281.919 71.3067C272.451 70.6206 265.728 60.3752 267.695 49.6724C269.616 39.1984 278.672 33.1152 288.14 35.9509ZM339.687 36.7742C345.953 39.61 349.612 45.7847 349.658 53.3773C349.704 62.1133 344.901 68.974 337.492 70.9865C334.976 71.6726 330.128 71.261 327.612 70.1632C323.221 68.1965 320.568 64.9491 316.863 56.8076L314.439 51.5935L316.498 47.5685C319.882 41.0279 323.175 37.8719 328.573 36.0882C331.911 34.9904 336.394 35.2649 339.687 36.7742Z" fill="white"/>
</g>
<g filter="url(#filter4_d_445_229)">
<path d="M68.7783 53.5586V83.2886H76.0965H83.4146V53.5586V23.8287H76.0965H68.7783V53.5586Z" fill="white"/>
</g>
<g filter="url(#filter5_d_445_229)">
<path d="M189.071 42.3536V83.2895H196.16H203.204L203.341 79.1273L203.478 75.0108L205.125 77.252C207.046 79.8134 210.522 82.2375 214.456 83.7926C218.389 85.302 225.479 85.3477 229.87 83.8383C236.639 81.5057 242.082 76.4745 245.512 69.4307C248.302 63.7592 249.171 59.2311 248.851 52.2331C248.028 34.8068 237.508 22.9148 222.917 22.9148C216.468 22.9148 209.653 25.6591 205.765 29.8213L203.707 32.0168V16.7401V1.41778H196.389H189.071V42.3536ZM222.14 35.4929C230.098 37.5511 234.306 44.732 233.803 55.4348C233.483 62.9359 230.327 68.0586 224.335 70.8944C220.905 72.4952 215.553 72.5867 212.306 71.0773C206.268 68.333 202.792 62.0211 202.792 53.8797C202.838 44.5491 207.412 37.5054 214.822 35.4929C217.932 34.6696 218.984 34.6696 222.14 35.4929Z" fill="white"/>
</g>
<defs>
<filter id="filter0_d_445_229" x="65.4912" y="0" width="26.8501" height="26.8013" filterUnits="userSpaceOnUse" color-interpolation-filters="sRGB">
<feFlood flood-opacity="0" result="BackgroundImageFix"/>
<feColorMatrix in="SourceAlpha" type="matrix" values="0 0 0 0 0 0 0 0 0 0 0 0 0 0 0 0 0 0 127 0" result="hardAlpha"/>
<feOffset dx="3" dy="4"/>
<feGaussianBlur stdDeviation="2.5"/>
<feComposite in2="hardAlpha" operator="out"/>
<feColorMatrix type="matrix" values="0 0 0 0 0.27259 0 0 0 0 0.244471 0 0 0 0 0.308744 0 0 0 0.6 0"/>
<feBlend mode="normal" in2="BackgroundImageFix" result="effect1_dropShadow_445_229"/>
<feBlend mode="normal" in="SourceGraphic" in2="effect1_dropShadow_445_229" result="shape"/>
</filter>
<filter id="filter1_d_445_229" x="0" y="0.41748" width="70.0547" height="93.5825" filterUnits="userSpaceOnUse" color-interpolation-filters="sRGB">
<feFlood flood-opacity="0" result="BackgroundImageFix"/>
<feColorMatrix in="SourceAlpha" type="matrix" values="0 0 0 0 0 0 0 0 0 0 0 0 0 0 0 0 0 0 127 0" result="hardAlpha"/>
<feOffset dx="3" dy="4"/>
<feGaussianBlur stdDeviation="2.5"/>
<feComposite in2="hardAlpha" operator="out"/>
<feColorMatrix type="matrix" values="0 0 0 0 0.27259 0 0 0 0 0.244471 0 0 0 0 0.308744 0 0 0 0.6 0"/>
<feBlend mode="normal" in2="BackgroundImageFix" result="effect1_dropShadow_445_229"/>
<feBlend mode="normal" in="SourceGraphic" in2="effect1_dropShadow_445_229" result="shape"/>
</filter>
<filter id="filter2_d_445_229" x="90.105" y="21.6143" width="98.2754" height="70.6743" filterUnits="userSpaceOnUse" color-interpolation-filters="sRGB">
<feFlood flood-opacity="0" result="BackgroundImageFix"/>
<feColorMatrix in="SourceAlpha" type="matrix" values="0 0 0 0 0 0 0 0 0 0 0 0 0 0 0 0 0 0 127 0" result="hardAlpha"/>
<feOffset dx="3" dy="4"/>
<feGaussianBlur stdDeviation="2.5"/>
<feComposite in2="hardAlpha" operator="out"/>
<feColorMatrix type="matrix" values="0 0 0 0 0.27259 0 0 0 0 0.244471 0 0 0 0 0.308744 0 0 0 0.6 0"/>
<feBlend mode="normal" in2="BackgroundImageFix" result="effect1_dropShadow_445_229"/>
<feBlend mode="normal" in="SourceGraphic" in2="effect1_dropShadow_445_229" result="shape"/>
</filter>
<filter id="filter3_d_445_229" x="251.178" y="22.1494" width="120.19" height="71.2388" filterUnits="userSpaceOnUse" color-interpolation-filters="sRGB">
<feFlood flood-opacity="0" result="BackgroundImageFix"/>
<feColorMatrix in="SourceAlpha" type="matrix" values="0 0 0 0 0 0 0 0 0 0 0 0 0 0 0 0 0 0 127 0" result="hardAlpha"/>
<feOffset dx="3" dy="4"/>
<feGaussianBlur stdDeviation="2.5"/>
<feComposite in2="hardAlpha" operator="out"/>
<feColorMatrix type="matrix" values="0 0 0 0 0.27259 0 0 0 0 0.244471 0 0 0 0 0.308744 0 0 0 0.6 0"/>
<feBlend mode="normal" in2="BackgroundImageFix" result="effect1_dropShadow_445_229"/>
<feBlend mode="normal" in="SourceGraphic" in2="effect1_dropShadow_445_229" result="shape"/>
</filter>
<filter id="filter4_d_445_229" x="66.7783" y="22.8286" width="24.6362" height="69.46" filterUnits="userSpaceOnUse" color-interpolation-filters="sRGB">
<feFlood flood-opacity="0" result="BackgroundImageFix"/>
<feColorMatrix in="SourceAlpha" type="matrix" values="0 0 0 0 0 0 0 0 0 0 0 0 0 0 0 0 0 0 127 0" result="hardAlpha"/>
<feOffset dx="3" dy="4"/>
<feGaussianBlur stdDeviation="2.5"/>
<feComposite in2="hardAlpha" operator="out"/>
<feColorMatrix type="matrix" values="0 0 0 0 0.27259 0 0 0 0 0.244471 0 0 0 0 0.308744 0 0 0 0.6 0"/>
<feBlend mode="normal" in2="BackgroundImageFix" result="effect1_dropShadow_445_229"/>
<feBlend mode="normal" in="SourceGraphic" in2="effect1_dropShadow_445_229" result="shape"/>
</filter>
<filter id="filter5_d_445_229" x="187.071" y="0.417969" width="69.8433" height="93.5298" filterUnits="userSpaceOnUse" color-interpolation-filters="sRGB">
<feFlood flood-opacity="0" result="BackgroundImageFix"/>
<feColorMatrix in="SourceAlpha" type="matrix" values="0 0 0 0 0 0 0 0 0 0 0 0 0 0 0 0 0 0 127 0" result="hardAlpha"/>
<feOffset dx="3" dy="4"/>
<feGaussianBlur stdDeviation="2.5"/>
<feComposite in2="hardAlpha" operator="out"/>
<feColorMatrix type="matrix" values="0 0 0 0 0.27259 0 0 0 0 0.244471 0 0 0 0 0.308744 0 0 0 0.6 0"/>
<feBlend mode="normal" in2="BackgroundImageFix" result="effect1_dropShadow_445_229"/>
<feBlend mode="normal" in="SourceGraphic" in2="effect1_dropShadow_445_229" result="shape"/>
</filter>
</defs>
</svg>
