<svg width="600" height="600" viewBox="0 0 600 600" fill="none" xmlns="http://www.w3.org/2000/svg">
<rect width="600" height="600" rx="88" fill="#F4F1EA"/>
<path fill-rule="evenodd" clip-rule="evenodd" d="M394.731 103.531C396.961 102.594 407.207 97.5863 417.501 92.403C434.489 83.848 439.695 81.7863 439.695 83.6136C439.695 83.9638 440.716 85.5345 441.964 87.1046C443.843 89.47 455.912 113.013 455.912 114.316C455.912 115.163 470.076 144.829 473.328 150.793C474.322 152.617 476.652 157.261 478.503 161.112C486.769 178.303 499.727 204.776 502.678 210.499C504.455 213.945 507.646 220.081 509.769 224.135C513.894 232.013 519.335 242.935 525.375 255.463C533.646 272.618 541.018 287.548 541.391 287.896C542.809 289.22 546.596 298.285 546.587 300.335C546.576 302.749 546.506 302.808 544.181 302.334C542.863 302.065 526.633 301.864 508.114 301.888L474.443 301.93L473.285 300.277C472.649 299.368 472.118 298.118 472.105 297.498C472.092 296.879 471.097 294.39 469.894 291.968C468.69 289.546 467.705 287.167 467.705 286.682C467.705 285.113 461.068 264.004 459.931 261.957C459.325 260.867 458.15 256.721 457.319 252.744C455.959 246.226 450.65 228.956 445.806 215.29C444.8 212.452 443.504 208.306 442.926 206.076C442.348 203.846 440.927 199.534 439.769 196.494C438.611 193.453 436.26 186.322 434.546 180.646C431.803 171.566 427.951 159.436 422.374 142.316C421.45 139.478 419.299 132.181 417.594 126.099C415.473 118.53 413.96 114.491 412.799 113.294L411.103 111.547L404.576 114.522C395.034 118.87 384.705 123.168 376.9 126.037C373.126 127.425 366.389 130.052 361.93 131.876C357.47 133.7 349.177 136.902 343.502 138.99C337.826 141.079 332.519 143.208 331.708 143.721C328.063 146.027 325.838 145.534 325.373 142.316C324.937 139.306 326.156 137.863 330.861 135.813C333.439 134.69 338.166 132.263 341.368 130.42C348.204 126.482 388.842 106.006 394.731 103.531ZM325.298 182.647C325.105 161.484 325.226 158.011 326.18 157.38C327.376 156.589 331.256 157.049 332.314 158.107C332.673 158.466 333.016 169.916 333.074 183.55C333.162 203.768 333.288 208.396 331.41 209.447C330.755 209.814 329.855 209.745 328.625 209.751C327.02 209.758 326.16 209.354 325.901 208.472C325.693 207.763 325.422 196.141 325.298 182.647ZM152.589 256.14L152.343 209.317L152.098 162.492L165.316 162.724C175.161 162.896 178.845 163.213 179.751 163.966C180.858 164.886 180.968 169.038 180.968 209.762C180.968 248.225 181.121 254.672 182.05 255.443C182.845 256.103 189.566 256.37 207.443 256.454C226.279 256.543 231.971 256.784 232.714 257.526C233.462 258.274 233.753 266.093 234.04 293.213L234.409 327.941L243.991 327.812C255.617 327.655 265.497 328.62 266.929 330.05C267.505 330.627 268.185 333.329 268.439 336.057C268.694 338.784 269.121 341.151 269.389 341.317C270.489 341.996 454.569 341.868 455.25 341.187C455.64 340.797 456.197 337.851 456.488 334.642L457.017 328.806L462.914 328.203C466.157 327.872 484.733 327.816 504.192 328.08C523.652 328.344 540.569 328.535 541.785 328.504C545.515 328.408 546.03 329.183 544.718 332.912C544.087 334.708 542.294 338.333 540.734 340.968C539.175 343.603 537.072 347.418 536.062 349.445C532.808 355.972 525.449 369.434 523.932 371.634C522.568 373.613 516.365 384.704 510.782 395.146C509.482 397.578 506.993 402.056 505.252 405.097C503.511 408.137 499.555 415.601 496.462 421.682C493.369 427.763 489.981 434.231 488.933 436.056C487.886 437.88 485.388 442.358 483.383 446.007C477.635 456.465 472.154 465.776 470.795 467.389C468.581 470.017 462.276 474.183 458.491 475.518C452.042 477.795 438.555 477.82 424.045 475.582C398.415 471.631 371.975 463.559 317.703 443.118C311.622 440.828 304.656 438.438 302.223 437.806C299.791 437.174 293.323 435.242 287.85 433.512C274.147 429.182 271.481 428.457 257.997 425.394C251.51 423.92 244.212 422.254 241.78 421.691C239.348 421.127 228.567 419.943 217.824 419.059C185.25 416.381 163.488 417.969 135.409 425.072C115.824 430.026 110.378 431.798 99.5171 436.754C97.8955 437.494 94.0809 439.161 91.0403 440.458C87.9997 441.756 83.0994 443.95 80.1509 445.336L74.7892 447.854L74.173 446.193C73.8331 445.28 73.3142 443.206 73.0179 441.584C72.7223 439.962 72.2307 438.304 71.9248 437.898C71.6188 437.493 69.4458 430.859 67.0952 423.156C62.8634 409.288 52.9876 378.213 43.083 347.602C40.262 338.886 37.9578 331.054 37.9615 330.198C37.9681 328.695 38.4089 328.623 50.6834 328.103C57.6771 327.807 76.1057 327.666 91.6374 327.789C115.781 327.98 119.975 327.856 120.558 326.935C121.611 325.27 121.407 316.386 120.28 314.845C119.354 313.579 117.851 313.521 94.1428 313.844C80.3072 314.033 68.5591 313.922 68.0357 313.596C67.2957 313.136 67.062 307.968 66.9846 290.315C66.9301 277.836 67.0399 265.137 67.2286 262.097L67.5714 256.568H74.33H81.0893L81.5551 246.617C81.8109 241.144 82.0601 235.875 82.108 234.908C82.195 233.154 82.2119 233.151 88.7906 233.633L95.3856 234.117L95.6089 217.208C95.7313 207.908 96.0615 200.069 96.3431 199.789C96.6247 199.508 99.8525 199.517 103.516 199.806L110.178 200.333L110.376 217.026L110.574 233.718L117.392 233.93C121.142 234.047 124.262 234.213 124.325 234.299C124.387 234.384 124.636 239.431 124.878 245.512L125.316 256.568L135.267 256.795C140.74 256.919 146.877 256.823 148.904 256.581L152.589 256.14ZM289.324 262.097V240.352V218.607L327.838 218.618C349.183 218.625 366.817 218.923 367.393 219.289C368.265 219.84 368.356 222.813 367.954 237.547C367.689 247.227 367.259 256.71 366.996 258.621L366.52 262.097H327.922H289.324ZM149.955 279.35C150.879 278.426 150.819 269.047 149.882 267.813C148.982 266.629 146.373 266.511 117.321 266.339C99.9505 266.236 85.3623 266.383 84.9038 266.667C83.838 267.327 83.2557 278.195 84.2345 279.173C84.9857 279.925 149.208 280.098 149.955 279.35ZM191.117 291.381C192.023 290.242 192.996 270.148 192.202 268.953C191.535 267.947 169.273 267.231 168.679 268.197C168.18 269.008 167.738 290.085 168.195 291.275C168.717 292.635 190.042 292.733 191.117 291.381ZM223.352 291.95V280.156V268.362L216.258 268.152C209.41 267.949 209.148 268.001 208.712 269.626C208.118 271.85 208.113 287.07 208.707 290.041L209.173 292.369L216.263 292.16L223.352 291.95ZM191.302 327.244C192.023 326.523 192.564 305.09 191.877 304.48C191.756 304.373 186.46 304.114 180.108 303.905C168.747 303.531 168.554 303.551 168.209 305.109C167.778 307.058 168.206 326.729 168.697 327.524C169.271 328.452 190.354 328.192 191.302 327.244ZM223.168 327.732C223.472 327.715 223.721 322.393 223.721 315.906V304.112H216.428C210.459 304.112 209.055 304.324 208.689 305.278C208.109 306.787 208.109 320.632 208.688 324.855L209.134 328.112L215.875 327.938C219.582 327.842 222.863 327.75 223.168 327.732Z" fill="#1D3557"/>
<path d="M162.909 441.255C156.422 442.011 148.627 443.291 145.587 444.1C142.546 444.91 135.746 446.633 130.476 447.929C122 450.013 108.37 454.44 96.2001 459.059C91.375 460.89 71.7139 470.956 63.3986 475.851C60.1553 477.76 55.5114 480.43 53.079 481.785C47.4025 484.944 36.2816 492.267 34.1654 494.238C33.2661 495.076 32.2997 495.762 32.0182 495.762C31.7366 495.762 31.3408 496.393 31.1388 497.166C30.7805 498.537 30.8631 498.539 34.5538 497.268C36.6347 496.55 41.7739 494.239 45.9747 492.129C53.4188 488.392 55.7414 487.449 73.3496 481.019C78.0118 479.317 82.9873 477.489 84.4063 476.958C85.8252 476.426 90.4691 474.921 94.7259 473.611C98.9827 472.301 104.319 470.627 106.585 469.891C115.353 467.043 138.814 462.188 150.742 460.752C161.511 459.455 196.897 459.227 208.086 460.382C226.654 462.297 253.948 468.446 279.004 476.359C297.927 482.334 298.508 482.528 316.966 489.021C326.29 492.302 337.568 496.021 342.027 497.287C346.487 498.552 353.784 500.873 358.244 502.444C377.555 509.246 386.905 511.468 411.316 515.058C424.286 516.965 444.452 517.575 455.819 516.405C466.261 515.33 486.111 511.268 493.136 508.769C495.974 507.76 500.286 506.223 502.718 505.353C513.783 501.395 537.831 488.039 553.579 477.103C559.295 473.134 568.644 464.521 569.311 462.61C570.741 458.507 568.669 458.631 561.818 463.063C544.586 474.211 536.967 478.002 517.092 485.323C500.533 491.422 495.444 492.859 478.393 496.248C469.15 498.087 466.536 498.298 453.332 498.283C422.102 498.246 398.773 493.45 355.295 478.126C340.253 472.825 321.432 466.115 314.386 463.541C299.848 458.232 268.83 448.993 256.891 446.416C255.066 446.022 250.423 445.02 246.571 444.19C233.604 441.392 219.48 440.225 196.448 440.048C179.11 439.914 172.312 440.159 162.909 441.255Z" fill="#AF8E60"/>
</svg>
