<svg width="242" height="300" viewBox="0 0 242 300" fill="none" xmlns="http://www.w3.org/2000/svg">
<path d="M98.1847 0.579311C86.9301 1.81028 73.2136 6.32385 64.6554 11.5994C55.9213 16.9337 47.7148 25.7849 43.553 34.1673C40.4462 40.3808 37.9257 49.5251 37.3981 56.1489L37.2223 58.2005L32.5328 58.6109C20.2231 59.6074 8.96851 67.0518 3.81015 77.5444C1.05512 83.1131 0 87.6267 0 93.9574C0 114.825 16.5302 130.593 38.4532 130.593C44.9598 130.593 51.056 129.597 56.5075 127.721C59.2039 126.725 60.0832 126.666 60.4349 127.194C61.3142 128.6 61.7245 134.404 61.3728 140.676C60.7866 150.582 59.1453 157.851 52.1698 181.005C45.4874 203.279 44.0219 210.724 43.553 224.734C42.9082 244.898 46.0149 264.711 53.0491 285.286C56.4489 295.309 57.9729 298.299 59.9073 299.413C61.9589 300.526 64.4795 299.647 65.5932 297.42C66.2967 295.895 66.1208 295.251 63.6589 288.803C58.9694 276.727 55.2179 262.19 53.2249 248.122C52.8146 245.074 52.4629 237.102 52.4629 229.364C52.4629 214.358 53.1077 209.903 57.2695 194.956L59.3211 187.511L70.7516 187.335L82.1821 187.16L83.6475 185.46C85.2302 183.643 85.113 181.591 83.413 179.656C82.5924 178.777 81.2442 178.66 72.686 178.66C67.2932 178.66 62.7796 178.543 62.6037 178.367C62.4279 178.191 63.3658 174.44 64.5967 169.985C70.3413 149.644 71.7481 134.521 68.8172 123.794C68.5241 122.797 68.9931 122.27 71.3378 120.922C72.8618 119.984 76.2617 117.698 78.7822 115.88L83.413 112.481L86.2853 114.532C92.2643 118.929 102.816 120.98 105.512 118.284C107.036 116.76 107.036 113.536 105.571 112.187C104.867 111.543 102.757 110.957 100.295 110.605C95.4297 110.019 92.5574 108.67 89.5679 105.564C84.644 100.523 83.1786 92.1402 86.2853 87.3922C87.399 85.6923 88.63 84.6958 90.5058 83.9924C94.2573 82.5269 96.7193 83.1717 100.002 86.3371C103.871 90.1472 105.512 89.9714 109.732 85.575C116.649 78.365 123.39 67.8725 126.966 58.7867C127.904 56.5006 128.666 54.5662 128.783 54.449C128.842 54.3318 131.362 53.8628 134.352 53.4525C148.772 51.2837 160.671 44.3081 165.009 35.4569C165.888 33.6397 166.885 32.2915 167.178 32.4674C168.174 33.1122 171.515 40.9083 172.688 45.3046C173.45 48.3528 173.743 51.6354 173.802 58.0247C173.802 62.7141 173.626 66.7587 173.45 66.9346C173.274 67.1691 171.867 66.7587 170.285 66.0553C166.65 64.4726 159.733 63.2417 154.047 63.1831C150.179 63.1831 149.299 63.3589 147.951 64.5313C146.779 65.5864 146.368 66.407 146.427 67.9311C146.486 71.1551 147.834 71.7412 155.454 72.1516C161.961 72.4447 168.995 74.2618 170.753 76.0203C171.164 76.4307 171.457 79.2443 171.457 82.9958C171.515 91.9057 172.688 94.4849 180.425 103.571C182.067 105.564 183.474 107.733 183.474 108.377C183.474 110.488 180.484 112.832 176.674 113.594C174.798 114.063 172.805 114.767 172.278 115.177C171.75 115.646 170.871 117.756 170.343 119.925C168.057 129.128 168.409 128.425 166.005 127.956C162.899 127.369 158.854 125.142 156.568 122.739C155.044 121.156 154.047 120.628 152.582 120.628C150.12 120.628 148.303 122.387 148.303 124.732C148.303 128.249 155.396 134.111 161.785 135.928C163.25 136.338 164.657 136.866 164.95 137.1C166.181 138.214 160.144 151.403 156.685 155.272C152.406 160.02 147.541 160.957 137.869 158.964C132.359 157.851 121.104 154.158 116.005 151.696C113.953 150.758 111.843 149.937 111.315 149.937C109.498 149.937 107.27 152.282 107.27 154.099C107.27 156.854 108.091 157.851 111.96 159.551L115.477 161.133V171.45C115.477 181.005 115.418 181.708 114.48 181.298C111.315 180.125 103.519 178.66 100.119 178.66C95.5469 178.66 93.7884 179.774 93.7884 182.705C93.7884 185.929 95.3124 186.925 101.174 187.511C112.487 188.566 122.159 193.959 128.314 202.693C131.245 206.914 132.535 209.786 158.854 271.569C165.009 286.048 170.46 298.357 170.929 298.768C171.34 299.237 172.688 299.647 173.86 299.647C176.205 299.647 178.198 297.888 178.198 295.72C178.198 295.075 174.271 285.286 169.464 273.972C164.599 262.659 160.495 252.87 160.261 252.284C159.851 251.229 160.026 251.17 163.133 251.522C167.061 251.991 174.036 251.112 178.608 249.529C180.425 248.943 182.067 248.415 182.36 248.415C182.594 248.415 183.474 249.587 184.294 250.994C186.404 254.629 191.152 258.673 195.08 260.256C198.245 261.487 199.418 261.545 215.186 261.78L232.009 262.014L232.361 263.773C232.537 264.769 232.712 272.39 232.712 280.772C232.712 292.965 232.888 296.306 233.592 297.595C234.999 300.35 237.46 300.761 240.04 298.709L241.681 297.42L241.329 276.317C240.743 239.974 237.871 223.62 230.661 215.706C228.433 213.186 222.278 209.727 220.168 209.727C218.996 209.727 218.879 209.434 218.937 205.155C218.937 201.404 218.644 200.114 217.355 197.418C216.475 195.659 215.596 193.021 215.362 191.556C214.365 184.932 210.145 175.964 205.572 170.688C202.876 167.64 200.355 167.23 198.245 169.457C196.604 171.216 196.604 173.443 198.304 175.553C201.235 179.07 203.521 182.939 204.928 186.632C205.748 188.801 206.276 190.559 206.217 190.618C206.1 190.735 204.869 191.087 203.521 191.497C199.945 192.494 196.897 195.425 196.838 197.887C196.721 201.697 200.883 203.455 204.166 200.935C206.159 199.352 207.8 199.469 209.207 201.286C210.614 203.104 210.731 204.921 209.617 207.559C208.503 210.196 207.096 211.31 198.128 216.762C193.79 219.399 189.042 222.682 187.635 224.03C184.646 226.844 181.891 232.295 181.363 236.281C180.894 239.505 180.074 240.15 174.388 241.557C166.943 243.433 162.078 243.257 157.037 241.029C155.161 240.209 154.692 239.505 151.41 231.826L147.893 223.503L150.706 221.92C152.523 220.865 154.047 219.341 155.044 217.758C156.802 214.651 156.861 213.831 155.278 211.838C153.344 209.376 150.589 209.727 147.775 212.717C146.544 214.065 145.255 215.062 144.844 214.944C144.493 214.827 143.027 212.013 141.62 208.79C140.214 205.566 138.338 201.755 137.459 200.349C136.052 198.121 135.876 197.418 136.169 194.545C137.4 183.349 145.489 172.271 156.216 167.112C165.126 162.892 173.743 162.482 183.591 165.764C188.104 167.288 189.218 167.464 190.566 166.936C192.618 166.057 193.673 163.595 192.911 161.485C191.797 158.495 183.063 155.506 173.626 154.861C169.991 154.568 168.292 154.216 168.467 153.806C172.102 145.482 173.45 141.731 175.56 134.404C176.908 129.538 178.198 124.908 178.432 124.028C178.725 122.797 179.37 122.27 181.832 121.449C185.76 120.159 190.508 115.529 191.563 112.07C193.087 106.912 191.914 103.453 186.404 97.0641C179.781 89.3852 179.019 86.2784 181.187 74.848C182.946 65.4691 183.122 50.5216 181.539 44.1909C179.077 34.3431 174.622 26.2539 168.057 19.6887C163.778 15.4096 156.627 10.4271 152.582 8.90303C150.12 7.96515 149.944 7.96515 148.42 9.07888C147.541 9.72368 146.779 10.8374 146.662 11.5994C146.251 14.2959 147.072 15.5855 150.472 17.4612C152.347 18.5163 155.161 20.2749 156.685 21.4472C159.382 23.3816 159.499 23.6161 159.147 25.6091C158.151 31.4122 153.227 37.5085 147.131 40.6152C143.086 42.6668 134.645 44.7771 128.49 45.3046C125.325 45.5977 123.214 46.0667 122.511 46.7115C121.925 47.239 120.87 49.4665 120.166 51.7526C118.232 57.8488 113.425 66.8174 108.912 72.855L104.926 78.1892L101.526 76.5479C97.1296 74.379 93.1436 73.9101 89.0403 75.1411C78.1374 78.3064 73.0963 89.9714 77.3754 102.281L78.4305 105.271L74.3273 108.319C72.0998 110.019 69.1689 112.012 67.8207 112.774L65.4174 114.122L63.0141 109.608C61.6659 107.146 58.9108 102.047 56.8006 98.3537C47.5976 82.058 44.6081 70.0413 46.308 55.8558C48.3596 38.2705 57.0937 25.5505 72.686 17.2267C88.3369 8.96165 110.201 6.55832 131.48 10.8374C135.935 11.7167 136.169 11.7167 137.634 10.6029C139.803 9.02026 140.096 5.85491 138.221 4.15499C134.762 0.989635 112.487 -1.06199 98.1847 0.579311ZM37.6912 71.5068C38.1015 76.372 39.6842 82.4097 42.2048 88.9162C43.8461 93.1367 46.308 97.7675 54.2214 111.719C56.0972 115.001 57.4454 117.873 57.2695 118.108C57.0351 118.284 54.6903 119.104 52.0526 119.925C46.1908 121.625 36.5189 122.27 31.595 121.273C22.6264 119.397 15.0648 113.594 11.3132 105.681C9.49607 101.812 9.14437 100.464 8.9099 95.7159C8.73404 92.4919 8.9099 89.0921 9.32022 87.568C12.1925 76.0203 22.7437 67.4035 34.0569 67.3449L37.3395 67.2863L37.6912 71.5068ZM133.121 166.878L139.334 168.402L136.579 171.802C133.59 175.436 130.131 182.001 128.9 186.28C128.49 187.746 128.08 189.035 128.021 189.094C127.963 189.211 127.083 188.742 126.087 187.98L124.27 186.632V175.553V164.533L125.559 164.943C126.263 165.178 129.662 166.057 133.121 166.878ZM219.465 218.637C223.275 219.81 225.971 222.975 227.671 228.368C229.371 233.878 230.837 241.557 231.364 248.298L231.716 253.163L215.655 252.987C200.531 252.811 199.476 252.753 197.249 251.522C193.087 249.294 190.683 245.719 190.097 240.912C189.335 234.112 192.032 230.654 203.345 223.854C213.369 217.817 215.01 217.289 219.465 218.637Z" fill="#1D3557"/>
<path d="M139.51 88.3891C138.807 89.0925 138.338 90.3235 138.338 91.5545C138.338 95.7749 146.075 100.347 153.168 100.289C157.33 100.23 159.675 99.3506 160.554 97.4162C161.492 95.3646 161.375 94.6026 159.909 92.7854C158.737 91.32 158.444 91.2028 155.572 91.4958C151.644 91.9062 149.065 91.2028 146.251 88.9753C143.672 86.9237 141.21 86.6892 139.51 88.3891Z" fill="#1D3557"/>
<path d="M177.377 200.993C175.326 203.338 175.091 203.397 172.629 203.103C169.405 202.634 167.236 203.397 166.416 205.272C163.954 210.606 172.512 214.241 179.37 210.724C184.763 207.969 187.225 202.224 184.118 199.704C181.891 197.886 179.839 198.297 177.377 200.993Z" fill="#1D3557"/>
<path d="M169.112 223.327C168.174 224.031 166.005 224.91 164.188 225.262C160.202 226.082 158.502 227.899 159.147 230.83C159.967 234.464 164.598 235.168 170.577 232.53C176.263 230.01 178.198 225.848 174.915 223.269C172.922 221.686 171.163 221.686 169.112 223.327Z" fill="#1D3557"/>
<path d="M92.6154 251.639C91.5603 252.753 91.3845 253.515 91.6189 254.98C92.2051 258.497 109.028 297.244 110.552 298.709C112.252 300.233 114.128 300.351 115.887 299.12C118.583 297.244 118.349 296.423 108.735 273.738C103.518 261.487 99.0634 251.756 98.4186 251.17C96.6601 249.763 94.2567 249.939 92.6154 251.639Z" fill="#1D3557"/>
</svg>
