<svg width="196" height="163" viewBox="0 0 196 163" fill="none" xmlns="http://www.w3.org/2000/svg">
<path d="M24.7114 2.53261C18.2114 6.73261 17.9114 8.43261 18.2114 39.2326C18.5114 65.6326 18.6114 66.4326 20.5114 66.4326C22.4114 66.4326 22.5114 65.5326 23.1114 37.9326C23.4114 22.2326 23.7114 9.33261 23.8114 9.23261C23.9114 9.23261 25.6114 8.23261 27.6114 7.03261C31.1114 4.93261 31.7114 4.93261 105.611 4.93261C188.411 4.93261 185.811 4.73261 188.511 11.3326C190.711 16.5326 190.711 121.633 188.611 125.833C185.611 131.433 186.011 131.433 154.611 131.933L125.511 132.433L125.211 140.433C124.911 151.233 126.011 153.233 132.511 153.933C136.211 154.333 137.611 154.833 137.811 156.133C138.111 157.833 136.111 157.933 106.711 157.933C89.5114 157.933 75.0114 157.633 74.7114 157.233C73.2114 155.833 76.5114 153.933 80.6114 153.933C86.3114 153.933 87.2114 152.233 86.8114 141.133L86.5114 132.433H78.0114C70.2114 132.433 69.5114 132.633 69.5114 134.433C69.5114 136.233 70.3114 136.433 75.8114 136.733L82.1114 137.033L81.8114 143.233L81.5114 149.433L76.7114 150.033C74.0114 150.333 71.4114 151.233 70.9114 152.033C69.6114 154.033 69.8114 160.333 71.2114 161.733C72.1114 162.633 81.2114 162.933 106.011 162.933C137.411 162.933 139.811 162.833 141.311 161.133C143.511 158.633 143.411 153.633 141.211 151.633C140.211 150.633 137.711 149.933 135.711 149.933C131.311 149.933 130.011 148.033 130.011 141.533V136.933H156.611C181.911 136.933 183.411 136.833 187.011 134.833C189.111 133.633 191.711 131.033 192.911 128.933C195.011 125.233 195.011 124.333 195.011 68.8326C195.011 15.5326 194.911 12.2326 193.111 8.23261C191.711 5.23261 190.011 3.43261 187.111 2.03261C183.111 -0.0673852 181.911 -0.0673852 105.811 0.0326148H28.5114L24.7114 2.53261Z" fill="#1D3557"/>
<path d="M8.01105 71.5326C7.21105 71.8326 5.01105 74.1326 3.21105 76.7326L0.0110535 81.4326V116.433C0.0110535 165.133 -1.58895 162.833 33.7111 162.933H55.9111L60.711 158.433L65.511 153.833L65.811 120.133C66.011 98.2326 65.711 84.9326 65.011 82.1326C64.411 79.5326 62.611 76.4326 60.511 74.3326L57.1111 70.9326L33.3111 71.0326C20.2111 71.1326 8.81105 71.3326 8.01105 71.5326ZM56.0111 77.4326C60.711 81.6326 61.011 83.8326 61.011 117.033C61.011 143.733 60.811 148.633 59.411 151.533C56.4111 157.733 55.7111 157.933 33.0111 157.933C3.01105 157.933 5.01105 160.933 5.01105 116.033V83.0326L8.91105 78.9326L12.8111 74.8326L33.3111 75.1326C52.1111 75.4326 54.0111 75.6326 56.0111 77.4326Z" fill="#1D3557"/>
<path d="M28.0112 139.833C26.8112 142.933 27.4112 146.833 29.4112 148.133C31.2112 149.333 35.7112 149.033 36.8112 147.633C38.4112 145.733 38.6112 140.333 37.1112 138.533C36.4112 137.633 34.3112 136.933 32.5112 136.933C29.8112 136.933 29.0112 137.433 28.0112 139.833Z" fill="#1D3557"/>
<path d="M69.3109 98.5328C69.0109 99.3328 69.2109 100.533 69.7109 101.033C70.2109 101.533 92.7109 101.833 127.111 101.733C182.711 101.433 183.511 101.433 183.511 99.4328C183.511 97.4328 182.711 97.4328 126.711 97.1328C75.8109 96.9328 69.9109 97.0328 69.3109 98.5328Z" fill="#1D3557"/>
<path d="M102.211 112.132C100.611 114.132 100.411 119.532 101.911 121.332C103.611 123.332 108.411 123.432 110.411 121.332C112.211 119.532 112.511 115.732 111.011 112.832C109.811 110.632 103.911 110.132 102.211 112.132Z" fill="#1D3557"/>
<path d="M91.7107 132.632C91.4107 133.132 91.0107 137.932 90.9107 143.432L90.5107 153.432L106.311 153.732L122.011 154.032L121.411 144.232C121.111 138.832 120.711 133.832 120.411 133.132C120.211 132.232 116.411 131.932 106.111 131.932C98.4107 131.932 91.9107 132.232 91.7107 132.632ZM117.011 143.432V149.932H106.511H96.0107V143.432V136.932H106.511H117.011V143.432Z" fill="#1D3557"/>
</svg>
