<svg width="236" height="300" viewBox="0 0 236 300" fill="none" xmlns="http://www.w3.org/2000/svg">
<path d="M85.6004 2.22239C81.4773 4.39846 74.2619 11.7284 74.2619 13.6754C74.2619 14.248 72.4294 13.9044 70.2534 12.9882C60.0602 8.7506 52.6158 12.6446 51.585 22.6087C51.1269 27.9916 50.7833 28.5643 48.2636 28.5643C44.5987 28.5643 38.0705 31.4275 33.2602 34.9779C30.1679 37.3831 29.4807 38.6429 29.8243 41.5061C30.1679 45.0566 30.626 45.2856 40.132 48.3779C48.9508 51.2412 51.1269 52.501 58.1132 58.9147C66.7029 66.8172 70.9405 68.6497 80.7901 68.6497C86.7457 68.6497 86.8602 68.7642 91.4414 74.7198C93.961 78.1557 96.0226 81.1335 96.0226 81.5916C96.0226 81.9352 91.2123 79.9882 85.3713 77.2394C73.8038 71.742 58.4568 67.5044 49.9816 67.5044C45.744 67.5044 44.2551 67.9625 43.3388 69.795C41.85 72.5437 42.8807 74.7198 47.8055 79.4155C49.7525 81.3625 51.3559 83.195 51.3559 83.6531C51.3559 83.9967 46.3166 84.6839 40.2465 84.9129C22.2654 85.8292 0.73374 92.8155 0.0465612 97.9693C-0.411558 101.176 2.45169 103.352 11.2705 106.33C25.9303 111.484 40.2465 121.906 47.92 133.015C53.0739 140.574 61.32 143.094 69.6807 139.658C71.6277 138.857 73.4602 138.398 73.6893 138.742C74.0328 138.971 74.6055 141.72 74.9491 144.583L75.7508 149.966H55.479C33.0312 149.966 29.8243 150.653 24.6705 156.723C19.5166 162.908 20.7765 171.956 27.7628 178.484C29.9389 180.545 32.4585 181.462 37.0397 181.805C42.3081 182.263 43.4534 182.721 43.9115 184.783C44.2551 186.043 48.6072 209.75 53.532 237.352C59.144 268.39 63.4961 289.12 64.7559 291.639C69.1081 299.885 69.5662 300 117.554 300C157.296 300 160.503 299.885 164.511 297.824C166.802 296.564 169.665 294.044 170.811 292.212C172.07 290.036 176.423 268.848 182.493 235.749C187.876 206.544 192.228 182.492 192.228 182.378C192.228 182.149 194.06 182.034 196.236 182.034C201.963 182.034 207.231 179.515 210.896 175.277C216.622 168.405 214.103 157.41 205.742 152.256C202.306 150.195 199.901 149.966 180.889 149.966H159.816L160.617 144.583C161.419 138.169 161.648 137.94 164.855 139.658C168.405 141.605 176.652 141.262 181.118 139.086C183.065 138.055 187.074 134.161 189.937 130.381C192.8 126.716 198.183 121.219 201.963 118.356C209.522 112.515 222.578 105.757 228.419 104.612C233.687 103.581 236.436 100.374 234.833 96.824C232.428 91.4411 209.178 84.6839 192.8 84.6839C188.105 84.6839 184.211 84.3403 184.211 83.8822C184.211 83.4241 186.387 80.9044 189.021 78.1557C193.373 73.689 193.602 73.0018 192.457 70.3677C191.311 67.9625 190.395 67.5044 186.043 67.5044C178.37 67.5044 159.701 72.6583 149.393 77.6976C144.354 80.2172 139.888 82.0497 139.658 81.7061C139.429 81.477 141.262 78.4993 143.896 75.1779L148.592 68.9933L156.38 68.4206C165.771 67.7335 170.238 65.6719 178.484 57.7694C184.554 52.1574 188.334 50.2104 200.245 46.66C206.086 44.942 207.46 41.8497 204.368 37.2685C202.192 33.9472 191.77 28.5643 187.417 28.5643C184.554 28.5643 184.211 28.2207 184.211 24.5557C184.211 19.6309 181.576 14.248 178.599 12.5301C175.277 10.8121 169.665 11.1557 165.542 13.2173C162.564 14.8207 161.877 14.8207 161.534 13.5608C161.19 12.6446 158.556 9.55231 155.464 6.57453C149.164 0.389917 142.865 -1.67162 139.773 1.42069C138.17 3.0241 138.17 4.39846 139.544 12.8737C140.918 22.1506 140.918 22.7232 137.826 33.1455C134.963 42.766 134.848 44.3694 135.993 49.6378C136.681 52.8446 138.055 56.9677 138.971 58.6856C140.575 61.7779 140.346 62.1215 135.764 68.6497C133.13 72.3147 130.725 75.407 130.382 75.407C130.038 75.5215 128.32 71.513 126.488 66.5882C122.937 56.9677 120.761 53.7608 117.783 53.7608C114.805 53.7608 112.171 57.3113 108.85 66.0155C107.132 70.3677 105.414 74.1471 104.956 74.3762C104.498 74.7198 102.093 72.0856 99.6875 68.6497C95.4499 62.8087 95.2209 62.007 96.7098 59.4873C97.5115 57.8839 98.7713 53.9899 99.573 50.7831C100.718 45.5147 100.604 43.9113 97.7405 34.2908C94.6482 23.8685 94.6482 23.2959 96.0226 13.9044C97.7405 3.25316 97.0533 0.733507 92.4722 0.275388C90.9833 0.0463278 87.891 0.962567 85.6004 2.22239ZM87.891 37.0395C89.838 42.5369 90.067 44.5984 89.1508 48.7215C87.4328 56.5095 85.8294 58.342 80.9046 58.342C74.6055 58.342 71.2841 56.6241 63.7252 49.8668C59.9457 46.4309 55.0209 42.766 52.8448 41.7352C47.92 39.3301 48.3782 38.5284 53.9901 40.1318C56.9679 40.9335 58.9149 40.9335 60.6329 40.0172C62.8089 38.7574 62.9234 38.0702 62.2363 30.1677C61.2055 20.2036 61.8927 19.7455 69.7952 25.1284C77.9269 30.6258 81.1337 29.7096 82.8516 21.1198L83.7679 16.5386L84.6841 23.4104C85.1422 27.1899 86.6311 33.26 87.891 37.0395ZM153.975 24.5557C155.464 29.2514 158.899 29.4805 165.199 25.2429C173.33 19.6309 174.361 20.2036 173.445 29.595C172.758 36.1232 172.987 37.7266 174.59 39.3301C175.621 40.3608 177.339 40.9335 178.37 40.7044C182.951 39.3301 186.501 38.6429 186.501 39.2155C186.501 39.5591 184.096 41.2771 181.118 42.995C178.026 44.713 172.987 48.7215 169.665 51.8138C165.199 56.0514 162.564 57.5403 159.129 57.9984C150.424 59.1437 148.019 57.3113 145.958 47.9198C145.499 46.0873 146.416 41.2771 148.134 36.1232C149.737 31.313 150.997 24.8993 151.111 21.9215C151.111 16.4241 151.684 16.8822 153.975 24.5557ZM125.915 100.145C128.32 111.484 128.664 120.761 126.946 125.227C125.686 128.663 123.968 129.007 120.99 126.258C118.929 124.426 118.585 124.426 114.691 126.487C110.682 128.663 110.682 128.663 109.079 126.487C107.017 123.624 107.017 114.691 109.308 102.894C110.911 94.1899 115.951 76.4377 117.554 73.8036C118.47 72.3147 123.052 86.9745 125.915 100.145ZM71.1696 82.8514C87.2038 88.9215 100.031 97.0531 99.0004 100.604C98.6568 101.634 97.8551 105.986 97.2824 110.224C96.5952 115.034 95.4499 118.585 94.3046 119.386C93.3884 120.188 92.1286 122.364 91.6704 124.197C90.9833 126.716 89.9525 127.747 87.6619 127.976C81.9354 128.663 80.4465 126.716 78.4995 116.065C76.5525 105.872 70.826 91.8993 65.5576 85.0275C61.091 79.1865 61.32 79.0719 71.1696 82.8514ZM171.383 82.6223C162.679 95.9078 156.723 110.11 156.723 117.439C156.723 118.928 155.922 122.021 155.12 124.197C153.746 127.404 152.829 128.205 150.195 128.205C145.958 128.205 144.469 127.06 143.552 123.28C143.094 121.562 141.949 119.73 141.033 119.157C139.888 118.585 138.742 114.805 137.826 108.621L136.337 99.0001L139.888 95.7933C145.156 91.2121 154.662 85.9437 163.481 82.8514C172.872 79.53 173.445 79.53 171.383 82.6223ZM60.4038 97.1676C65.4431 102.207 71.3987 125.342 68.5354 128.778C67.7337 129.809 65.214 130.496 62.6944 130.496C58.8004 130.496 57.9987 129.923 55.0209 125.571C49.9816 118.47 39.2158 108.621 30.9696 103.81C26.9611 101.52 23.1816 99.5728 22.3799 99.5728C21.5782 99.5728 21.5782 99.2292 22.2654 98.542C24.0978 96.7095 34.1765 95.2206 46.5457 95.1061C56.6243 94.9916 58.5713 95.3352 60.4038 97.1676ZM209.865 97.2822L214.332 98.6565L206.2 103.123C197.038 108.163 185.814 118.127 180.66 125.571C177.911 129.58 176.537 130.496 173.788 130.496C171.841 130.496 169.322 129.923 168.062 129.236C166.115 128.205 165.886 127.289 166.573 122.135C167.489 115.034 171.727 101.749 174.476 97.6258L176.423 94.648L190.968 95.3352C198.87 95.6788 207.46 96.595 209.865 97.2822ZM98.6568 143.323L99.3439 149.966H92.4722C85.8294 149.966 85.7149 149.851 85.7149 146.759C85.7149 145.041 85.3713 142.521 85.0277 141.033C84.3405 138.857 84.7987 138.513 87.5474 138.513C89.3798 138.513 92.1286 137.826 93.732 136.909C95.3354 136.108 96.9388 135.764 97.2824 136.108C97.7405 136.451 98.3132 139.773 98.6568 143.323ZM146.759 138.284C150.653 138.742 151.111 139.086 150.539 141.262C150.195 142.521 149.852 145.041 149.852 146.759C149.852 149.851 149.737 149.966 142.865 149.966H135.764L136.566 144.01C137.597 136.795 138.055 135.879 140.575 136.909C141.605 137.368 144.354 137.94 146.759 138.284ZM112.057 144.239C112.057 147.332 111.599 149.966 110.911 149.966C110.339 149.966 109.766 149.05 109.766 147.79C109.766 146.645 109.423 144.01 109.079 142.063C108.506 139.315 108.735 138.513 110.224 138.513C111.713 138.513 112.057 139.773 112.057 144.239ZM126.488 141.033C126.144 142.521 125.8 145.041 125.8 146.759C125.8 148.592 125.342 149.966 124.655 149.966C124.082 149.966 123.51 147.332 123.51 144.239C123.51 139.773 123.853 138.513 125.342 138.513C126.717 138.513 127.06 139.2 126.488 141.033ZM201.161 162.106C204.139 164.168 204.368 167.374 201.848 169.894C200.245 171.498 191.082 171.727 118.241 171.727C63.9542 171.727 35.5508 171.383 34.0619 170.581C31.4277 169.092 31.1987 164.511 33.7183 162.106C35.3218 160.503 44.3696 160.274 116.982 160.274C189.021 160.274 198.87 160.503 201.161 162.106ZM171.956 234.374C166.687 263.121 161.877 287.287 161.19 288.203C159.358 290.379 78.0414 290.379 75.0636 288.203C73.4602 287.173 70.9405 275.032 63.6106 234.947C58.3423 206.429 54.3337 182.95 54.5628 182.607C54.9064 182.263 83.6533 182.034 118.356 182.034H181.576L171.956 234.374Z" fill="#1D3557"/>
<path d="M158.211 194.861C156.493 197.152 153.63 213.186 154.432 216.393C155.233 219.829 160.044 220.86 162.678 218.34C163.594 217.424 164.968 212.27 165.885 206.773C167.144 198.87 167.144 196.694 165.885 195.205C164.167 193.143 159.7 192.914 158.211 194.861Z" fill="#1D3557"/>
<path d="M151.34 232.656C150.653 233.458 148.476 243.078 146.415 253.844C143.781 268.962 143.208 274.23 144.124 275.948C145.499 278.583 150.08 279.041 152.027 276.636C154.317 273.887 160.846 235.978 159.357 233.801C157.868 231.396 152.943 230.709 151.34 232.656Z" fill="#1D3557"/>
</svg>
