<svg width="273" height="300" viewBox="0 0 273 300" fill="none" xmlns="http://www.w3.org/2000/svg">
<path d="M133.604 1.50632C132.301 2.70911 132 5.51562 132 15.0377C132 21.6531 132.501 27.9678 133.002 29.0703C134.205 31.1752 137.012 31.5761 138.816 29.7719C140.319 28.2685 140.52 4.61353 139.016 1.80701C137.713 -0.498339 135.709 -0.598572 133.604 1.50632Z" fill="#1D3557"/>
<path d="M39.2839 40.9981C38.3818 43.8046 39.6848 45.6088 49.1067 54.73C57.6264 63.0493 59.4306 64.0516 61.6358 61.8465C63.9411 59.5411 62.7383 57.4362 53.5169 48.2148C43.9948 38.793 40.5869 36.9888 39.2839 40.9981Z" fill="#1D3557"/>
<path d="M218.4 48.4164C208.578 58.4397 207.174 61.4467 211.785 62.6495C214.09 63.2509 215.494 62.1483 223.813 53.9292C233.135 44.7078 234.337 42.5027 232.032 40.1973C229.626 37.7917 227.421 39.0948 218.4 48.4164Z" fill="#1D3557"/>
<path d="M120.673 51.523C93.6102 56.6349 69.9552 75.178 58.4285 100.336C45.8994 127.399 48.5054 159.875 64.9436 184.031C69.6545 190.947 79.4773 200.97 86.1929 205.581L91.9062 209.69V221.818C91.9062 235.049 93.0088 238.557 98.4213 242.065C100.827 243.669 100.927 243.97 100.927 255.597C100.927 262.112 101.428 269.83 102.03 272.737C104.235 283.261 111.351 291.881 121.976 296.893C127.489 299.599 129.594 300 136.51 300C143.025 300 145.631 299.499 150.242 297.394C157.458 294.086 164.475 287.07 167.883 279.753C170.388 274.541 170.589 272.737 170.89 259.506L171.291 244.972L174.698 242.166C180.311 237.455 181.113 234.949 181.113 221.518V209.39L185.423 206.383C196.85 198.063 207.475 185.234 213.689 172.203C219.502 159.774 221.507 150.753 221.507 135.217C221.507 123.29 221.206 120.583 218.801 112.665C207.775 76.2805 176.904 52.2247 139.016 50.5207C131.999 50.22 125.885 50.5207 120.673 51.523ZM151.845 59.6419C188.029 67.0591 214.09 99.0334 214.19 135.919C214.19 161.579 201.761 185.234 180.211 200.369L174.097 204.679V217.508C174.097 231.842 173.295 234.849 168.785 236.452C166.981 237.054 154.05 237.455 135.407 237.455H105.037L102.23 235.049C99.4237 232.644 99.4237 232.443 98.9225 218.811L98.4213 204.979L92.9085 201.171C86.1929 196.46 76.6708 187.238 72.862 181.826C68.151 175.01 62.7385 163.383 60.6336 155.364C57.6266 144.138 57.6266 126.397 60.6336 115.872C72.0601 75.7794 111.652 51.4228 151.845 59.6419ZM163.071 253.492V261.511H136.009H108.946V253.492V245.473H136.009H163.071V253.492ZM163.071 270.732C163.071 273.338 158.26 282.159 155.454 284.765C148.437 291.18 136.51 294.187 128.391 291.58C119.57 288.674 113.757 282.86 110.449 273.639L109.046 269.529H136.009C156.957 269.529 163.071 269.83 163.071 270.732Z" fill="#1D3557"/>
<path d="M133.604 70.667C132.702 71.4689 132 72.5714 132 73.0726C132 75.1775 135.408 77.0819 139.317 77.0819C151.345 77.1821 165.778 83.2963 175.902 92.7182C186.727 102.741 193.443 116.173 194.746 130.305C195.447 137.222 196.951 140.229 199.657 140.229C202.263 140.229 203.466 136.219 202.764 129.504C200.459 106.751 186.226 86.5038 165.578 76.5807C152.447 70.1658 136.911 67.3593 133.604 70.667Z" fill="#1D3557"/>
<path d="M0.594238 134.415C-0.408089 136.219 -0.207623 136.821 1.6968 138.424C3.60122 139.928 5.80634 140.229 15.8296 140.229C26.4543 140.229 27.9578 140.028 29.762 138.224C31.3657 136.62 31.5662 135.718 30.7643 134.215C29.762 132.41 28.6594 132.21 15.7294 132.21C2.39843 132.21 1.6968 132.31 0.594238 134.415Z" fill="#1D3557"/>
<path d="M242.556 132.912C240.652 133.613 240.953 138.925 242.857 139.627C243.759 139.928 249.974 140.229 256.789 140.229C266.712 140.229 269.519 139.928 270.722 138.625C271.624 137.823 272.325 136.72 272.325 136.219C272.325 135.718 271.624 134.615 270.722 133.814C269.519 132.511 266.712 132.21 256.489 132.31C249.472 132.31 243.158 132.611 242.556 132.912Z" fill="#1D3557"/>
</svg>
