<svg width="301" height="300" viewBox="0 0 301 300" fill="none" xmlns="http://www.w3.org/2000/svg">
<path d="M32.1251 0.780418C30.7873 2.11827 31.2332 18.3955 32.6825 19.8448C33.463 20.6252 35.1353 21.1827 36.5846 21.1827C39.0373 21.1827 39.1488 21.6286 39.1488 28.3179C39.1488 35.3416 39.1488 35.3416 35.5812 36.345L31.9021 37.4599L31.5677 54.9635L31.2332 72.4671H21.7567C9.3816 72.4671 5.25655 74.2509 2.35787 80.4942C-1.43272 88.8558 -0.206353 100.339 4.47613 100.339C7.15184 100.339 7.93225 98.2207 7.93225 90.974C7.93225 87.6294 8.60118 84.1733 9.71606 82.7239L11.3884 80.2712H57.4328C98.9063 80.2712 103.7 80.4942 105.038 82.1665C106.264 83.6158 106.71 92.4234 106.933 126.316L107.268 168.57L102.362 173.809C98.1259 178.38 96.565 181.056 94.4468 187.522C94.0008 188.972 92.663 189.529 89.9873 189.529C85.0818 189.529 84.4129 190.644 83.7439 199.563L83.1865 206.81L78.1696 207.367L73.1526 207.925L72.8181 231.56L72.5952 255.307H40.2637H7.93225V186.185V117.062L10.4965 116.505C11.8343 116.17 26.2163 116.059 42.4935 116.17L72.0377 116.505L72.3722 156.863C72.5952 196.664 72.7067 197.222 74.9364 197.891C76.2743 198.337 77.7236 198.225 78.281 197.668C78.8385 197.11 79.1729 178.269 79.0615 153.184L78.727 109.815L40.8211 109.481C6.14845 109.258 2.80382 109.37 1.57745 111.153C-0.429329 113.718 -0.540816 273.368 1.35448 282.287C3.13828 290.537 9.49308 296.892 17.7432 298.676C26.3277 300.46 213.85 300.46 220.093 298.564C227.452 296.335 228.678 293.101 228.678 275.598V260.881H250.753C266.472 260.881 273.162 261.216 274.165 262.219C275.057 263.111 275.503 267.905 275.503 276.49C275.503 285.074 275.057 289.868 274.165 290.76C273.273 291.652 267.587 292.098 255.77 292.098C240.942 292.098 238.6 292.321 237.932 293.882C237.597 294.885 237.709 296.557 238.377 297.561C240.05 300.125 268.479 300.794 274.945 298.23C281.635 295.777 282.638 293.436 283.084 278.719C283.53 263.334 282.192 258.094 276.952 254.75C274.388 253.189 273.385 251.628 273.273 249.398C273.273 246.834 273.719 246.388 276.506 246.388C281.412 246.388 282.861 244.158 283.753 235.016C284.979 221.303 286.54 205.36 288.324 187.299C289.327 177.823 290.554 165.002 291.111 158.87C291.669 152.738 292.895 139.694 293.898 129.883C294.902 120.072 296.128 107.251 296.686 101.454C297.243 95.6565 298.246 86.0686 298.915 80.2712C299.473 74.4739 300.03 63.3251 300.03 55.6324C300.03 43.7032 299.696 41.362 298.246 40.8045C297.243 40.4701 274.054 40.1356 246.516 40.1356C202.924 40.1356 196.458 40.3586 195.232 41.8079C193.448 43.9262 194.228 67.7846 196.793 90.8626C197.684 98.7782 198.911 111.376 199.691 118.734C200.36 126.093 201.698 138.802 202.59 147.052C203.482 155.302 204.151 164.556 204.151 167.678V173.364L200.583 167.232C197.016 160.988 177.505 140.475 175.164 140.475C174.383 140.475 171.039 143.039 167.583 146.16C160.225 152.85 154.762 156.529 148.184 158.982C145.508 159.985 142.832 161.546 142.052 162.438C140.157 164.89 141.495 167.232 144.951 167.232C149.41 167.232 163.235 160.208 168.809 155.08C171.485 152.515 174.272 150.509 174.829 150.509C175.387 150.509 179.623 154.411 184.306 159.093C193.225 168.458 198.13 177.043 198.799 184.512L199.134 188.972L151.083 189.306C111.17 189.529 102.808 189.306 102.362 188.08C101.359 185.404 106.822 177.712 111.058 175.705C113.288 174.59 118.194 173.252 121.984 172.583C125.775 171.914 129.9 170.465 131.126 169.238C133.133 167.343 133.133 167.12 131.461 165.336C129.788 163.664 128.674 163.664 122.653 164.779C118.863 165.448 115.295 165.782 114.849 165.448C114.292 165.113 113.846 146.049 113.846 123.083V81.3861L110.055 77.1496L106.264 73.0245L95.0042 72.69L83.8554 72.2441L83.521 55.4094L83.1865 38.4633L79.6189 36.791C76.0513 35.1187 75.9398 34.8957 75.9398 28.0949V21.1827H95.2272C105.707 21.1827 115.072 20.7367 115.852 20.1793C117.859 18.9529 118.863 7.02373 117.302 3.01017L116.075 4.02125e-06H74.4905C51.524 4.02125e-06 32.4596 0.334467 32.1251 0.780418ZM110.278 10.2569L110.612 13.3785H74.9364H39.1488V10.0339V6.68927L74.6019 6.91225L109.944 7.24671L110.278 10.2569ZM68.1357 28.4294V35.6761H57.5443H46.953V28.4294V21.1827H57.5443H68.1357V28.4294ZM75.9398 57.9736V72.4671H57.5443H39.1488V57.9736V43.4802H57.5443H75.9398V57.9736ZM293.118 53.1797L293.452 57.9736H264.02C233.026 57.9736 230.239 58.4196 231.131 63.1021C231.465 65.1089 232.915 65.2204 262.124 65.7778C288.547 66.2237 292.784 66.5582 292.561 68.0075C292.449 68.8994 291.557 78.1529 290.554 88.6328C289.662 99.0012 288.324 112.38 287.767 118.177C287.209 123.974 285.871 136.796 284.979 146.606C282.192 175.147 281.3 184.512 279.405 204.023C278.402 214.168 277.175 225.874 276.841 230.222L276.06 238.026L252.425 238.361L228.79 238.584L228.455 223.31L228.121 207.925L225.333 207.59C217.752 206.81 217.529 206.587 217.529 200.455C217.529 197.222 216.637 192.874 215.411 190.198C213.85 186.854 212.735 179.941 211.397 165.002C210.394 153.63 209.168 139.806 208.61 134.343C207.941 128.768 206.715 116.059 205.823 105.913C204.82 95.768 203.593 83.8388 203.036 79.3793C201.029 64.8859 200.472 65.8893 211.509 65.5548C219.202 65.3318 221.431 64.7744 222.435 63.3251C224.553 59.9804 221.543 58.5311 211.397 58.0851L201.921 57.7507V52.8452V47.9397L247.408 48.1627L292.784 48.4972L293.118 53.1797ZM207.941 196.887C209.168 197.333 209.725 199.006 209.725 201.793C209.725 204.58 209.168 206.252 207.941 206.698C205.712 207.59 95.5616 207.59 93.3319 206.698C91.1021 205.918 90.8792 197.779 92.9974 196.999C95.0042 196.107 205.823 196.107 207.941 196.887ZM220.874 251.739C220.874 279.611 220.539 289.757 219.536 290.76C218.533 291.764 201.698 292.098 150.414 292.098H82.6291L80.8453 289.311C79.7304 287.527 79.2844 285.52 79.7304 283.736L80.3993 280.949H134.248C174.606 280.949 188.431 280.615 189.434 279.611C191.33 277.716 191.33 228.438 189.434 226.543C188.431 225.54 174.606 225.205 134.248 225.205H80.3993L79.7304 222.418C79.3959 220.857 79.3959 218.405 79.7304 216.844L80.3993 214.057H150.637H220.874V251.739ZM183.525 253.077V272.588L132.353 272.922C92.1055 273.145 80.9567 272.922 80.1763 271.807C79.1729 270.135 78.95 237.357 79.9534 234.793C80.6223 233.121 85.8622 233.009 132.13 233.232L183.525 233.567V253.077ZM265.469 249.733V253.077H247.074H228.678V249.733V246.388H247.074H265.469V249.733ZM72.3722 277.828L72.7067 292.098H45.6151C21.0878 292.098 18.1891 291.875 15.0675 289.98C10.0505 286.858 7.93225 281.507 7.93225 271.584V263.111L40.0407 263.334L72.0377 263.669L72.3722 277.828Z" fill="#1D3557"/>
<path d="M219.313 88.7446C218.979 89.6365 218.645 95.9913 218.645 102.681C218.645 114.721 218.645 114.944 221.543 115.948C223.104 116.617 235.256 117.062 248.635 117.062C268.145 117.062 273.274 116.728 274.277 115.502C275.169 114.498 275.503 109.481 275.28 100.785L274.946 87.5182L247.52 87.1838C223.216 86.9608 219.982 87.0723 219.313 88.7446ZM268.591 101.677L268.926 109.258H247.631H226.449V101.454V93.6501L247.408 93.873L268.257 94.2075L268.591 101.677Z" fill="#1D3557"/>
</svg>
