<svg width="300" height="300" viewBox="0 0 300 300" fill="none" xmlns="http://www.w3.org/2000/svg">
<path d="M113.924 0.153167C110.018 0.601368 110.211 -3.81662 110.211 76.2834V149.468H115.013H119.815V144.666V139.864H204.973H290.131V149.788C290.131 159.649 290.131 159.713 288.723 159.777C287.89 159.841 286.994 159.905 286.61 160.033C286.29 160.097 280.143 160.225 273.036 160.225L260.038 160.353V165.155V169.958H275.085H290.131V190.127V210.296H275.085H260.038V215.098V219.9H275.085H290.131V255.116V290.332L275.277 290.46L260.358 290.652L260.166 295.326L259.974 300L279.183 299.808C289.747 299.68 298.583 299.36 298.903 299.104C299.159 298.783 299.48 242.694 299.608 174.44L299.736 50.2877L296.983 49.9035C295.446 49.6474 293.397 49.5834 292.308 49.7115L290.452 49.9035L290.131 59.828L289.811 69.7525L265.032 69.9446L240.189 70.0726V39.6589V9.24526L265.032 9.37331L289.811 9.5654L290.003 24.4201L290.131 39.3388H294.998H299.8L299.608 20.4503C299.48 6.81216 299.224 1.43374 298.647 0.857483C298.071 0.281224 276.941 0.0891379 206.766 0.0251091C156.631 -0.0389197 114.885 0.0251091 113.924 0.153167ZM170.077 11.2942C170.654 14.4316 170.141 68.3438 169.565 69.2402C169.181 69.8805 163.418 70.0726 144.402 70.0726H119.815V40.0431C119.815 16.6086 120.007 9.94957 120.647 9.69346C121.031 9.50137 132.3 9.30928 145.554 9.30928L169.693 9.24526L170.077 11.2942ZM229.816 39.4668L229.624 69.7525L204.845 69.9446L180.002 70.0726V39.6589V9.24526H204.973H229.944L229.816 39.4668ZM229.944 104.584V129.491L228.536 129.875C227.703 130.068 202.924 130.26 173.471 130.26H119.815V104.968V79.6769H174.88H229.944V104.584ZM260.038 104.584V129.427L258.053 129.875C256.965 130.068 252.483 130.26 248.129 130.26H240.189V104.968V79.6769H250.113H260.038V104.584ZM290.131 104.584V129.555L286.802 129.94C284.945 130.132 280.399 130.26 276.685 130.132L269.962 129.94L269.77 105.609C269.706 92.2266 269.77 80.8935 269.962 80.5093C270.154 79.869 272.78 79.6769 280.207 79.6769H290.131V104.584Z" fill="#1D3557"/>
<path d="M149.908 39.6588V44.4609H154.646C160.025 44.4609 160.089 44.3969 159.641 38.1861L159.384 34.8566H154.646H149.908V39.6588Z" fill="#1D3557"/>
<path d="M190.246 39.6588V44.4609H195.048H199.85V39.6588V34.8566H195.048H190.246V39.6588Z" fill="#1D3557"/>
<path d="M130.06 104.968V114.893H134.862H139.664V104.968V95.0437H134.862H130.06V104.968Z" fill="#1D3557"/>
<path d="M73.7779 26.3416C72.8175 27.366 70.8966 30.3114 69.424 32.9365C66.8628 37.6106 66.6707 37.8027 61.0362 40.8121C55.0815 44.0776 53.7369 45.5502 54.3132 48.4955C54.7614 50.6725 55.7218 51.5049 61.6765 54.7063C66.4146 57.2035 66.7348 57.5876 69.6161 62.5819C73.5858 69.561 74.0981 70.0732 76.9153 70.0732C79.7326 70.0732 80.1168 69.6891 83.9585 62.774C86.7758 57.7797 87.0319 57.5236 92.0902 54.7063C98.1089 51.3768 99.0693 50.6085 99.6456 48.1754C100.03 46.7027 99.7096 46.0624 97.9168 44.3337C96.7643 43.1811 93.7549 41.1963 91.2578 39.8517C86.9679 37.6106 86.6477 37.2905 83.9585 32.2963C79.7966 24.4847 77.1715 23.0121 73.7779 26.3416ZM78.5161 42.3488C79.2204 43.6934 80.8851 45.3581 82.2297 46.1265L84.6628 47.4711L82.4218 48.8157C81.2053 49.52 79.4125 51.3128 78.452 52.7855L76.6592 55.4747L75.5067 53.2337C74.4182 50.9927 71.3448 48.3035 69.9362 48.3035C68.5276 48.3035 69.2959 47.343 71.665 46.0624C73.0096 45.3581 74.6103 43.7574 75.3146 42.4128C76.0189 41.0682 76.7233 39.9797 76.9153 39.9797C77.1074 39.9797 77.8117 41.0682 78.5161 42.3488Z" fill="#1D3557"/>
<path d="M261.19 50.0319L254.915 50.288V54.642C254.915 57.5873 255.171 59.124 255.747 59.3161C256.132 59.4441 260.614 59.4441 265.672 59.3161L274.764 59.06V54.706V50.4161L272.395 49.9679C271.05 49.7758 269.386 49.6477 268.681 49.7117C267.977 49.7758 264.583 49.9679 261.19 50.0319Z" fill="#1D3557"/>
<path d="M19.6096 97.6053C18.9693 98.3096 17.1124 101.191 15.5117 104.072C12.6304 109.13 12.4383 109.387 7.12395 112.268C-2.28828 117.454 -2.35231 120.271 6.8038 125.522C12.2463 128.659 12.6945 129.043 15.3196 133.525C19.6096 141.017 20.3139 141.785 22.811 141.785C25.5642 141.785 26.2686 141.017 29.9182 134.358C32.7355 129.171 33.0556 128.851 37.4096 126.482C44.2606 122.769 45.5412 121.616 45.5412 119.055C45.5412 116.302 44.4527 115.277 37.9218 111.82C32.9276 109.13 32.7355 108.938 30.0463 103.944C28.5736 101.127 26.7808 98.2456 26.1405 97.6053C24.6038 95.9405 21.1463 95.9405 19.6096 97.6053ZM24.7319 114.061C25.4362 115.341 26.9729 116.878 28.0614 117.39C29.2139 117.966 30.0463 118.607 29.9822 118.863C29.9182 119.119 28.8937 119.951 27.6772 120.784C26.4606 121.616 25.052 123.217 24.4758 124.305C23.8995 125.458 23.2592 126.418 23.0031 126.418C22.811 126.418 22.0427 125.394 21.2743 124.177C20.57 122.897 18.9693 121.296 17.6887 120.592C16.4722 119.823 15.4477 119.183 15.4477 119.055C15.4477 118.927 16.4722 118.287 17.6887 117.518C18.9693 116.814 20.57 115.213 21.2743 113.933C22.0427 112.716 22.811 111.692 23.0031 111.692C23.2592 111.692 24.0275 112.78 24.7319 114.061Z" fill="#1D3557"/>
<path d="M22.8115 160.289C10.0057 160.738 8.78917 161.058 4.6273 165.86C0.0172223 171.046 0.401395 165.22 0.401395 235.139C0.401395 297.375 0.401395 298.143 1.68197 299.04C2.77046 299.872 5.5237 300 18.1374 299.808C26.4611 299.68 33.5043 299.424 33.7604 299.168C34.0165 298.848 34.3367 295.646 34.5287 291.933L34.8489 285.21L109.827 285.081L184.804 284.889L184.996 280.279L185.189 275.605H109.891H34.6568V270.547V265.553L38.5626 265.104C43.6849 264.592 208.367 264.592 212.273 265.104L215.218 265.553V270.163V274.773L210.288 275.221C207.599 275.413 203.181 275.605 200.363 275.605H195.369V280.407V285.21H205.294H215.218V290.652C215.218 296.607 216.05 299.168 218.099 299.68C220.276 300.192 248.321 299.68 248.961 299.104C249.217 298.784 249.473 270.099 249.473 235.395V172.199L247.745 169.253C245.696 165.796 242.174 162.466 239.165 161.25C237.372 160.481 221.429 160.353 143.506 160.353H50.0237V165.156V169.958H141.905C221.173 169.958 234.107 170.086 236.091 170.918C239.677 172.391 240.189 174.44 240.189 188.078V199.795L235.707 200.499C230.009 201.396 225.911 203.381 222.261 207.094C218.612 210.744 216.499 214.906 215.666 220.54L214.962 224.958L209.455 225.151C206.446 225.279 202.796 225.279 201.26 225.151C198.699 224.958 198.571 224.894 199.019 223.23C199.275 222.269 199.531 216.186 199.467 209.656C199.467 199.795 199.275 197.426 198.378 195.377C196.65 191.663 193.128 188.206 189.542 186.605C186.469 185.325 185.445 185.261 173.983 185.453L161.626 185.645L158.809 187.502C155.351 189.807 153.494 191.856 151.83 195.313C150.229 198.579 149.46 211.64 150.421 219.58C150.741 222.397 150.997 224.766 150.933 224.83C150.869 224.894 147.988 225.151 144.466 225.407C136.527 225.919 132.365 227.456 128.139 231.233L124.937 234.115L121.992 231.425C117.51 227.327 113.604 225.855 105.793 225.407C102.079 225.151 99.0057 224.958 98.9417 224.83C98.8777 224.766 99.0698 221.949 99.4539 218.62C99.7741 215.29 99.9021 209.143 99.7101 204.917C99.2619 196.466 98.3655 194.033 94.5237 190.127C90.2338 185.837 89.4655 185.645 75.7633 185.453C63.4698 185.197 63.3417 185.261 59.9482 186.925C56.1705 188.718 53.9295 191.023 51.8165 195.185C50.728 197.362 50.4079 199.283 50.2158 206.454C50.0237 211.192 50.1518 217.275 50.4719 219.964L51.0482 224.894L44.1331 225.343C34.9769 225.919 34.9129 225.855 34.3367 220.989C33.6964 215.546 31.4554 210.872 27.8057 207.222C23.964 203.381 19.9302 201.396 14.1676 200.563L9.68557 199.923L9.7496 188.27C9.7496 169.766 9.55751 169.958 27.8057 169.958H39.7791V165.156C39.7791 161.506 39.587 160.353 38.8827 160.353C38.4345 160.353 37.218 160.225 36.1935 160.161C35.169 160.033 29.1503 160.097 22.8115 160.289ZM85.4957 195.825C89.4014 197.426 89.7216 198.515 89.7216 210.104V220.54L87.9928 222.461C85.6878 224.958 80.3734 225.919 71.6014 225.407C61.5489 224.83 60.1403 223.486 59.7561 213.625C59.3719 203.957 60.0122 199.219 61.9331 197.234C63.982 195.249 64.5583 195.121 74.8669 194.993C80.8216 194.929 83.959 195.185 85.4957 195.825ZM186.917 196.21C189.863 198.13 190.375 200.692 190.119 210.872C189.799 224.638 189.03 225.343 174.88 225.343C165.404 225.343 163.547 224.83 161.178 221.629C159.961 219.964 159.833 219.004 159.897 209.976C159.961 195.377 160.537 194.801 175.84 195.057C183.012 195.185 185.829 195.505 186.917 196.21ZM17.1769 211.384C20.0582 212.729 23.5798 216.763 24.3482 219.708C24.7964 221.309 25.0525 234.179 25.0525 256.204V290.332H17.369H9.68557V250.442C9.68557 228.48 9.87766 210.296 10.1338 210.104C10.71 209.463 14.6798 210.232 17.1769 211.384ZM240.061 250.186L240.189 290.332H232.506H224.758L224.95 254.924C225.142 215.29 224.886 217.659 230.009 213.241C232.442 211.192 236.54 209.592 238.909 209.912C239.741 209.976 239.869 215.034 240.061 250.186ZM107.201 235.203C112.196 235.843 115.397 237.7 117.894 241.478C119.239 243.399 119.559 244.743 119.687 249.353L119.943 254.924L113.604 255.308C105.537 255.884 41.5079 255.884 37.6021 255.372L34.6568 254.924V245.127V235.331L38.0503 235.075C45.2856 234.563 103.104 234.691 107.201 235.203ZM214.194 235.011C215.09 235.331 215.218 236.868 215.218 245.192V254.924L208.047 255.308C204.077 255.564 184.868 255.756 165.34 255.756H129.932L130.188 249.738C130.38 244.423 130.636 243.399 132.237 241.094C134.606 237.7 137.615 235.907 141.777 235.267C145.747 234.691 212.721 234.435 214.194 235.011Z" fill="#1D3557"/>
<path d="M260.037 255.116V264.721H264.839H269.641V255.116V245.512H264.839H260.037V255.116Z" fill="#1D3557"/>
</svg>
