<svg width="300" height="300" viewBox="0 0 300 300" fill="none" xmlns="http://www.w3.org/2000/svg">
<path d="M50.4577 1.10093C45.8538 2.40203 43.5519 5.70482 43.3517 11.0093C43.2516 14.9126 43.8521 15.5131 59.065 30.8261C67.6723 39.4334 74.7783 47.34 74.7783 48.2408C74.7783 49.1416 73.1769 53.7455 71.0752 58.5495L67.4721 67.2569L60.8665 70.2594C57.2635 71.8608 53.4603 73.6623 52.5595 74.1627C48.3559 76.3646 46.4543 75.0635 30.8411 59.7506C14.5273 43.6369 12.3255 42.2357 6.52055 44.2374C2.31699 45.7387 0.615555 49.9423 0.415386 59.4503C0.215216 70.1594 1.31615 76.1644 5.01928 84.0711C16.9294 109.292 43.5519 123.404 70.7749 118.801L75.2787 118.1L93.5942 136.115C103.603 145.923 111.81 154.531 111.81 155.231C111.81 155.832 110.108 158.134 107.906 160.236C103.403 164.839 100.4 165.14 93.4941 162.137C89.2906 160.236 88.59 160.236 85.5874 161.537C83.6858 162.337 65.6706 179.652 42.6511 202.772C3.31784 242.305 2.9175 242.805 1.21606 248.71C-0.685546 255.516 -0.385292 262.122 2.31699 267.927C3.31784 270.028 9.72326 277.435 16.6291 284.341C28.6393 296.351 29.54 296.951 35.6452 298.653C42.9514 300.654 48.6562 300.254 55.7622 297.151C59.065 295.65 69.4738 285.942 98.098 257.418C118.916 236.7 136.831 218.085 137.732 216.183C139.533 212.78 139.533 212.48 137.732 206.174C135.73 198.668 136.03 195.465 139.433 191.862C144.737 186.057 143.336 185.057 177.966 220.286L209.692 252.614L210.293 259.019C212.195 277.034 224.805 292.648 241.519 297.752C250.727 300.554 259.735 300.754 266.841 298.252C288.96 290.846 302.871 269.328 299.068 248.61C295.265 227.793 280.853 213.981 260.135 210.979L252.128 209.878L217.799 175.549C198.883 156.633 183.27 140.819 183.07 140.319C182.97 139.918 198.983 123.504 218.6 103.888C251.128 71.4605 254.831 68.1577 258.434 67.5572C267.842 65.9558 273.446 63.854 276.349 60.5512C280.052 56.4478 298.768 25.5216 299.669 22.2188C300.469 19.0161 298.468 15.2129 292.763 9.20778C286.658 2.70228 282.754 -6.40178e-06 279.451 -6.40178e-06C276.749 -6.40178e-06 248.425 16.3138 240.719 22.2188C236.715 25.3214 234.714 29.8252 232.912 39.5334L231.711 45.5385L197.082 80.368C177.966 99.5843 161.652 115.598 160.851 116.098C159.75 116.699 154.145 111.795 138.432 96.3815L117.514 75.9643L118.816 67.357C120.217 57.7489 119.716 51.4435 116.614 42.1356C108.807 18.3155 87.4891 1.9016 62.3678 0.500417C57.864 0.300248 52.5595 0.600502 50.4577 1.10093ZM72.076 11.5097C83.0853 14.4122 92.2931 20.4173 99.299 29.4249C108.106 40.8345 111.109 53.245 108.807 69.5588L107.506 79.2671L129.725 101.486C141.835 113.596 151.844 124.005 151.844 124.605C151.844 125.806 145.738 132.112 144.437 132.112C143.937 132.112 140.934 129.61 137.732 126.607C134.529 123.605 131.226 121.102 130.225 121.102C129.324 121.102 124.821 117.499 120.217 113.096C111.81 105.089 108.707 103.588 106.005 106.29C103.503 108.792 104.904 111.695 111.309 118.1C114.912 121.603 117.815 125.206 117.815 126.107C117.815 126.907 115.713 129.81 113.111 132.412L108.507 137.316L93.7944 122.704C84.7868 113.696 78.3813 108.091 77.1803 108.192C76.1795 108.192 71.8758 108.792 67.6723 109.393C58.0642 110.994 46.6545 109.493 38.4476 105.589C26.6376 99.9846 15.6283 87.0737 11.725 74.2628C9.82335 68.1577 8.92258 54.0457 10.4239 54.0457C10.8242 54.0457 17.6299 60.5512 25.6367 68.3578C42.551 84.9719 44.7529 86.273 52.8598 83.5707C55.6621 82.6699 61.6672 80.2679 66.171 78.1661C74.2779 74.463 74.378 74.2628 77.4806 67.9575C79.0819 64.4545 81.484 58.7497 82.7851 55.2467C86.3881 45.3384 85.4874 43.5368 68.1727 26.022C60.266 17.9152 53.7605 11.1094 53.7605 10.7091C53.7605 9.40795 66.2711 10.0085 72.076 11.5097ZM283.755 13.6115C291.061 19.8168 291.161 19.1162 280.452 37.0313C275.148 45.8388 269.743 53.7455 268.442 54.6462C267.141 55.547 262.737 56.8481 258.734 57.7489C254.53 58.5495 250.127 60.1509 248.425 61.5521C246.824 62.8532 226.307 82.8701 202.887 106.09L160.451 148.225L157.949 146.324C156.547 145.323 154.546 143.321 153.445 141.82L151.443 139.118L195.581 94.7802C238.617 51.7438 239.818 50.4427 241.219 45.0381C242.12 42.0356 243.021 37.9321 243.321 35.9304C243.721 33.9287 245.022 31.3265 246.424 30.0254C248.725 27.9236 277.75 10.0085 279.051 10.0085C279.351 10.0085 281.453 11.6098 283.755 13.6115ZM149.241 151.028C171.06 172.846 170.259 171.545 163.954 177.55C161.552 179.852 160.451 180.253 158.149 179.652C147.34 176.95 139.833 178.451 133.428 184.556C127.023 190.861 125.821 196.566 128.424 209.077C129.124 212.38 128.824 212.68 93.6943 247.91C74.1778 267.426 56.3627 284.741 54.1609 286.242C49.0565 289.845 43.2516 290.846 38.1473 289.245C33.4433 287.743 14.5273 269.728 11.6249 264.023C9.22284 259.219 9.22284 253.915 11.725 248.811C12.926 246.108 26.9378 231.496 51.1583 207.375C85.1871 173.347 88.6901 170.044 90.5917 171.045C94.3949 173.046 104.003 173.547 107.906 171.845C119.116 167.242 124.32 155.532 120.317 144.022L118.816 139.718L123.019 135.415C125.321 133.013 127.723 131.111 128.324 131.111C128.824 131.111 138.332 140.018 149.241 151.028ZM212.094 183.856L247.925 219.586L256.132 220.286C266.44 221.087 272.646 223.889 279.451 230.695C287.358 238.502 289.46 243.706 289.46 255.216C289.36 263.723 289.06 265.324 286.457 270.529C283.155 277.235 276.349 283.84 269.243 287.343C265.139 289.345 262.937 289.745 254.931 289.645C243.421 289.645 238.116 287.543 230.41 279.737C223.504 272.931 220.802 266.826 220.201 256.717L219.701 248.71L190.977 219.886C165.555 194.264 162.553 190.962 164.254 189.961C165.255 189.36 167.857 187.359 169.859 185.557C171.961 183.655 173.962 182.154 174.463 182.154C174.963 182.154 183.27 190.061 192.878 199.669C204.488 211.279 211.094 217.184 212.495 217.184C215.197 217.184 217.199 214.882 216.698 212.28C216.498 211.179 208.191 201.971 198.183 191.862C185.472 179.051 179.267 172.046 177.966 169.043C176.965 166.641 174.663 163.238 172.861 161.637C167.457 156.532 167.257 155.331 170.96 151.528C172.761 149.627 174.763 148.125 175.263 148.125C175.864 148.125 192.478 164.239 212.094 183.856Z" fill="#1D3557"/>
<path d="M58.4635 218.985C27.0369 250.412 24.9351 253.014 27.9376 256.016C30.9402 259.019 33.5424 256.917 65.069 225.39C96.4956 193.964 98.5974 191.362 95.5949 188.359C92.5923 185.357 89.9901 187.458 58.4635 218.985Z" fill="#1D3557"/>
<path d="M74.4778 234.999C53.5601 255.917 42.751 267.427 42.751 268.828C42.751 271.43 44.5525 273.231 47.2548 273.231C50.1572 273.231 112.81 210.478 112.81 207.476C112.81 205.274 110.208 203.172 107.606 203.172C106.905 203.172 91.9926 217.484 74.4778 234.999Z" fill="#1D3557"/>
<path d="M247.924 231.297C237.015 234.6 228.808 247.01 230.309 257.92C232.511 274.434 250.627 284.642 265.339 277.736C269.743 275.635 274.647 270.73 277.249 265.826C279.951 260.522 280.152 250.313 277.649 245.109C272.345 234.3 258.833 227.994 247.924 231.297ZM261.336 241.606C270.944 245.609 272.745 260.422 264.438 266.827C257.632 271.931 248.024 270.931 243.12 264.425C239.617 259.821 239.217 250.914 242.42 246.61C246.823 240.805 254.53 238.803 261.336 241.606Z" fill="#1D3557"/>
</svg>
