<svg width="346" height="300" viewBox="0 0 346 300" fill="none" xmlns="http://www.w3.org/2000/svg">
<path d="M112.306 1.15438C103.256 3.57639 96.3721 8.80283 90.7632 17.4711C77.3785 38.2493 75.8488 68.7156 87.194 89.8763C100.961 115.754 126.201 121.235 144.43 102.241C170.052 75.7267 164.571 17.981 135.124 3.95881C126.583 -0.120356 119.827 -0.885201 112.306 1.15438ZM130.535 14.1567C142.263 20.148 150.931 43.0934 149.019 63.1068C146.979 85.9246 135.379 101.476 120.465 101.731C108.737 101.859 99.4315 92.9357 94.46 76.7465C91.0182 65.5288 90.7632 48.0648 93.8226 37.612C99.9414 16.7062 115.748 6.63577 130.535 14.1567Z" fill="#1D3557"/>
<path d="M218.237 0.515527C212.119 1.79027 202.813 7.27165 198.479 12.3706C186.624 26.5202 180.887 55.2019 185.986 75.0879C192.105 98.9255 207.02 113.33 225.376 113.33C238.506 113.33 250.233 104.662 257.754 89.2375C267.697 69.2241 267.825 44.2391 258.137 23.7158C250.361 7.39913 233.662 -2.41638 218.237 0.515527ZM235.574 14.5377C246.027 20.529 253.293 38.1204 253.293 57.369C253.165 81.2066 243.095 98.6706 227.798 101.73C204.98 106.192 188.154 66.6746 199.116 34.5511C205.872 15.0476 221.424 6.50681 235.574 14.5377Z" fill="#1D3557"/>
<path d="M18.2306 80.1861C6.37554 86.1774 -0.125634 99.9446 0.0018397 119.193C0.0018397 150.807 18.7405 177.959 40.4111 178.086C52.6486 178.214 60.9344 171.203 66.9257 156.033C70.1126 147.747 70.6225 130.028 68.073 119.193C63.6114 100.454 50.2266 82.9905 37.3517 79.1663C28.3011 76.4894 25.1142 76.6168 18.2306 80.1861ZM41.9408 95.1006C51.2464 104.024 57.6201 120.085 58.0025 135.127C58.2575 155.141 51.8838 166.359 39.9012 166.359C24.8593 166.359 11.2196 142.648 11.4745 116.644C11.602 105.298 14.4064 97.65 19.8878 92.9335C23.3296 90.0016 24.7318 89.6192 30.5956 90.1291C36.2045 90.639 38.2441 91.5313 41.9408 95.1006Z" fill="#1D3557"/>
<path d="M307.088 79.0396C296.763 82.7364 285.29 95.9937 279.809 110.653C276.494 119.449 274.072 136.785 275.092 144.434C277.897 164.957 289.369 177.705 305.176 177.832C313.334 177.832 319.581 174.9 326.592 167.889C338.319 155.906 345.203 137.678 345.075 117.919C344.948 102.622 341.634 93.1892 333.73 85.4133C325.699 77.6374 316.904 75.4704 307.088 79.0396ZM325.827 93.4442C330.926 98.7981 333.093 106.447 333.093 119.831C333.093 135.766 328.376 149.405 319.836 158.456C309 170.056 297.145 169.036 290.262 156.034C287.33 150.425 286.31 131.559 288.477 121.871C292.556 102.877 304.029 89.8749 316.649 89.8749C321.238 89.8749 323.022 90.5123 325.827 93.4442Z" fill="#1D3557"/>
<path d="M157.688 141.375C146.47 143.924 133.085 151.19 123.907 159.603C100.452 181.146 62.9745 217.222 59.4052 221.811C45.7655 239.275 47.9326 266.554 64.5042 284.528C71.3878 291.921 77.2516 295.618 86.5572 298.423C97.0101 301.482 109.248 300.207 134.487 293.579C154.373 288.352 156.031 288.097 173.112 288.097C189.811 288.225 192.361 288.607 213.266 293.834C248.832 302.629 262.216 301.354 277.641 287.332C297.399 269.231 300.076 240.167 283.76 219.771C277.258 211.485 217.855 155.907 210.335 151.063C195.675 141.375 174.769 137.55 157.688 141.375ZM189.429 154.504C193.508 155.652 200.137 158.711 204.088 161.26C213.521 167.379 272.669 223.468 277.258 230.606C286.946 245.393 283.505 266.299 269.228 279.047C257.755 289.499 248.067 290.264 220.023 283.253C183.437 274.075 168.523 273.82 134.87 282.106C123.652 284.91 110.65 287.46 105.933 287.97C78.7813 290.902 57.4931 269.104 62.7195 243.736C63.6119 239.402 65.6514 233.538 67.3086 230.734C68.8383 228.057 85.2825 211.485 103.766 194.149C131.81 167.762 138.949 161.77 146.343 158.074C160.62 150.935 172.602 150.043 189.429 154.504Z" fill="#1D3557"/>
</svg>
