<svg width="301" height="300" viewBox="0 0 301 300" fill="none" xmlns="http://www.w3.org/2000/svg">
<path d="M91.2643 0.890762C80.3876 3.26613 69.6359 11.6424 64.5101 21.8315C60.822 29.2077 60.0094 33.5834 60.0094 47.3355V58.7748L58.1966 61.0877C53.5084 67.0886 54.0709 74.8398 59.5093 80.4032C62.0097 82.9661 66.1978 84.9664 69.0108 84.9664C70.0734 84.9664 70.511 85.5915 71.1361 88.2169C72.1363 92.5301 75.1367 98.5935 77.8247 101.844L80.0125 104.469V114.659V124.785L75.5118 125.285C62.2597 126.535 49.6953 134.287 42.5066 145.476L39.6937 149.914H33.8178C25.9416 149.977 23.5037 150.789 19.6906 154.665C15.3774 158.915 15.0023 160.541 15.0023 174.918C15.0023 186.795 15.0023 186.92 16.5651 188.42C18.5654 190.483 21.4409 190.483 23.4412 188.42C25.0039 186.92 25.0039 186.795 25.0039 174.98C25.0039 163.166 25.0039 163.041 26.5667 161.541L28.0669 159.978H105.016H181.966L183.466 161.541L185.029 163.041V206.548V249.992H105.016H25.0039V239.053C25.0039 228.239 25.0039 228.051 23.4412 226.551C22.5035 225.551 21.1908 224.988 20.0031 224.988C18.8154 224.988 17.5027 225.551 16.5651 226.551L15.0023 228.051V245.179C15.0023 261.869 15.1899 264.182 17.1902 268.87C17.6278 269.933 17.0652 269.995 10.3766 269.995C3.43804 269.995 3.00047 270.058 1.56274 271.558C0 273.058 0 273.183 0 284.998C0 296.812 0 296.937 1.56274 298.437L3.06298 300H149.898H296.734L298.422 298.437L300.047 296.937V284.998C300.047 273.183 300.047 273.058 298.484 271.558L296.984 269.995H278.544H260.103L261.666 267.37C262.479 265.87 263.479 263.619 263.791 262.307L264.479 259.994H268.667C273.918 259.994 278.293 258.118 281.356 254.43C284.357 250.992 285.045 248.304 285.045 240.053C285.045 233.49 284.982 232.99 283.482 231.552C282.044 230.052 281.669 229.989 273.48 229.989H265.041V226.551C265.041 223.676 264.791 222.8 263.479 221.55L261.978 219.987H235.037H208.095L206.532 221.55L204.97 223.113L205.157 242.116L205.345 261.056L207.657 265.557L209.908 269.995H201.156C193.03 269.995 192.405 269.933 192.843 268.87C195.03 263.744 195.03 262.994 195.03 212.611C195.03 175.418 194.843 162.291 194.28 160.353C193.28 156.915 188.092 151.727 184.654 150.727C183.216 150.289 179.403 149.977 176.215 149.977L170.339 149.914L167.526 145.476C160.463 134.412 147.711 126.535 134.521 125.285L130.02 124.785V114.784V104.782L132.521 101.594C135.396 97.8434 137.897 92.6551 138.959 88.1544C139.522 85.5915 139.959 84.9664 141.022 84.9664C145.898 84.9664 152.274 80.0906 154.087 75.0273C155.837 70.0266 154.774 63.9631 151.586 60.5876C150.148 59.0874 150.148 58.7123 149.898 45.5852C149.648 34.0209 149.398 31.5831 148.273 28.0825C144.96 18.0809 137.271 9.07954 128.083 4.45382C125.207 3.01609 120.894 1.39084 118.456 0.890762C112.83 -0.296924 96.8276 -0.296924 91.2643 0.890762ZM115.706 10.5798C124.394 12.205 132.708 18.5185 136.646 26.5198C139.397 32.2082 140.022 35.7712 140.022 46.2729C140.022 54.8367 140.022 54.9617 138.647 54.9617C137.709 54.9617 134.771 52.4613 129.708 47.4605C120.581 38.4591 120.331 38.3966 114.455 43.0849C107.267 48.8358 98.8905 52.9614 91.6393 54.2741C89.5765 54.6492 83.8881 54.9617 78.9498 54.9617H70.0109V45.8978C70.0109 36.0838 70.636 31.8956 72.8864 27.2699C76.8245 19.0186 83.7631 13.3302 92.702 10.8923C96.5776 9.89217 110.83 9.64213 115.706 10.5798ZM129.895 74.0897L129.708 85.9666L127.395 90.7173C124.582 96.4057 120.956 99.9062 115.143 102.657C111.33 104.469 110.392 104.657 105.016 104.657C99.6406 104.657 98.7029 104.469 94.8898 102.657C89.0764 99.9062 85.4509 96.4057 82.6379 90.7173L80.3251 85.9666L80.1375 75.5899L79.8875 65.1508L86.701 64.7757C97.3902 64.1506 106.704 60.9001 115.831 54.5867L119.706 51.8362L124.895 57.0245L130.083 62.1503L129.895 74.0897ZM70.0109 69.9641C70.0109 74.0272 69.8234 74.9648 69.0733 74.9648C67.3855 74.9648 65.0102 72.0269 65.0102 69.9641C65.0102 67.9012 67.3855 64.9633 69.0733 64.9633C69.8234 64.9633 70.0109 65.9009 70.0109 69.9641ZM143.46 66.526C144.46 67.4637 145.023 68.7764 145.023 69.9641C145.023 72.0269 142.647 74.9648 140.96 74.9648C140.209 74.9648 140.022 74.0272 140.022 69.9641C140.022 64.3382 140.709 63.7131 143.46 66.526ZM94.1397 113.221C97.1402 114.283 99.203 114.534 105.016 114.534C110.83 114.534 112.893 114.283 115.893 113.221C117.956 112.471 119.706 111.846 119.831 111.846C119.894 111.846 120.019 115.096 120.019 119.159C120.019 125.785 119.894 126.66 118.456 129.098C116.081 133.161 112.455 134.662 105.016 134.662C99.8281 134.662 98.6404 134.474 95.9525 133.036C91.0142 130.536 90.0141 128.223 90.0141 119.159C90.0141 115.159 90.1391 111.846 90.2016 111.846C90.3266 111.846 92.0769 112.471 94.1397 113.221ZM84.5132 136.787C93.077 147.539 116.956 147.539 125.52 136.787C126.832 135.162 127.332 134.974 130.52 134.974C139.022 135.037 148.023 138.85 154.337 145.101C156.462 147.164 158.15 149.101 158.15 149.414C158.15 149.727 136.271 149.977 104.641 149.977H51.133L53.1333 147.601C60.0094 139.725 69.4484 135.162 79.1999 135.037C82.7629 134.974 83.138 135.099 84.5132 136.787ZM255.04 243.616C255.04 259.306 254.602 261.306 250.602 265.432C246.914 269.308 243.726 270.12 233.974 269.87C224.91 269.683 221.847 268.62 218.534 264.619C215.409 260.806 215.096 258.994 215.034 243.866V229.989H235.037H255.04V243.616ZM275.043 243.429C275.043 248.304 273.355 249.992 268.479 249.992H265.041V244.991V239.991H270.042H275.043V243.429ZM184.779 261.994C184.341 264.432 182.841 266.62 180.403 268.37C178.715 269.683 178.465 269.683 105.016 269.683C31.5674 269.683 31.3174 269.683 29.6296 268.37C27.1917 266.62 25.6915 264.432 25.2539 261.994L24.8789 259.994H105.016H185.216L184.779 261.994ZM290.045 284.998V289.998H150.023H10.0016V284.998V279.997H150.023H290.045V284.998Z" fill="#1D3557"/>
<path d="M221.597 181.544C220.034 183.045 220.034 183.17 220.034 194.984C220.034 206.798 220.034 206.923 221.597 208.424C222.535 209.424 223.847 209.986 225.035 209.986C226.223 209.986 227.535 209.424 228.473 208.424C230.036 206.923 230.036 206.798 230.036 194.984C230.036 183.17 230.036 183.045 228.473 181.544C227.535 180.544 226.223 179.982 225.035 179.982C223.847 179.982 222.535 180.544 221.597 181.544Z" fill="#1D3557"/>
<path d="M241.6 181.544C240.037 183.045 240.037 183.17 240.037 194.984C240.037 206.798 240.037 206.923 241.6 208.424C242.537 209.424 243.85 209.986 245.038 209.986C246.226 209.986 247.538 209.424 248.476 208.424C250.039 206.923 250.039 206.798 250.039 194.984C250.039 183.17 250.039 183.045 248.476 181.544C247.538 180.544 246.226 179.982 245.038 179.982C243.85 179.982 242.537 180.544 241.6 181.544Z" fill="#1D3557"/>
<path d="M100.016 190.795C96.9526 191.795 91.7017 197.171 90.7641 200.359C89.0138 206.235 90.264 210.923 94.7022 215.299C101.016 221.675 109.017 221.675 115.33 215.299C121.706 208.986 121.706 200.984 115.33 194.671C110.955 190.233 105.829 188.982 100.016 190.795ZM108.454 201.547C111.58 204.61 109.392 209.986 105.016 209.986C103.829 209.986 102.516 209.423 101.578 208.423C100.578 207.485 100.016 206.173 100.016 204.985C100.016 203.797 100.578 202.485 101.578 201.547C102.516 200.547 103.829 199.984 105.016 199.984C106.204 199.984 107.517 200.547 108.454 201.547Z" fill="#1D3557"/>
<path d="M16.5647 201.547C15.1895 202.859 15.002 203.61 15.002 207.485C15.002 211.361 15.1895 212.111 16.5647 213.424C17.5023 214.424 18.815 214.986 20.0027 214.986C21.1904 214.986 22.5031 214.424 23.4408 213.424C24.816 212.111 25.0035 211.361 25.0035 207.485C25.0035 203.61 24.816 202.859 23.4408 201.547C22.5031 200.547 21.1904 199.984 20.0027 199.984C18.815 199.984 17.5023 200.547 16.5647 201.547Z" fill="#1D3557"/>
</svg>
