<svg width="300" height="300" viewBox="0 0 300 300" fill="none" xmlns="http://www.w3.org/2000/svg">
<path d="M28.8739 12.7217V25.4434L47.491 50.1628C57.7304 63.8153 66.1081 75.5027 66.1081 76.2267C66.1081 77.1576 58.5579 77.4679 37.1482 77.7782L8.18823 78.0884L4.36138 82.0187L0.431098 85.8456L0.120813 158.245C-0.189472 237.885 -0.396329 234.265 6.11966 239.126L9.22251 241.402V254.951C9.22251 265.294 8.8088 269.017 7.67109 270.672C5.70595 273.465 4.56823 281.118 5.49909 285.876C6.32652 290.427 11.6014 296.633 16.1522 298.494C25.1505 302.321 35.8036 298.598 40.1476 290.22C43.2505 284.118 43.3539 278.016 40.4579 271.81C38.4927 267.88 38.1825 265.397 38.1825 254.641V242.022H82.1395H126.097V254.434C126.097 264.984 125.786 267.362 123.925 270.982C119.063 280.291 121.132 290.634 128.993 296.633C132.199 299.115 133.647 299.425 140.059 299.425C146.679 299.425 147.92 299.115 151.333 296.426C159.194 290.53 161.262 278.843 156.091 270.465C154.229 267.362 154.022 265.604 154.229 254.744L154.539 242.54L208.115 242.229L261.588 242.022V254.848C261.588 266.328 261.381 268.19 259.312 271.603C253.934 280.705 258.175 293.943 267.587 298.081C272.965 300.459 281.756 300.149 285.893 297.46C294.375 291.875 296.753 282.049 292.099 271.086C289.617 264.984 289.41 263.432 289.72 253.193L290.031 242.022L293.857 238.92C296.133 236.954 298.201 234.162 298.822 231.886C299.649 229.301 299.856 201.479 299.649 142.731C299.339 60.9193 299.236 57.2993 297.374 54.5068C293.34 48.5079 294.271 48.6113 237.075 48.6113C186.912 48.6113 184.43 48.7148 181.224 50.6799C176.363 53.5759 175.328 56.3685 174.708 67.2285L174.191 77.0542L145.334 77.3644C120.408 77.5713 116.581 77.3644 117.098 76.1233C117.409 75.2959 125.89 63.7119 135.819 50.3696L154.022 26.064V13.032V6.71401e-06H91.4481H28.8739V12.7217ZM145.127 16.2383L145.024 22.5474L125.062 49.3353C114.099 64.0222 104.583 76.3302 103.963 76.8473C103.342 77.261 97.4469 77.4679 90.9309 77.3644L79.0367 77.0542L58.6613 49.7491L38.1825 22.444V15.8245V9.30856L91.7584 9.51542L145.231 9.8257L145.127 16.2383ZM288.893 59.2645C290.134 60.1953 290.651 61.6433 290.341 64.1256L290.031 67.7456H237.282H184.534L184.223 64.3325C183.603 57.6096 181.224 57.9199 236.662 57.9199C276.275 57.9199 287.445 58.2302 288.893 59.2645ZM290.548 153.488C290.548 221.13 290.341 229.611 288.893 231.059C287.445 232.507 281.239 232.714 235.627 232.714H184.016V155.143V77.5713H237.282H290.548V153.488ZM72.3138 93.189C72.3138 98.6707 72.0035 99.6015 70.1418 100.015C69.0041 100.326 64.2464 102.394 59.5921 104.67C49.2493 109.634 37.9756 120.598 33.6316 129.596L30.839 135.491H20.0825H9.22251V112.22C9.22251 88.9484 9.22251 88.845 11.6014 87.9141C12.8425 87.397 27.0122 86.9833 43.147 86.9833L72.3138 86.8799V93.189ZM101.067 92.3616L101.377 97.3261L91.7584 97.0158L82.1395 96.7055L81.8292 93.2924C81.2087 87.0867 81.6224 86.7764 91.6549 87.0867L100.757 87.397L101.067 92.3616ZM174.191 111.186V134.974L163.331 135.284L152.367 135.595L149.989 130.733C143.99 118.219 132.406 107.772 118.546 102.187C115.547 100.946 112.547 99.4981 111.927 98.981C110.479 97.9467 110.065 88.7416 111.306 87.6038C111.72 87.1901 125.993 86.9833 143.059 87.0867L174.191 87.397V111.186ZM97.4469 106.118L101.274 106.842V121.218V135.595L91.7584 135.284L82.1395 134.974V121.011V107.152L84.7252 106.428C88.1384 105.497 92.6892 105.394 97.4469 106.118ZM72.3138 122.563V135.491H57.3167C40.4579 135.491 40.3545 135.388 45.2156 128.665C51.2144 120.494 65.591 109.841 71.0727 109.634C72.0035 109.634 72.3138 112.84 72.3138 122.563ZM120.408 113.047C126.614 116.15 133.026 121.735 137.577 128.044C139.749 131.251 141.611 134.147 141.611 134.664C141.611 135.181 134.785 135.388 126.407 135.284L111.099 134.974L110.789 123.7C110.686 117.391 110.789 111.703 111.099 110.875C111.72 109.324 113.995 109.841 120.408 113.047ZM48.0082 149.971V154.625L28.667 154.936L9.22251 155.143V149.971V144.8L28.667 145.007L48.0082 145.317V149.971ZM67.4527 149.971V154.625L62.695 154.936L57.8339 155.246V149.971V144.696L62.695 145.007L67.4527 145.317V149.971ZM105.928 149.971V154.625H91.4481H76.9681L76.6578 151.212C76.0372 144.696 76.0372 144.696 91.6549 145.007L105.928 145.317V149.971ZM125.579 149.971V154.625H120.925C116.374 154.625 116.271 154.522 115.961 151.212C115.443 145.627 116.167 144.593 121.132 145.007L125.579 145.317V149.971ZM174.191 149.971V154.625L154.85 154.936L135.405 155.143V149.971V144.8L154.85 145.007L174.191 145.317V149.971ZM48.0082 174.277V183.585L43.5607 184.103L39.0099 184.62L39.2167 207.27C39.2167 222.992 38.9065 230.232 38.079 231.266C36.2173 233.438 13.0494 233.334 10.8774 231.059C9.42937 229.714 9.22251 225.164 9.22251 196.928V164.451L28.667 164.658L48.0082 164.968V174.277ZM67.1424 173.243C67.1424 178.104 67.2458 182.344 67.4527 182.758C67.5561 183.275 65.4876 183.689 62.7984 183.896L57.8339 184.206V174.38V164.451H62.4881H67.1424V173.243ZM106.238 174.587L106.549 184.206L91.7584 183.896L76.9681 183.585L76.6578 175.415C76.451 170.864 76.5544 166.623 76.8647 165.796C77.3818 164.658 80.3812 164.451 91.6549 164.658L105.928 164.968L106.238 174.587ZM125.579 174.277V183.585L120.718 183.896L115.754 184.206V174.277V164.348L120.718 164.658L125.579 164.968V174.277ZM174.191 198.583V232.197H159.711H145.231L144.921 208.098L144.714 184.103H140.059H135.405V174.277V164.451L154.85 164.658L174.191 164.968V198.583ZM135.198 212.752L134.888 232.197H91.4481H48.0082L47.6979 215.131C47.5944 205.719 47.6979 197.031 48.0082 195.687L48.5253 193.411H91.9652H135.405L135.198 212.752ZM28.8739 251.848V261.674H23.7025H18.5311V252.572C18.5311 247.504 18.8414 243.057 19.2551 242.746C19.5654 242.333 21.9442 242.022 24.4265 242.022H28.8739V251.848ZM145.127 243.677C145.438 244.608 145.748 248.228 145.748 251.848C145.748 260.95 145.334 261.674 139.956 261.674H135.405V251.848V242.022H139.956C143.162 242.022 144.714 242.54 145.127 243.677ZM281.032 252.055L281.343 261.674H276.068H270.896V251.745V241.919L275.861 242.229L280.722 242.54L281.032 252.055ZM29.7013 273.568C39.2167 281.635 29.7013 294.874 18.6345 289.082C12.6356 286.083 12.5322 278.119 18.3242 273.361C21.9442 270.258 25.8745 270.362 29.7013 273.568ZM144.817 272.534C153.298 276.981 150.609 288.979 140.887 290.323C137.06 290.841 136.233 290.53 133.337 287.738C128.579 282.98 129.613 275.74 135.509 272.43C138.818 270.569 141.094 270.672 144.817 272.534ZM280.929 272.741C284.652 275.223 286.617 280.291 285.273 284.221C282.791 291.358 271.724 292.702 267.793 286.186C264.794 281.429 265.208 278.533 269.241 274.499C273.172 270.569 276.688 270.052 280.929 272.741Z" fill="#1D3557"/>
<path d="M193.531 120.7L193.841 154.624L237.074 154.935L280.204 155.142V121.01V86.8789H236.764H193.324L193.531 120.7ZM270.896 103.945V111.702H252.485H234.178L231.593 115.839C230.145 118.114 228.697 119.976 228.283 119.976C227.766 119.976 225.904 116.977 224.146 113.253L220.836 106.53H211.734H202.633V102.083C202.633 99.6006 202.943 97.2217 203.357 96.9114C203.667 96.4977 219.078 96.1874 237.488 96.1874H270.896V103.945ZM221.043 127.837L227.042 139.834L233.248 130.422L239.35 121.01H255.174H270.896V132.904V144.799H236.764H202.633V131.043C202.633 123.389 202.943 116.873 203.357 116.563C203.667 116.149 206.46 115.839 209.562 115.839H215.044L221.043 127.837Z" fill="#1D3557"/>
<path d="M220.94 166.624C210.907 171.899 210.493 184.62 220.112 191.033C226.421 195.274 235.006 193.205 239.66 186.172C244.108 179.552 240.695 169.106 233.041 165.9C228.387 163.935 225.594 164.142 220.94 166.624ZM230.662 175.726C233.041 177.691 233.041 177.898 231.593 180.69C229.628 184.207 226.939 184.931 224.249 182.448C221.767 180.173 221.767 178.415 224.353 175.829C226.939 173.243 227.663 173.243 230.662 175.726Z" fill="#1D3557"/>
<path d="M260.037 166.415C258.382 167.45 256.003 169.311 254.969 170.449C252.28 173.552 251.556 181.826 253.728 185.963C255.693 189.79 262.106 193.41 266.967 193.41C277.723 193.41 284.343 178.827 277.413 170.552C272.449 164.657 265.519 163.002 260.037 166.415ZM269.346 175.414C271.828 177.999 270.897 182.343 267.587 183.481C263.967 184.722 261.589 182.86 261.589 178.723C261.589 176.655 262.209 175.517 263.967 174.793C267.174 173.552 267.484 173.552 269.346 175.414Z" fill="#1D3557"/>
</svg>
