<svg width="220" height="300" viewBox="0 0 220 300" fill="none" xmlns="http://www.w3.org/2000/svg">
<path d="M33.0783 1.54819C30.5174 2.82864 30.4107 3.36216 29.7705 15.6332C29.237 27.2639 28.5967 30.2516 23.0481 48.178C9.81679 91.1798 3.84135 121.911 1.06704 161.284C0.533521 169.821 0 199.378 0 227.014C0 273.537 0.106704 277.379 1.92068 278.873C4.37487 281.113 61.5684 300 65.6231 300C73.6259 300 215.222 280.473 217.463 279.086L219.811 277.592V227.121C219.811 142.291 216.183 113.801 197.723 52.2327C191.107 30.2516 190.467 27.4773 189.934 15.8466C189.507 4.96273 189.08 2.93535 187.373 1.6549C184.385 -0.479189 37.2398 -0.585893 33.0783 1.54819ZM80.0282 15.6332V20.4348H59.7544H39.4806V15.6332V10.8315H59.7544H80.0282V15.6332ZM130.179 15.6332V20.4348H109.905H89.6316V15.6332V10.8315H109.905H130.179V15.6332ZM180.33 15.6332V20.4348H160.056H139.783V15.6332V10.8315H160.056H180.33V15.6332ZM88.6712 54.3668C92.6193 67.4914 96.3539 78.8021 96.8875 79.3356C98.8081 81.2563 150.133 76.0278 153.014 73.6803L155.255 71.8663L148.639 51.6992C144.904 40.602 141.917 31.212 141.917 30.7852C141.917 30.3583 150.453 30.0382 161.017 30.0382C174.995 30.0382 180.33 30.3583 181.184 31.3187C182.784 33.4528 195.909 79.0155 199.43 95.1278C202.845 110.707 205.406 125.859 204.765 126.499C204.232 126.926 72.9857 139.944 69.1444 139.944C66.5835 139.944 66.1566 139.517 66.1566 136.742C66.1566 131.087 59.8611 97.0485 56.0197 82.0032C53.9924 73.8937 49.9376 59.1685 46.9499 49.3517C44.0689 39.4282 41.6147 31.1053 41.6147 30.6785C41.6147 30.3583 50.5778 30.1449 61.5684 30.2516L81.4153 30.5717L88.6712 54.3668ZM137.435 47.9645C140.636 57.5679 142.984 65.6775 142.664 65.8909C141.81 66.8512 104.037 70.4791 103.396 69.7322C102.756 68.9853 91.7657 32.1723 91.7657 30.7852C91.7657 30.3583 100.729 30.1449 111.719 30.2516L131.566 30.5717L137.435 47.9645ZM29.8772 154.776V248.569L20.0604 256.785L10.1369 265.108L9.81679 225.2C9.38997 169.501 11.3107 141.117 18.2464 106.332C21.1274 91.7133 28.8101 60.9825 29.5571 60.9825C29.7705 60.9825 29.8772 103.237 29.8772 154.776ZM46.4163 82.5367C48.9773 92.6736 52.0717 106.972 53.2454 114.335C58.6873 146.879 58.9007 151.254 59.4343 216.771L59.8611 279.193L49.7242 264.041L39.4806 248.782V154.669C39.5873 90.5395 39.9074 61.0892 40.6543 62.2629C41.1878 63.33 43.8554 72.3998 46.4163 82.5367ZM207.433 143.892C209.887 167.367 211.274 231.709 209.46 231.709C208.927 231.709 177.449 235.764 139.462 240.886C101.369 245.901 70.1047 249.956 69.8913 249.742C69.7846 249.529 69.3578 227.014 69.1444 199.698L68.8242 149.974L132.847 143.465C168.059 139.944 199.11 136.956 201.778 136.849L206.686 136.742L207.433 143.892ZM210.207 256.251C210.207 264.467 210.101 271.19 209.994 271.297C207.326 271.937 70.7449 289.97 70.2114 289.65C69.6779 289.436 69.3578 282.714 69.3578 274.818C69.3578 264.254 69.6779 260.306 70.7449 259.986C72.1321 259.452 204.019 241.633 207.86 241.419C210.207 241.313 210.207 241.419 210.207 256.251ZM43.5353 271.83C48.4437 279.193 52.2851 285.488 52.0717 285.702C51.7516 285.915 43.3219 283.354 33.185 279.94L14.7252 273.751L23.5816 266.175C28.49 261.907 33.0783 258.492 33.6118 258.492C34.2521 258.492 38.6269 264.467 43.5353 271.83Z" fill="#1D3557"/>
<path d="M156.003 162.565C151.415 163.525 143.625 169.821 141.064 174.622C139.997 176.543 139.891 176.65 137.97 174.942C134.342 171.635 128.26 169.821 120.684 169.821C107.346 169.821 95.1815 176.436 87.8189 187.534C84.4044 192.655 83.7641 194.576 83.444 200.765C82.9105 209.195 85.0446 214.423 91.1267 219.758C102.011 229.362 124.632 225.734 136.903 212.609C139.464 209.835 141.918 206.954 142.238 206.1C142.878 204.82 143.092 204.82 143.625 205.887C145.653 210.155 153.335 218.264 158.137 220.932C169.021 227.121 179.478 226.267 187.267 218.371C193.136 212.502 194.63 208.021 193.99 197.137C193.563 190.415 192.816 187.213 190.575 182.839C182.892 167.687 169.128 159.684 156.003 162.565ZM167.954 173.022C172.542 174.729 179.478 181.878 182.039 187.427C187.054 197.991 184.706 210.475 177.13 214.316C174.783 215.597 174.249 215.383 172.115 213.036C168.381 208.874 167.207 202.686 168.594 195.856C169.981 189.134 169.234 182.732 166.353 177.077C163.472 171.421 163.579 171.315 167.954 173.022ZM157.39 180.598C160.164 186.787 160.164 187.32 158.991 193.936C158.244 197.777 157.924 202.899 158.35 205.353L158.991 209.835L155.363 205.78C150.774 200.658 147.787 191.482 148.747 185.079C149.387 180.491 152.268 174.089 153.762 174.089C154.082 174.089 155.79 176.97 157.39 180.598ZM128.473 180.918C133.808 183.159 133.915 184.439 128.9 187.107C124.845 189.241 122.818 189.561 111.294 189.561H98.2759L100.517 187.107C106.706 180.598 120.364 177.503 128.473 180.918ZM134.449 199.805C133.702 201.512 130.714 205.033 127.94 207.594C119.19 215.49 108.413 217.731 99.6631 213.569C95.0748 211.329 91.8737 206.42 93.3675 203.859C93.7943 203.219 96.2485 201.725 98.8094 200.551C102.864 198.844 104.998 198.631 113.855 199.164C123.458 199.805 124.739 199.591 129.647 197.244C135.516 194.469 136.369 195.003 134.449 199.805Z" fill="#1D3557"/>
</svg>
