<svg width="299" height="300" viewBox="0 0 299 300" fill="none" xmlns="http://www.w3.org/2000/svg">
<path d="M1.00567 1.23877C-0.220241 2.60891 -0.364466 6.6472 0.789331 7.07987C1.29412 7.22409 1.65468 7.80099 1.65468 8.37789C1.65468 8.95479 2.01524 9.38746 2.44791 9.38746C2.80848 9.38746 8.43323 14.6517 14.7791 20.9975C24.2979 30.5885 26.1729 32.7518 25.1633 33.3287C24.5143 33.6893 24.0095 34.5547 24.0095 35.3479C24.0095 36.069 23.5768 36.7901 23.1441 36.9344C21.8461 37.367 21.8461 53.5202 23.1441 53.8807C23.5768 54.0971 24.0095 55.0345 24.0095 55.972C24.0095 56.9095 24.2979 57.7027 24.6585 57.7027C25.0191 57.7027 25.596 58.4238 25.8844 59.2892C26.5334 61.3804 32.3745 67.0773 33.8168 67.0773C34.4658 67.0773 35.4032 67.5821 35.9801 68.159C36.6291 68.7359 38.0714 69.2407 39.2252 69.2407C40.379 69.2407 41.3164 69.5291 41.3164 69.9618C41.3164 70.3945 43.3356 70.6829 46.0037 70.6829C48.5998 70.6829 50.691 70.3945 50.691 70.0339C50.691 69.6733 51.9891 69.2407 53.5755 68.9522C55.162 68.7359 56.46 68.159 56.46 67.7984C56.46 67.3657 57.4696 67.0773 58.6955 67.0773C60.8589 67.0773 65.1135 70.3223 65.1135 72.053C65.1135 72.4857 65.4741 72.8463 65.9067 72.8463C66.9163 72.8463 68.7191 74.6491 68.7191 75.6587C68.7191 76.0913 69.0797 76.4519 69.4402 76.4519C69.8729 76.4519 72.9016 79.12 76.0746 82.3651C81.1224 87.413 81.9878 88.711 81.9878 90.7301C81.9878 92.0281 81.6272 93.3262 81.1945 93.6146C79.2475 94.8405 79.0312 113.229 80.9782 113.229C81.2666 113.229 81.7714 114.022 81.9878 115.032C82.2762 116.042 82.781 116.835 83.1416 116.835C83.5742 116.835 83.8627 117.34 83.8627 117.916C83.8627 118.493 84.2232 118.998 84.5838 118.998C85.0165 118.998 85.3049 119.503 85.3049 120.08C85.3049 120.657 85.6655 121.162 86.0982 121.162C86.603 121.162 87.6846 121.955 88.6221 122.964C89.5596 123.974 90.9297 124.767 91.7229 124.767C92.444 124.767 93.2373 125.2 93.3815 125.632C93.5978 126.281 96.3381 126.642 102.756 126.786C110.256 127.003 111.986 126.858 112.924 125.921C114.438 124.407 119.198 124.334 119.198 125.849C119.198 126.426 119.486 126.93 119.919 126.93C120.279 126.93 122.731 129.022 125.327 131.618C127.923 134.214 130.591 136.305 131.168 136.305C131.673 136.305 132.178 136.594 132.178 137.026C132.178 137.387 132.538 137.747 132.971 137.747C133.404 137.747 134.197 138.252 134.774 138.829C135.423 139.406 136.865 139.911 138.019 139.911C139.173 139.911 140.11 140.199 140.11 140.632C140.11 140.992 140.759 141.353 141.48 141.353C145.086 141.353 145.158 141.569 145.158 152.242V162.266H143.355C142.346 162.266 141.553 162.554 141.553 162.915C141.553 163.275 140.254 163.708 138.668 163.996C137.082 164.213 135.784 164.789 135.784 165.15C135.784 165.583 134.99 165.871 133.981 165.871C132.971 165.871 132.178 166.16 132.178 166.52C132.178 166.881 131.457 167.458 130.591 167.746C129.654 168.035 127.923 169.26 126.697 170.558C125.544 171.856 123.813 173.154 122.948 173.371C122.154 173.659 121.217 174.525 121.001 175.318C120.712 176.039 120.207 176.688 119.847 176.688C119.486 176.688 119.198 177.049 119.198 177.409C119.198 177.842 118.404 178.923 117.395 179.861C116.385 180.798 115.592 181.88 115.592 182.385C115.592 182.818 115.304 183.178 114.871 183.178C114.51 183.178 114.006 183.971 113.717 184.981C113.501 185.99 112.996 186.784 112.635 186.784C112.275 186.784 111.986 187.433 111.986 188.154C111.986 188.875 111.482 189.668 110.905 189.957C110.328 190.173 109.823 191.183 109.823 192.192C109.823 193.202 109.535 193.995 109.102 193.995C108.741 193.995 108.381 194.788 108.381 195.726C108.381 196.735 107.876 197.961 107.299 198.61C106.722 199.187 106.217 200.846 106.217 202.216C106.217 203.658 105.929 204.812 105.496 204.812C105.136 204.812 104.559 206.11 104.343 207.696C104.054 209.283 103.621 210.581 103.333 210.581C102.972 210.581 102.54 213.898 102.323 217.936C101.098 237.046 101.098 238.705 101.819 238.705C102.323 238.705 102.612 240.868 102.612 244.474C102.612 247.646 102.9 250.243 103.261 250.243C103.549 250.243 104.054 251.757 104.27 253.632C104.487 255.507 104.992 257.165 105.424 257.31C105.857 257.454 106.217 258.68 106.217 260.122C106.217 261.492 106.722 263.079 107.299 263.655C107.876 264.304 108.381 265.53 108.381 266.54C108.381 267.477 108.669 268.271 109.03 268.271C109.39 268.271 109.895 269.064 110.112 270.073C110.4 271.083 110.905 271.876 111.265 271.876C111.698 271.876 111.986 272.669 111.986 273.679C111.986 274.689 112.347 275.482 112.708 275.482C113.14 275.482 113.429 275.987 113.429 276.564C113.429 277.14 113.934 277.645 114.51 277.645C115.159 277.645 115.592 278.294 115.592 279.448C115.592 280.602 116.025 281.251 116.674 281.251C117.251 281.251 117.755 281.611 117.755 282.044C117.755 282.549 118.909 283.919 120.279 285.289C121.65 286.587 122.803 287.957 122.803 288.39C122.803 288.823 123.308 289.183 123.885 289.183C124.462 289.183 124.967 289.472 124.967 289.904C124.967 290.265 125.471 290.625 126.048 290.625C126.625 290.625 127.13 291.13 127.13 291.707C127.13 292.356 127.779 292.789 128.644 292.789C129.438 292.789 130.591 293.221 131.096 293.726C133.764 296.034 134.413 296.394 136.144 296.394C137.298 296.394 137.947 296.827 137.947 297.476C137.947 298.341 138.884 298.558 141.913 298.558C144.076 298.558 145.879 298.846 145.879 299.279C145.879 299.639 147.322 300 149.124 300C150.927 300 152.369 299.639 152.369 299.279C152.369 298.846 154.172 298.558 156.336 298.558C159.364 298.558 160.302 298.341 160.302 297.476C160.302 296.827 161.023 296.394 162.177 296.394C163.186 296.394 164.484 295.962 164.989 295.529C167.513 293.221 168.234 292.789 169.316 292.789C169.965 292.789 171.191 291.996 172.128 290.986C173.066 289.976 174.147 289.183 174.652 289.183C175.085 289.183 175.445 288.823 175.445 288.39C175.445 287.957 177.104 286.01 179.051 284.063C181.07 282.116 182.657 280.025 182.657 279.448C182.657 278.799 183.161 278.15 183.738 277.934C184.315 277.645 184.82 277.068 184.82 276.491C184.82 275.914 185.18 275.482 185.541 275.482C185.974 275.482 186.262 274.833 186.262 274.04C186.262 273.246 186.767 272.381 187.344 272.165C187.921 271.876 188.426 270.939 188.426 270.001C188.426 269.064 188.714 268.271 189.075 268.271C189.435 268.271 189.94 267.117 190.156 265.747C190.445 264.377 190.949 263.223 191.31 263.223C191.743 263.223 192.031 261.925 192.031 260.41C192.031 258.824 192.392 257.454 192.824 257.31C193.257 257.165 193.762 255.507 193.978 253.632C194.194 251.757 194.627 250.243 194.916 250.243C195.637 250.243 196.646 238.272 196.574 230.412C196.502 221.686 195.565 210.581 194.916 210.581C194.627 210.581 194.194 209.066 193.978 207.191C193.762 205.317 193.257 203.658 192.824 203.514C192.392 203.37 192.031 202.288 192.031 201.134C192.031 199.98 191.743 199.043 191.382 199.043C191.022 199.043 190.517 197.889 190.3 196.519C190.012 195.149 189.507 193.995 189.147 193.995C188.714 193.995 188.426 193.202 188.426 192.192C188.426 191.183 188.137 190.389 187.704 190.389C187.344 190.389 186.839 189.596 186.551 188.587C186.334 187.577 185.829 186.784 185.541 186.784C185.253 186.784 184.748 185.99 184.531 184.981C184.243 183.971 183.738 183.178 183.378 183.178C182.945 183.178 182.657 182.673 182.657 182.096C182.657 181.52 182.368 181.015 181.935 181.015C181.575 181.015 181.214 180.51 181.214 179.933C181.214 179.356 180.709 178.851 180.133 178.851C179.556 178.851 179.051 178.491 179.051 178.058C179.051 177.049 177.248 175.246 176.239 175.246C175.806 175.246 175.445 174.885 175.445 174.452C175.445 173.443 173.642 171.64 172.633 171.64C172.2 171.64 171.84 171.135 171.84 170.558C171.84 169.982 171.335 169.477 170.758 169.477C170.181 169.477 169.676 169.188 169.676 168.828C169.676 168.467 168.883 167.962 167.874 167.746C166.864 167.458 166.071 166.953 166.071 166.592C166.071 166.16 165.277 165.871 164.268 165.871C163.258 165.871 162.465 165.583 162.465 165.15C162.465 164.789 161.167 164.213 159.581 163.996C157.994 163.708 156.696 163.275 156.696 162.915C156.696 162.554 155.903 162.266 154.893 162.266H153.09V152.242C153.09 141.425 153.09 141.353 157.129 141.353C158.066 141.353 158.859 140.992 158.859 140.632C158.859 140.199 159.653 139.911 160.59 139.911C161.6 139.911 162.826 139.406 163.475 138.829C164.052 138.252 164.845 137.747 165.277 137.747C165.71 137.747 166.071 137.459 166.071 137.098C166.071 136.738 166.864 136.233 167.874 136.017C168.883 135.728 169.676 135.223 169.676 134.863C169.676 134.43 170.181 134.142 170.758 134.142C171.335 134.142 171.84 133.781 171.84 133.348C171.84 132.339 173.642 130.536 174.652 130.536C175.085 130.536 175.445 130.176 175.445 129.743C175.445 128.733 177.248 126.93 178.258 126.93C178.69 126.93 179.051 126.426 179.051 125.849C179.051 125.056 179.844 124.767 181.647 124.767C183.017 124.767 184.676 125.272 185.253 125.849C186.118 126.714 188.281 126.93 194.916 126.93C201.55 126.93 203.713 126.714 204.579 125.849C205.156 125.272 206.165 124.767 206.814 124.767C207.463 124.767 208.689 123.974 209.627 122.964C210.564 121.955 211.646 121.162 212.15 121.162C212.583 121.162 212.944 120.801 212.944 120.44C212.944 120.008 213.737 118.782 214.746 117.7C215.756 116.618 216.549 115.176 216.549 114.527C216.549 113.806 216.91 113.229 217.27 113.229C217.703 113.229 217.992 112.292 217.992 111.138C217.992 109.984 218.352 108.109 218.713 107.028C219.578 104.864 218.28 94.48 217.054 93.6867C215.035 92.3166 216.982 85.8265 219.362 85.8265C219.794 85.8265 220.155 85.4659 220.155 85.0333C220.155 84.0237 221.958 82.2209 222.967 82.2209C223.4 82.2209 223.761 81.8603 223.761 81.4276C223.761 80.4181 227.727 76.4519 228.736 76.4519C229.169 76.4519 229.53 76.0913 229.53 75.6587C229.53 74.6491 231.332 72.8463 232.342 72.8463C232.775 72.8463 233.135 72.4857 233.135 72.053C233.135 71.6204 234.073 70.3223 235.226 69.1686C237.606 66.7888 241.14 66.3562 242.942 68.159C243.591 68.7359 244.817 69.2407 245.827 69.2407C246.764 69.2407 247.558 69.5291 247.558 69.9618C247.558 70.3945 249.577 70.6829 252.245 70.6829C254.913 70.6829 256.932 70.3945 256.932 69.9618C256.932 69.5291 257.87 69.2407 259.023 69.2407C260.177 69.2407 261.619 68.7359 262.268 68.159C262.845 67.5821 263.783 67.0773 264.432 67.0773C265.874 67.0773 271.715 61.3804 272.364 59.2892C272.653 58.4238 273.23 57.7027 273.59 57.7027C273.951 57.7027 274.239 56.9095 274.239 55.972C274.239 55.0345 274.672 54.0971 275.177 53.9529C275.753 53.7365 276.114 51.3568 276.258 46.3811C276.475 40.54 276.33 38.9535 275.393 38.016C274.744 37.4391 274.239 36.2132 274.239 35.3479C274.239 34.5547 273.734 33.6893 273.157 33.473C272.581 33.1845 272.076 32.7518 272.076 32.3913C272.076 32.0307 272.581 31.7423 273.157 31.7423C273.734 31.7423 274.239 31.3817 274.239 30.949C274.239 29.9395 276.042 28.1367 277.052 28.1367C277.484 28.1367 277.845 27.7761 277.845 27.3434C277.845 26.3339 281.811 22.3677 282.821 22.3677C283.253 22.3677 283.614 22.0071 283.614 21.5744C283.614 20.5649 285.417 18.7621 286.426 18.7621C286.859 18.7621 287.219 18.4015 287.219 17.9688C287.219 16.9593 291.186 12.9931 292.195 12.9931C292.628 12.9931 292.988 12.6325 292.988 12.1998C292.988 11.1903 294.791 9.38746 295.801 9.38746C296.233 9.38746 296.594 9.0269 296.594 8.59423C296.594 8.16155 297.099 7.36832 297.676 6.79142C299.19 5.27706 299.046 2.75313 297.315 1.23877C295.729 -0.13136 290.825 -0.491921 290.825 0.8061C290.825 1.81567 289.022 3.61848 288.013 3.61848C287.58 3.61848 287.219 3.97904 287.219 4.41171C287.219 5.42129 285.417 7.22409 284.407 7.22409C283.974 7.22409 283.614 7.72888 283.614 8.30578C283.614 8.88268 283.109 9.38746 282.532 9.38746C281.955 9.38746 281.45 9.74802 281.45 10.1807C281.45 11.1903 279.648 12.9931 278.638 12.9931C278.205 12.9931 277.845 13.3536 277.845 13.7863C277.845 14.7959 276.042 16.5987 275.032 16.5987C274.6 16.5987 274.239 16.9593 274.239 17.3919C274.239 18.4015 272.436 20.2043 271.427 20.2043C270.994 20.2043 270.634 20.7091 270.634 21.286C270.634 21.8629 270.129 22.3677 269.552 22.3677C268.975 22.3677 268.47 22.7282 268.47 23.1609C268.47 24.1705 266.667 25.9733 265.658 25.9733C265.225 25.9733 264.865 25.6848 264.865 25.2522C264.865 24.8916 264.071 24.3868 263.062 24.0984C262.052 23.882 261.259 23.3772 261.259 23.0167C261.259 22.6561 257.365 22.3677 252.605 22.3677C247.341 22.3677 243.952 22.6561 243.952 23.0888C243.952 23.4494 243.303 23.8099 242.51 23.8099C241.716 23.8099 240.851 24.3147 240.635 24.8916C240.346 25.4685 239.409 25.9733 238.471 25.9733C237.534 25.9733 236.741 26.3339 236.741 26.7665C236.741 27.7761 234.938 29.5789 233.928 29.5789C233.496 29.5789 233.135 30.0837 233.135 30.6606C233.135 31.2375 232.847 31.7423 232.414 31.7423C232.053 31.7423 231.549 32.5355 231.26 33.5451C231.044 34.5547 230.539 35.3479 230.179 35.3479C229.818 35.3479 229.53 36.5017 229.53 37.8718C229.53 39.242 229.169 41.189 228.664 42.1986C228.015 43.6408 228.015 45.2994 228.736 49.6261C229.241 52.6548 229.962 55.3951 230.323 55.6114C230.755 55.8278 231.188 57.1979 231.477 58.6402C231.765 60.8035 231.693 61.3083 230.683 61.3083C230.034 61.3083 229.53 61.6689 229.53 62.1015C229.53 63.1111 225.563 67.0773 224.554 67.0773C224.121 67.0773 223.761 67.4379 223.761 67.8705C223.761 68.8801 221.958 70.6829 220.948 70.6829C220.515 70.6829 220.155 71.0435 220.155 71.4761C220.155 72.4857 216.189 76.4519 215.179 76.4519C214.746 76.4519 214.386 76.8125 214.386 77.2451C214.386 78.2547 212.583 80.0575 211.574 80.0575C211.141 80.0575 210.78 80.5623 210.78 81.1392C210.78 81.7161 210.348 82.2209 209.771 82.2209C209.194 82.2209 208.617 82.6536 208.401 83.0862C208.184 83.7352 207.463 83.3747 206.237 82.0045C204.579 80.2738 203.785 80.0575 200.036 80.0575C197.295 80.0575 195.637 79.6969 195.348 79.12C194.988 78.3989 194.844 78.3989 194.483 79.12C194.267 79.6969 192.608 80.0575 190.156 80.0575C187.993 80.0575 186.262 80.346 186.262 80.7786C186.262 81.1392 185.469 81.644 184.459 81.9324C183.45 82.1488 182.657 82.6536 182.657 83.0141C182.657 83.3747 182.224 83.6631 181.647 83.6631C179.411 83.6631 173.282 91.0186 173.282 93.6867C173.282 94.48 172.849 95.2011 172.417 95.3453C171.768 95.5617 171.479 97.8692 171.479 103.494C171.479 109.119 171.768 111.426 172.417 111.571C172.849 111.787 173.282 112.724 173.282 113.662C173.282 114.599 173.642 115.393 174.003 115.393C175.301 115.393 174.796 117.412 172.993 119.287C172.056 120.368 170.974 121.162 170.47 121.162C170.037 121.162 169.676 121.522 169.676 121.955C169.676 122.892 164.196 128.373 163.258 128.373C162.898 128.373 162.465 128.878 162.177 129.454C161.96 130.031 161.167 130.536 160.374 130.536C159.581 130.536 158.859 130.897 158.715 131.257C158.571 131.69 156.768 132.195 154.677 132.483C152.658 132.699 150.927 133.204 150.927 133.493C150.927 133.853 150.134 134.142 149.124 134.142C148.115 134.142 147.322 133.853 147.322 133.493C147.322 133.204 145.591 132.699 143.572 132.483C141.48 132.195 139.678 131.69 139.533 131.257C139.389 130.897 138.812 130.536 138.235 130.536C137.658 130.536 136.433 129.743 135.495 128.733C134.558 127.724 133.476 126.93 132.971 126.93C132.538 126.93 132.178 126.426 132.178 125.849C132.178 125.272 131.817 124.767 131.385 124.767C130.375 124.767 128.572 122.964 128.572 121.955C128.572 121.522 128.212 121.162 127.779 121.162C126.77 121.162 124.967 119.359 124.967 118.349C124.967 117.916 124.678 117.556 124.246 117.556C123.885 117.556 123.524 117.051 123.524 116.474C123.524 115.897 123.885 115.393 124.246 115.393C124.678 115.393 124.967 114.599 124.967 113.662C124.967 112.724 125.399 111.787 125.904 111.571C126.481 111.426 126.77 109.119 126.77 103.494C126.77 97.8692 126.481 95.5617 125.904 95.3453C125.399 95.2011 124.967 94.48 124.967 93.7588C124.967 92.2445 122.731 87.9899 121.938 87.9899C121.577 87.9899 121.361 87.4851 121.361 86.9082C121.361 86.3313 120.856 85.8265 120.279 85.8265C119.702 85.8265 119.198 85.538 119.198 85.1054C119.198 84.7448 118.404 84.24 117.395 83.9516C116.385 83.7352 115.592 83.2305 115.592 82.942C115.592 82.6536 114.799 82.1488 113.789 81.9324C112.78 81.644 111.986 81.1392 111.986 80.7786C111.986 80.346 108.525 80.0575 103.333 80.0575C98.4294 80.0575 94.6795 80.346 94.6795 80.7065C94.6795 81.0671 93.9584 81.644 93.0931 81.9324C92.1556 82.2209 91.146 82.7978 90.8576 83.2305C90.4249 83.8073 90.1365 83.8073 89.848 83.0862C89.7038 82.6536 89.0548 82.2209 88.4779 82.2209C87.901 82.2209 87.4683 81.7161 87.4683 81.1392C87.4683 80.5623 87.1077 80.0575 86.6751 80.0575C85.6655 80.0575 83.8627 78.2547 83.8627 77.2451C83.8627 76.8125 83.5021 76.4519 83.0695 76.4519C82.0599 76.4519 80.2571 74.6491 80.2571 73.6395C80.2571 73.2068 79.7523 72.8463 79.1754 72.8463C78.5985 72.8463 78.0937 72.3415 78.0937 71.7646C78.0937 71.1877 77.7331 70.6829 77.3005 70.6829C76.2909 70.6829 74.4881 68.8801 74.4881 67.8705C74.4881 67.4379 74.1275 67.0773 73.6949 67.0773C72.6853 67.0773 68.7191 63.1111 68.7191 62.1015C68.7191 61.6689 68.2864 61.3083 67.7095 61.3083C66.9163 61.3083 66.7721 60.6593 67.0605 58.568C67.2769 57.1258 67.7095 55.7557 68.0701 55.5393C68.3585 55.323 69.0076 52.6548 69.5123 49.6261C70.2335 45.2994 70.2335 43.6408 69.5845 42.1986C69.0797 41.189 68.7191 39.242 68.7191 37.8718C68.7191 36.5017 68.4307 35.3479 67.998 35.3479C67.6374 35.3479 67.2769 34.8431 67.2769 34.2662C67.2769 33.6893 66.9884 33.1845 66.5557 33.1845C66.1952 33.1845 65.6904 32.3913 65.4019 31.3817C65.1856 30.3721 64.6087 29.5789 64.2481 29.5789C63.3107 29.5789 61.5079 27.704 61.5079 26.7665C61.5079 26.3339 60.7146 25.9733 59.7772 25.9733C58.8397 25.9733 57.9023 25.4685 57.6138 24.8916C57.3975 24.3147 56.5321 23.8099 55.7389 23.8099C54.9457 23.8099 54.2967 23.4494 54.2967 23.0888C54.2967 22.6561 50.9074 22.3677 45.6432 22.3677C40.8838 22.3677 36.9897 22.6561 36.9897 23.0167C36.9897 23.3772 36.1965 23.882 35.1869 24.0984C34.1773 24.3868 33.3841 24.8916 33.3841 25.2522C33.3841 25.6848 33.0235 25.9733 32.5909 25.9733C31.5813 25.9733 29.7785 24.1705 29.7785 23.1609C29.7785 22.7282 29.4179 22.3677 28.9852 22.3677C27.9757 22.3677 24.0095 18.4015 24.0095 17.3919C24.0095 16.9593 23.6489 16.5987 23.2163 16.5987C22.2067 16.5987 20.4039 14.7959 20.4039 13.7863C20.4039 13.3536 20.0433 12.9931 19.6106 12.9931C18.6011 12.9931 16.7983 11.1903 16.7983 10.1807C16.7983 9.74802 16.2935 9.38746 15.7166 9.38746C15.1397 9.38746 14.6349 8.88268 14.6349 8.30578C14.6349 7.72888 14.2743 7.22409 13.8417 7.22409C12.8321 7.22409 11.0293 5.42129 11.0293 4.41171C11.0293 3.97904 10.6687 3.61848 10.236 3.61848C9.22647 3.61848 7.42366 1.81567 7.42366 0.8061C7.42366 -0.419809 2.15946 -0.0592472 1.00567 1.23877ZM255.346 31.0933C255.49 31.4538 256.716 31.7423 258.086 31.7423C259.456 31.7423 260.538 32.0307 260.538 32.4634C260.538 32.824 261.043 33.1845 261.619 33.1845C262.196 33.1845 262.701 33.6893 262.701 34.2662C262.701 34.8431 263.206 35.3479 263.783 35.3479C264.36 35.3479 264.865 35.8527 264.865 36.4296C264.865 37.0065 265.153 37.5113 265.586 37.5113C265.946 37.5113 266.451 38.6651 266.739 40.0352C266.956 41.4053 267.461 42.5591 267.821 42.5591C268.182 42.5591 268.47 44.0014 268.47 45.8042C268.47 47.607 268.182 49.0492 267.821 49.0492C267.461 49.0492 266.956 50.203 266.739 51.5732C266.451 52.9433 265.946 54.0971 265.586 54.0971C265.153 54.0971 264.865 54.4576 264.865 54.8903C264.865 55.8999 263.062 57.7027 262.052 57.7027C261.619 57.7027 261.259 58.2075 261.259 58.7844C261.259 59.4334 260.61 59.8661 259.456 59.8661C258.447 59.8661 257.653 60.1545 257.653 60.5872C257.653 61.0199 255.274 61.3083 251.884 61.3083C248.495 61.3083 246.115 61.0199 246.115 60.5872C246.115 60.1545 245.611 59.8661 245.034 59.8661C243.736 59.8661 240.346 56.4768 240.346 55.1788C240.346 54.6019 240.058 54.0971 239.625 54.0971C239.265 54.0971 238.904 53.5923 238.904 53.0154C238.904 52.4385 238.399 51.9337 237.822 51.9337C236.957 51.9337 236.741 50.852 236.741 46.5253C236.741 43.4966 237.029 41.1169 237.462 41.1169C237.822 41.1169 238.399 40.2515 238.616 39.1698C239.193 37.0065 240.491 35.3479 241.716 35.3479C242.149 35.3479 242.51 34.8431 242.51 34.2662C242.51 33.6893 243.015 33.1845 243.591 33.1845C244.168 33.1845 244.673 32.824 244.673 32.4634C244.673 32.0307 245.25 31.7423 246.043 31.7423C246.764 31.7423 248.495 31.2375 249.793 30.6606C252.173 29.651 254.913 29.8674 255.346 31.0933ZM51.2679 31.3817C52.4938 31.6702 53.5755 32.1749 53.5755 32.5355C53.5755 32.8961 53.9361 33.1845 54.3688 33.1845C55.6668 33.1845 59.2724 37.2228 59.7772 39.3141C59.9935 40.3236 60.4983 41.1169 60.8589 41.1169C61.2194 41.1169 61.5079 43.4245 61.5079 46.1647C61.5079 50.7078 61.2915 51.501 59.7051 52.9433C58.6955 53.8807 57.9023 55.323 57.9023 56.1883C57.9023 57.0537 57.4696 57.7027 56.8206 57.7027C56.2437 57.7027 55.7389 57.9911 55.7389 58.4238C55.7389 58.7844 54.9457 59.2892 53.9361 59.5776C52.9265 59.794 52.1333 60.2987 52.1333 60.6593C52.1333 61.0199 49.5372 61.3083 46.3643 61.3083C42.975 61.3083 40.5953 61.0199 40.5953 60.5872C40.5953 60.1545 39.9463 59.8661 39.1531 59.8661C38.3598 59.8661 37.4945 59.3613 37.2782 58.7844C36.9897 58.2075 36.1965 57.7027 35.4753 57.7027C34.61 57.7027 33.961 57.0537 33.6725 55.8999C33.4562 54.8903 32.9514 54.0971 32.5909 54.0971C32.2303 54.0971 31.7255 52.7991 31.5092 51.2126C31.2207 49.6261 30.788 48.3281 30.4275 48.3281C29.3458 48.3281 29.7064 43.2081 30.8602 42.1264C31.4371 41.4774 31.9418 40.2515 31.9418 39.242C31.9418 38.3045 32.3024 37.5113 32.663 37.5113C33.0956 37.5113 33.3841 37.0065 33.3841 36.4296C33.3841 35.8527 33.8889 35.3479 34.4658 35.3479C35.0427 35.3479 35.5475 34.8431 35.5475 34.2662C35.5475 33.6893 36.0522 33.1845 36.6291 33.1845C37.206 33.1845 37.7108 32.824 37.7108 32.4634C37.7108 32.0307 38.8646 31.7423 40.2348 31.7423C41.6049 31.7423 42.7587 31.3817 42.7587 30.949C42.7587 30.1558 46.0759 30.3721 51.2679 31.3817ZM108.237 88.7831C108.381 89.1437 109.174 89.4321 109.967 89.4321C111.482 89.4321 115.592 93.1098 115.592 94.4079C115.592 94.8405 115.881 95.2011 116.313 95.2011C116.674 95.2011 117.179 95.9943 117.467 97.0039C117.683 98.0135 118.188 98.8067 118.549 98.8067C118.909 98.8067 119.198 100.898 119.198 103.494C119.198 106.09 118.909 108.181 118.549 108.181C118.188 108.181 117.683 108.975 117.467 109.984C117.179 110.994 116.674 111.787 116.313 111.787C115.881 111.787 115.592 112.147 115.592 112.58C115.592 113.59 113.789 115.393 112.78 115.393C112.347 115.393 111.986 115.897 111.986 116.474C111.986 117.123 111.337 117.556 110.184 117.556C109.174 117.556 108.381 117.844 108.381 118.277C108.381 118.71 106.217 118.998 103.333 118.998C100.449 118.998 98.2851 118.71 98.2851 118.277C98.2851 117.844 97.7082 117.556 97.0592 117.556C95.4728 117.484 93.2373 115.897 93.2373 114.744C93.2373 114.311 92.7325 113.95 92.1556 113.95C91.5787 113.95 91.0739 113.446 91.0739 112.869C91.0739 112.292 90.7855 111.787 90.4249 111.787C90.0643 111.787 89.5596 110.994 89.3432 109.984C89.0548 108.975 88.55 108.181 88.1894 108.181C87.7568 108.181 87.4683 106.234 87.4683 103.782C87.4683 98.9509 89.0548 95.2011 92.3719 92.1003C94.8959 89.7206 95.4007 89.4321 97.1313 89.4321C98.1409 89.4321 99.0063 89.1437 99.0063 88.7831C99.0063 88.4225 99.5832 87.9177 100.304 87.7735C102.035 87.2687 107.948 88.062 108.237 88.7831ZM199.242 88.711C199.242 89.0715 200.108 89.4321 201.117 89.4321C202.848 89.4321 203.353 89.7206 205.877 92.1003C209.05 95.129 210.78 99.1673 210.78 103.927C210.78 106.234 210.492 108.181 210.131 108.181C209.771 108.181 209.266 108.975 209.05 109.984C208.761 110.994 208.256 111.787 207.896 111.787C207.463 111.787 207.175 112.292 207.175 112.869C207.175 113.446 206.67 113.95 206.093 113.95C205.516 113.95 205.011 114.311 205.011 114.744C205.011 115.753 203.209 117.556 202.199 117.556C201.766 117.556 201.406 117.844 201.406 118.277C201.406 118.71 199.098 118.998 195.997 118.998C192.896 118.998 190.589 118.71 190.589 118.277C190.589 117.844 189.651 117.556 188.426 117.556C187.272 117.556 186.262 117.195 186.262 116.763C186.262 115.753 184.459 113.95 183.45 113.95C183.017 113.95 182.657 113.446 182.657 112.869C182.657 112.292 182.368 111.787 182.008 111.787C181.647 111.787 181.142 110.994 180.926 109.984C180.637 108.975 180.133 108.181 179.772 108.181C179.339 108.181 179.051 106.09 179.051 103.494C179.051 100.898 179.339 98.8067 179.7 98.8067C180.06 98.8067 180.565 98.0135 180.782 97.0039C181.07 95.9943 181.575 95.2011 181.935 95.2011C182.368 95.2011 182.657 94.8405 182.657 94.4079C182.657 93.3983 184.459 91.5955 185.469 91.5955C185.902 91.5955 186.262 91.0907 186.262 90.5138C186.262 89.7927 186.983 89.4321 188.426 89.4321C189.651 89.4321 190.589 89.0715 190.589 88.711C190.589 88.2783 192.536 87.9899 194.916 87.9899C197.295 87.9899 199.242 88.2783 199.242 88.711ZM158.138 172.289C158.138 172.65 159.148 173.154 160.302 173.443C161.528 173.731 162.465 174.236 162.465 174.597C162.465 174.957 162.97 175.246 163.547 175.246C164.196 175.246 165.422 176.039 166.359 177.049C167.297 178.058 168.378 178.851 168.883 178.851C169.316 178.851 169.676 179.356 169.676 179.933C169.676 180.51 170.037 181.015 170.47 181.015C171.479 181.015 173.282 182.818 173.282 183.827C173.282 184.26 173.57 184.62 173.931 184.62C174.292 184.62 174.868 185.341 175.157 186.207C175.445 187.144 176.383 188.587 177.32 189.452C178.258 190.317 179.051 191.687 179.051 192.553C179.051 193.346 179.339 193.995 179.7 193.995C180.06 193.995 180.565 194.788 180.782 195.798C181.07 196.807 181.575 197.601 181.935 197.601C182.368 197.601 182.657 198.682 182.657 199.908C182.657 201.206 183.161 202.937 183.738 203.658C184.315 204.451 184.82 205.966 184.82 207.119C184.82 208.201 185.108 209.139 185.469 209.139C185.757 209.139 186.262 211.518 186.478 214.331C186.767 217.215 187.272 219.667 187.704 219.811C188.93 220.244 188.642 239.426 187.344 242.527C186.767 243.969 186.262 246.637 186.262 248.44C186.262 250.243 185.974 251.685 185.541 251.685C185.18 251.685 184.82 252.983 184.82 254.497C184.82 256.084 184.315 257.814 183.738 258.463C183.161 259.04 182.657 260.338 182.657 261.348C182.657 262.357 182.368 263.223 181.935 263.223C181.575 263.223 181.214 263.872 181.214 264.665C181.214 265.458 180.709 266.324 180.133 266.54C179.556 266.828 179.051 267.766 179.051 268.703C179.051 269.641 178.762 270.434 178.33 270.434C177.969 270.434 177.464 271.227 177.176 272.237C176.96 273.246 176.455 274.04 176.094 274.04C175.734 274.04 175.445 274.4 175.445 274.833C175.445 275.265 174.58 276.564 173.498 277.645C172.344 278.799 171.119 280.169 170.614 280.674C169.027 282.405 167.585 283.414 166.792 283.414C166.431 283.414 166.071 283.919 166.071 284.496C166.071 285.073 165.566 285.578 164.989 285.578C164.412 285.578 163.907 285.866 163.907 286.299C163.907 286.659 163.33 287.02 162.681 287.02C161.96 287.02 160.734 287.525 160.013 288.101C159.22 288.678 157.706 289.183 156.552 289.183C155.47 289.183 154.533 289.472 154.533 289.904C154.533 290.337 152.225 290.625 149.124 290.625C146.023 290.625 143.716 290.337 143.716 289.904C143.716 289.472 142.418 289.183 140.831 289.183C138.74 289.183 137.947 288.895 137.947 288.101C137.947 287.452 137.298 287.02 136.144 287.02C135.135 287.02 134.341 286.659 134.341 286.299C134.341 285.866 133.837 285.578 133.26 285.578C132.683 285.578 132.178 285.073 132.178 284.496C132.178 283.919 131.673 283.414 131.096 283.414C130.087 283.414 128.717 282.188 125.688 278.583C125.327 278.078 124.967 277.357 124.967 276.924C124.967 276.564 124.462 276.203 123.885 276.203C123.308 276.203 122.803 275.698 122.803 275.121C122.803 274.544 122.515 274.04 122.154 274.04C121.794 274.04 121.289 273.246 121.073 272.237C120.784 271.227 120.279 270.434 119.919 270.434C119.486 270.434 119.198 269.641 119.198 268.631C119.198 267.622 118.909 266.828 118.549 266.828C118.188 266.828 117.683 266.035 117.467 265.026C117.179 264.016 116.674 263.223 116.313 263.223C115.881 263.223 115.592 262.357 115.592 261.348C115.592 260.338 115.087 259.04 114.51 258.463C113.934 257.814 113.429 256.084 113.429 254.497C113.429 252.983 113.14 251.685 112.708 251.685C112.275 251.685 111.986 249.666 111.986 247.07C111.986 243.969 111.698 242.31 111.121 242.166C109.607 241.661 109.39 223.489 110.833 219.883C111.482 218.297 111.986 215.557 111.986 213.826C111.986 212.023 112.347 210.581 112.708 210.581C113.14 210.581 113.429 209.283 113.429 207.768C113.429 206.182 113.934 204.451 114.51 203.802C115.087 203.225 115.592 201.567 115.592 200.197C115.592 198.754 115.881 197.601 116.313 197.601C116.674 197.601 117.179 196.807 117.467 195.798C117.683 194.788 118.188 193.995 118.477 193.995C118.765 193.995 119.27 193.202 119.486 192.192C119.775 191.183 120.279 190.389 120.64 190.389C121.073 190.389 121.361 189.885 121.361 189.308C121.361 188.731 121.65 188.226 122.01 188.226C122.371 188.226 122.875 187.433 123.092 186.423C123.38 185.414 123.885 184.62 124.246 184.62C124.678 184.62 124.967 184.26 124.967 183.827C124.967 183.394 125.399 182.601 125.976 182.024C126.553 181.447 127.346 181.015 127.779 181.015C128.212 181.015 128.572 180.51 128.572 179.933C128.572 179.356 128.933 178.851 129.366 178.851C129.87 178.851 130.952 178.058 131.889 177.049C132.827 176.039 134.053 175.246 134.702 175.246C135.279 175.246 135.784 174.957 135.784 174.597C135.784 174.236 136.793 173.731 137.947 173.443C139.173 173.154 140.11 172.65 140.11 172.289C140.11 171.929 144.149 171.64 149.124 171.64C154.1 171.64 158.138 171.929 158.138 172.289Z" fill="#1D3557"/>
<path d="M140.471 183.755C137.514 185.486 131.024 191.976 130.447 193.851C130.159 194.716 129.582 195.437 129.222 195.437C128.861 195.437 128.573 196.23 128.573 197.168C128.573 198.105 128.068 199.043 127.491 199.331C126.914 199.548 126.409 200.557 126.409 201.567C126.409 202.576 126.121 203.37 125.688 203.37C125.328 203.37 124.967 204.451 124.967 205.821C124.967 207.192 124.606 208.417 124.174 208.562C123.741 208.706 123.164 210.509 122.948 212.6C122.804 214.691 122.371 216.35 122.01 216.35C121.65 216.35 121.361 222.984 121.361 231.133C121.361 239.281 121.65 245.916 122.01 245.916C122.371 245.916 122.804 247.574 122.948 249.666C123.164 251.757 123.741 253.56 124.174 253.704C124.606 253.848 124.967 255.074 124.967 256.444C124.967 257.814 125.255 258.896 125.616 258.896C125.977 258.896 126.481 259.833 126.77 261.059C127.058 262.213 127.563 263.223 127.924 263.223C128.284 263.223 128.573 263.872 128.573 264.665C128.573 266.251 129.005 266.9 132.395 270.434C133.476 271.516 134.342 272.814 134.342 273.246C134.342 273.679 134.702 274.04 135.135 274.04C135.567 274.04 136.361 274.472 136.865 274.905C141.048 278.727 144.077 279.809 149.918 279.809C152.947 279.809 155.254 279.52 155.254 279.087C155.254 278.727 156.047 278.222 157.057 277.934C158.066 277.717 158.86 277.213 158.86 276.852C158.86 276.491 159.365 276.203 159.941 276.203C160.59 276.203 161.239 275.698 161.456 275.121C161.744 274.544 162.321 274.04 162.898 274.04C163.475 274.04 163.908 273.535 163.908 272.958C163.908 272.381 164.412 271.876 164.989 271.876C165.566 271.876 166.071 271.371 166.071 270.795C166.071 270.146 166.864 268.92 167.874 267.982C168.883 267.045 169.677 265.602 169.677 264.737C169.677 263.944 169.965 263.223 170.326 263.223C170.686 263.223 171.191 262.285 171.479 261.059C171.768 259.906 172.273 258.896 172.633 258.896C172.994 258.896 173.282 258.319 173.282 257.526C173.282 256.805 173.787 255.002 174.364 253.632C174.941 252.19 175.446 249.882 175.446 248.512C175.446 247.142 175.806 245.916 176.239 245.772C177.393 245.411 177.32 216.855 176.239 216.494C175.806 216.35 175.446 214.691 175.446 212.888C175.446 211.013 174.941 208.85 174.364 208.129C173.787 207.336 173.282 205.966 173.282 205.028C173.282 204.091 172.994 203.37 172.561 203.37C172.2 203.37 171.84 202.576 171.84 201.567C171.84 200.557 171.335 199.548 170.758 199.331C170.181 199.043 169.677 198.105 169.677 197.168C169.677 196.23 169.388 195.437 169.028 195.437C168.667 195.437 168.09 194.716 167.802 193.851C167.153 191.832 160.302 184.981 158.283 184.332C157.417 184.043 156.696 183.467 156.696 183.106C156.696 181.88 142.851 182.457 140.471 183.755ZM153.091 191.11C153.091 191.471 153.596 191.832 154.172 191.832C155.326 191.832 158.86 195.149 158.86 196.303C158.86 196.735 159.653 197.817 160.663 198.754C161.672 199.692 162.465 201.062 162.465 201.927C162.465 202.721 162.826 203.37 163.186 203.37C163.619 203.37 163.908 204.019 163.908 204.884C163.908 205.677 164.412 206.831 164.989 207.408C165.566 208.057 166.071 209.788 166.071 211.374C166.071 212.888 166.359 214.186 166.72 214.186C167.008 214.186 167.585 218.008 167.874 222.624C168.162 227.744 168.667 231.349 169.172 231.638C169.821 232.07 169.821 232.359 169.172 232.791C168.667 233.08 168.09 236.109 167.802 240.003C167.513 243.608 167.008 246.637 166.72 246.637C166.359 246.637 166.071 248.151 166.071 249.954C166.071 251.901 165.638 253.632 164.989 254.281C164.412 254.93 163.908 256.156 163.908 257.165C163.908 258.103 163.619 258.896 163.259 258.896C162.898 258.896 162.393 259.689 162.177 260.699C161.888 261.708 161.384 262.502 161.023 262.502C160.59 262.502 160.302 262.862 160.302 263.295C160.302 263.728 158.86 265.458 157.129 267.261C153.956 270.362 153.812 270.434 149.125 270.434C144.365 270.434 144.293 270.434 141.12 267.189C139.389 265.386 137.947 263.583 137.947 263.223C137.947 262.79 137.659 262.502 137.226 262.502C136.865 262.502 136.361 261.708 136.072 260.699C135.856 259.689 135.351 258.896 134.991 258.896C134.63 258.896 134.342 257.814 134.342 256.444C134.342 254.93 133.909 253.848 133.26 253.56C132.539 253.271 132.178 252.117 132.178 249.882C132.178 248.079 131.89 246.637 131.529 246.637C131.241 246.637 130.736 243.825 130.447 240.291C130.159 236.83 129.871 233.513 129.798 232.936C129.582 230.484 130.952 214.186 131.457 214.186C131.745 214.186 132.178 212.672 132.395 210.797C132.611 208.922 133.116 207.264 133.548 207.119C133.981 206.975 134.342 206.038 134.342 205.028C134.342 204.091 134.774 202.793 135.279 202.288C137.37 199.908 137.947 199.043 137.947 198.322C137.947 197.961 138.236 197.601 138.596 197.601C138.957 197.601 139.534 196.879 139.822 196.014C140.327 194.211 142.851 191.904 144.293 191.832C144.726 191.832 145.158 191.471 145.158 191.11C145.158 190.678 146.961 190.389 149.125 190.389C151.288 190.389 153.091 190.678 153.091 191.11Z" fill="#1D3557"/>
<path d="M146.456 22.1513C145.446 22.3676 145.158 23.233 145.158 26.0454C145.158 27.9924 144.869 29.5789 144.436 29.5789C144.076 29.5789 143.715 30.8769 143.715 32.3912C143.715 33.9777 143.211 35.7084 142.634 36.3574C142.057 36.9343 141.552 37.9439 141.552 38.5208C141.552 39.1698 141.264 39.6746 140.831 39.6746C140.47 39.6746 140.11 40.3236 140.11 41.1168C140.11 41.9101 139.605 42.5591 139.028 42.5591C138.451 42.5591 137.946 42.9196 137.946 43.3523C137.946 44.1455 134.052 48.3281 133.259 48.3281C132.322 48.3281 130.807 50.3472 130.375 52.0779C130.086 53.2317 130.302 54.3134 131.024 55.0345C131.673 55.6114 132.177 56.4768 132.177 56.9094C132.177 57.3421 132.971 57.7027 133.98 57.7027C135.134 57.7027 135.783 58.1353 135.783 58.7843C135.783 59.3612 136.288 59.866 136.865 59.866C137.442 59.866 137.946 60.515 137.946 61.2362C137.946 61.9573 138.451 62.7505 139.028 63.039C139.605 63.2553 140.11 63.9043 140.11 64.5533C140.11 65.1302 140.47 65.635 140.831 65.635C141.264 65.635 141.552 66.2119 141.552 66.8609C141.552 67.582 142.057 68.808 142.634 69.5291C143.211 70.3223 143.715 71.8367 143.715 72.9905C143.715 74.0722 144.076 75.0096 144.436 75.0096C144.869 75.0096 145.158 76.4519 145.158 78.1826C145.158 83.0862 145.59 83.6631 149.124 83.6631C152.657 83.6631 153.09 83.0862 153.09 78.1826C153.09 76.4519 153.451 75.0096 153.811 75.0096C154.244 75.0096 154.532 74.0722 154.532 72.9184C154.532 71.7646 155.037 70.3223 155.614 69.6733C156.191 69.0964 156.696 68.0147 156.696 67.2215C156.696 66.4282 157.2 65.635 157.777 65.3466C158.354 65.1302 158.859 64.6254 158.859 64.1928C158.859 63.4716 159.436 62.6784 161.599 60.2266C162.032 59.7218 162.465 58.9286 162.465 58.4959C162.465 58.0632 163.258 57.7027 164.267 57.7027C165.277 57.7027 166.07 57.3421 166.07 56.9094C166.07 56.4768 166.575 55.6114 167.224 55.0345C167.945 54.3134 168.161 53.2317 167.873 52.0779C167.44 50.3472 165.926 48.3281 164.988 48.3281C164.339 48.3281 160.301 44.2177 160.301 43.5687C160.301 43.2802 159.508 42.3427 158.498 41.4053C157.489 40.4678 156.696 39.0977 156.696 38.2323C156.696 37.4391 156.407 36.7901 155.974 36.7901C155.614 36.7901 155.109 35.1315 154.821 33.1845C154.532 31.1653 154.1 29.5789 153.739 29.5789C153.378 29.5789 153.09 27.9924 153.09 26.0454C153.09 23.0166 152.874 22.5119 151.503 22.0792C149.701 21.6465 148.331 21.6465 146.456 22.1513ZM150.927 45.732C150.927 46.2368 152.225 48.1117 153.811 49.8424L156.768 52.9432L154.893 54.4576C153.883 55.323 153.09 56.4046 153.09 56.9094C153.09 57.3421 152.585 57.7027 152.008 57.7027C151.359 57.7027 150.927 58.3517 150.927 59.5055C150.927 60.9477 150.566 61.3083 149.124 61.3083C147.682 61.3083 147.321 60.9477 147.321 59.5055C147.321 58.3517 146.888 57.7027 146.239 57.7027C145.662 57.7027 145.158 57.27 145.158 56.7652C145.158 56.2604 144.509 55.3951 143.715 54.8182C142.201 53.7365 141.768 51.9337 142.994 51.9337C143.427 51.9337 143.715 51.5731 143.715 51.1404C143.715 50.1309 145.518 48.3281 146.528 48.3281C146.96 48.3281 147.321 47.5348 147.321 46.5253C147.321 45.083 147.682 44.7224 149.124 44.7224C150.205 44.7224 150.927 45.1551 150.927 45.732Z" fill="#1D3557"/>
<path d="M65.6189 141.858C65.3305 142.074 65.1141 142.939 65.1141 143.66C65.1141 144.381 64.8257 144.958 64.4651 144.958C64.1767 144.958 63.6719 146.977 63.3835 149.429C63.1671 151.953 62.5902 154.045 62.2297 154.189C61.797 154.333 61.5085 155.415 61.5085 156.568C61.5085 157.722 61.2201 158.66 60.8595 158.66C60.499 158.66 59.9221 159.381 59.6336 160.246C59.0567 162.049 51.9176 169.477 50.7638 169.477C50.3311 169.477 49.9706 169.981 49.9706 170.558C49.9706 171.135 49.6821 171.64 49.2494 171.64C48.8889 171.64 48.5283 172.433 48.5283 173.443C48.5283 174.452 48.8889 175.246 49.3216 175.246C49.7542 175.246 50.5475 175.678 51.0523 176.111C53.432 178.274 54.2973 178.851 55.0184 178.851C55.379 178.851 55.7395 179.356 55.7395 179.933C55.7395 180.51 56.2443 181.015 56.8212 181.015C57.4702 181.015 57.9029 181.664 57.9029 182.529C57.9029 183.394 58.6962 184.836 59.7057 185.774C60.8595 186.856 61.5085 188.226 61.5085 189.596C61.5085 190.75 61.797 191.831 62.2297 191.976C62.5902 192.048 63.1671 194.211 63.3835 196.663C63.6719 199.187 64.1767 201.206 64.4651 201.206C64.8257 201.206 65.1141 201.711 65.1141 202.288C65.1141 203.658 69.8736 203.802 71.2437 202.36C71.8206 201.855 72.4696 199.403 72.7581 196.951C72.9744 194.572 73.5513 192.552 73.8397 192.552C74.2003 192.552 74.4887 191.543 74.4887 190.389C74.4887 189.163 74.7772 188.226 75.2099 188.226C75.5704 188.226 76.0752 187.432 76.3637 186.423C76.58 185.413 77.0848 184.62 77.3732 184.62C77.6617 184.62 78.1665 183.827 78.3828 182.817C78.6713 181.808 79.176 181.015 79.5366 181.015C79.9693 181.015 80.2577 180.51 80.2577 179.933C80.2577 179.284 80.9067 178.851 81.7721 178.851C85.9546 178.851 89.4881 170.919 85.8825 169.765C84.1518 169.26 78.0944 163.347 78.0944 162.265C78.0944 161.833 77.8059 161.544 77.3732 161.544C77.0127 161.544 76.6521 160.895 76.6521 160.102C76.6521 159.309 76.1473 158.443 75.5704 158.227C74.9214 157.939 74.4887 156.857 74.4887 155.343C74.4887 153.972 74.2003 152.891 73.8397 152.891C73.5513 152.891 73.0465 150.872 72.7581 148.348C72.5417 145.896 71.9648 143.732 71.6043 143.66C71.1716 143.516 70.8831 142.939 70.8831 142.362C70.8831 141.353 66.5564 140.848 65.6189 141.858ZM68.7198 164.789C68.7198 165.366 69.2245 165.871 69.8014 165.871C70.4505 165.871 70.8831 166.52 70.8831 167.674C70.8831 168.683 71.2437 169.477 71.6764 169.477C73.0465 169.477 74.4887 171.496 74.4887 173.371C74.4887 174.524 74.0561 175.246 73.4071 175.246C72.8302 175.246 72.3254 175.606 72.3254 175.967C72.3254 176.399 71.5321 177.625 70.5226 178.707C69.513 179.789 68.7198 181.015 68.7198 181.519C68.7198 182.024 68.4313 182.457 67.9986 182.457C67.6381 182.457 67.2775 181.664 67.2775 180.654C67.2775 179.5 66.8448 178.851 66.1958 178.851C65.6189 178.851 65.1141 178.491 65.1141 178.058C65.1141 177.048 63.3113 175.246 62.3018 175.246C61.8691 175.246 61.5085 174.452 61.5085 173.443C61.5085 172.433 61.8691 171.64 62.2297 171.64C62.6623 171.64 62.9508 171.135 62.9508 170.558C62.9508 169.981 63.4556 169.477 64.0325 169.477C64.6815 169.477 65.1141 168.828 65.1141 167.674C65.1141 166.52 65.5468 165.871 66.1958 165.871C66.7727 165.871 67.2775 165.366 67.2775 164.789C67.2775 164.212 67.6381 163.708 67.9986 163.708C68.4313 163.708 68.7198 164.212 68.7198 164.789Z" fill="#1D3557"/>
<path d="M227.366 142.435C227.366 143.012 227.077 143.517 226.717 143.517C226.428 143.517 225.924 145.536 225.635 147.988C225.419 150.511 224.842 152.603 224.481 152.747C224.049 152.891 223.76 154.117 223.76 155.487C223.76 156.857 223.472 157.939 223.111 157.939C222.751 157.939 222.246 158.732 222.03 159.742C221.741 160.751 221.236 161.545 220.876 161.545C220.443 161.545 220.155 161.905 220.155 162.338C220.155 163.492 214.169 169.189 212.367 169.765C209.987 170.559 210.275 174.092 212.871 176.76C214.025 177.914 215.323 178.852 215.756 178.852C216.838 178.852 220.155 182.385 220.155 183.539C220.155 184.116 220.443 184.621 220.876 184.621C221.236 184.621 221.741 185.414 222.03 186.423C222.246 187.433 222.751 188.226 223.111 188.226C223.472 188.226 223.76 189.164 223.76 190.317C223.76 191.471 224.121 192.553 224.481 192.697C224.914 192.841 225.491 194.861 225.707 197.24C225.996 199.62 226.573 201.928 227.077 202.432C228.375 203.802 233.135 203.658 233.135 202.288C233.135 201.711 233.423 201.206 233.784 201.206C234.072 201.206 234.577 199.187 234.866 196.663C235.082 194.211 235.659 192.048 236.019 191.976C236.452 191.832 236.741 190.75 236.741 189.596C236.741 188.226 237.39 186.856 238.471 185.846C239.409 184.981 240.346 183.539 240.635 182.601C240.923 181.736 241.5 181.015 241.86 181.015C242.221 181.015 242.509 180.51 242.509 179.933C242.509 179.356 242.87 178.852 243.303 178.852C243.735 178.852 244.529 178.419 245.033 177.914C247.413 175.823 248.278 175.246 249 175.246C249.36 175.246 249.721 174.453 249.721 173.443C249.721 172.434 249.432 171.64 249 171.64C248.639 171.64 248.278 171.136 248.278 170.559C248.278 169.982 247.918 169.477 247.485 169.477C246.115 169.477 238.904 161.689 238.904 160.174C238.904 159.309 238.399 158.66 237.822 158.66C237.101 158.66 236.741 157.939 236.741 156.569C236.741 155.415 236.38 154.333 236.019 154.189C235.587 154.045 235.082 151.593 234.793 148.709C234.577 145.896 234.072 143.517 233.784 143.517C233.423 143.517 233.135 143.012 233.135 142.435C233.135 141.642 232.342 141.353 230.25 141.353C228.159 141.353 227.366 141.642 227.366 142.435ZM230.972 164.79C230.972 165.367 231.476 165.871 232.053 165.871C232.702 165.871 233.135 166.52 233.135 167.674C233.135 168.828 233.568 169.477 234.217 169.477C234.793 169.477 235.298 169.982 235.298 170.559C235.298 171.136 235.659 171.64 236.019 171.64C236.452 171.64 236.741 172.434 236.741 173.443C236.741 174.453 236.38 175.246 235.947 175.246C235.154 175.246 233.135 176.977 233.135 177.698C233.135 177.914 232.486 178.779 231.621 179.645L230.178 181.087L228.015 178.924C226.861 177.698 225.924 176.4 225.924 175.967C225.924 175.607 225.419 175.246 224.842 175.246C223.472 175.246 223.4 171.929 224.698 170.559C226.789 168.179 227.366 167.314 227.366 166.592C227.366 166.232 227.871 165.871 228.448 165.871C229.024 165.871 229.529 165.367 229.529 164.79C229.529 164.213 229.89 163.708 230.25 163.708C230.683 163.708 230.972 164.213 230.972 164.79Z" fill="#1D3557"/>
</svg>
