<svg width="301" height="300" viewBox="0 0 301 300" fill="none" xmlns="http://www.w3.org/2000/svg">
<path d="M27.7778 0.793641C27.7778 1.19047 26.746 1.58729 25.3968 1.58729C24.127 1.58729 23.0159 1.90475 23.0159 2.22221C23.0159 2.61904 22.0635 3.41269 20.873 4.04761C13.0952 8.09523 1.5873 21.8254 1.5873 27.1428C1.5873 27.9365 1.26984 28.5714 0.793651 28.5714C0.31746 28.5714 0 30.7936 0 33.7301C0 36.6667 0.31746 38.8889 0.793651 38.8889C1.26984 38.8889 1.5873 39.6032 1.5873 40.4762C1.5873 41.3492 1.98413 42.0635 2.38095 42.0635C2.85714 42.0635 3.1746 42.619 3.1746 43.3333C3.1746 43.9682 4.7619 46.1905 6.74603 48.254C8.73016 50.2381 10.3175 52.2222 10.3175 52.5397C10.3175 52.8571 10.7143 53.1746 11.1905 53.1746C12.2222 53.1746 14.6825 55.4762 30.4762 71.0317C36.2698 76.6667 44.127 84.2063 47.9365 87.6984C51.746 91.1905 60.873 99.8413 68.0952 106.984C85.9524 124.365 89.6032 127.778 90.0794 127.778C90.3175 127.778 96.5079 133.73 103.889 141.032C111.27 148.413 118.651 155.397 120.238 156.746C121.825 158.016 123.651 159.603 124.206 160.079C124.841 160.635 125.794 161.111 126.349 161.111C126.984 161.111 127.937 161.825 128.571 162.698C129.206 163.571 130.238 164.286 130.794 164.286C131.429 164.286 132.937 165.317 134.127 166.667C135.317 167.937 136.825 169.048 137.46 169.048C138.016 169.048 139.048 169.762 139.683 170.635C140.317 171.508 141.111 172.222 141.429 172.222C141.984 172.222 154.841 180.794 155.556 181.667C155.794 181.905 156.905 182.619 158.175 183.254C159.365 183.889 160.317 184.683 160.317 185.079C160.317 185.397 160.794 185.714 161.349 185.714C161.905 185.714 162.857 186.429 163.492 187.302C164.127 188.175 165.159 188.889 165.873 188.889C166.587 188.889 167.619 189.603 168.254 190.476C168.889 191.349 169.841 192.063 170.476 192.063C171.587 192.063 256.349 276.508 256.349 277.619C256.349 278.016 255.635 278.968 254.762 279.762C253.889 280.556 253.175 281.667 253.175 282.302C253.175 282.857 252.857 283.333 252.381 283.333C250.317 283.333 252.143 286.27 257.857 292.063C263.413 297.698 264.444 298.413 266.984 298.413C268.571 298.413 269.841 298.73 269.841 299.206C269.841 299.603 270.397 300 271.032 300C271.667 300 272.222 299.603 272.222 299.206C272.222 298.73 273.333 298.413 274.603 298.413C275.952 298.413 276.984 298.016 276.984 297.619C276.984 297.143 277.54 296.825 278.175 296.825C279.365 296.825 293.492 282.937 296.587 278.651C297.619 277.381 298.413 275.317 298.413 274.206C298.413 273.095 298.889 271.429 299.444 270.556C300.238 269.206 300.238 268.73 299.444 268.492C298.889 268.254 298.413 267.222 298.413 266.111C298.413 263.571 287.063 251.587 284.603 251.587C283.73 251.587 281.825 252.698 280.397 254.127L277.778 256.667L274.921 253.889C265.317 244.841 192.857 171.984 192.857 171.429C192.857 171.032 191.984 169.841 190.873 168.73C189.762 167.619 188.889 166.349 188.889 165.873C188.889 165.476 188.571 165.079 188.095 165.079C187.698 165.079 187.302 164.524 187.302 163.889C187.302 163.254 186.984 162.698 186.508 162.698C186.111 162.698 185.714 162.143 185.714 161.508C185.714 160.873 185.397 160.317 184.921 160.317C184.524 160.317 184.127 159.762 184.127 159.127C184.127 158.492 183.81 157.937 183.333 157.937C182.936 157.937 182.54 157.54 182.54 157.063C182.54 156.587 181.905 155.397 181.19 154.365C180.397 153.413 179.206 151.746 178.571 150.794C177.936 149.841 176.587 148.095 175.635 146.984C174.603 145.794 173.81 144.524 173.81 144.206C173.81 143.889 173.095 142.857 172.222 141.905C171.349 140.952 170.635 139.683 170.635 139.127C170.635 138.571 170.317 138.095 169.841 138.095C169.444 138.095 169.048 137.54 169.048 136.905C169.048 136.27 168.73 135.714 168.413 135.714C168.016 135.714 167.222 134.762 166.587 133.492C165.952 132.302 164.841 130.794 164.127 130.079C163.333 129.365 162.698 128.492 162.698 128.254C162.698 126.667 153.968 116.746 141.587 104.286C133.968 96.5873 127.778 90.1587 127.778 90C127.778 89.5238 122.778 84.2857 107.143 68.4127C100.159 61.2698 94.4444 55 94.4444 54.3651C94.4444 53.8095 93.8095 53.0952 93.0952 52.7778C92.3016 52.5397 90.0794 50.5555 88.0952 48.3333C86.1111 46.1905 78.7302 38.4921 71.6667 31.3492C64.6032 24.127 58.5714 17.5397 58.3333 16.6667C58.0952 15.7936 57.4603 15.0794 57.0635 15.0794C56.6667 15.0794 54.127 12.7778 51.4286 9.92062C48.7302 7.06348 46.1111 4.76189 45.6349 4.76189C45.1587 4.76189 44.2857 4.04761 43.6508 3.17459C43.0159 2.22221 41.5873 1.58729 40.3175 1.58729C39.127 1.58729 38.0952 1.19047 38.0952 0.793641C38.0952 0.31745 35.873 -1.02818e-05 32.9365 -1.02818e-05C30 -1.02818e-05 27.7778 0.31745 27.7778 0.793641ZM34.9206 9.5238C34.9206 9.92062 35.7936 10.3175 36.9048 10.3175C38.3333 10.3175 41.5079 13.0159 49.2063 20.7143C54.8413 26.5079 59.5238 31.4286 59.5238 31.746C59.5238 32.0635 67.0635 39.9206 76.1905 49.2063C85.3968 58.5714 92.8571 66.4286 92.8571 66.746C92.8571 67.0635 99.3651 73.8889 107.381 81.9048C115.317 89.9206 124.365 99.3651 127.381 102.778C130.476 106.27 137.302 113.492 142.698 118.81C148.016 124.206 152.381 128.968 152.381 129.444C152.381 130 153.016 130.952 153.81 131.667C154.524 132.381 155.635 133.889 156.27 135.079C156.905 136.349 157.698 137.302 158.095 137.302C158.413 137.302 158.73 137.857 158.73 138.492C158.73 139.127 159.048 139.683 159.365 139.683C159.762 139.683 160.714 141.111 161.508 142.857C162.302 144.603 163.254 146.032 163.571 146.032C163.889 146.032 164.365 146.667 164.603 147.381C164.921 148.175 166.349 150.238 167.857 151.984C169.365 153.73 170.635 155.556 170.635 156.111C170.635 156.667 171.032 157.143 171.429 157.143C171.905 157.143 172.222 157.698 172.222 158.333C172.222 158.968 172.54 159.524 172.857 159.524C173.254 159.524 174.048 160.476 174.683 161.667C175.317 162.937 176.429 164.603 177.222 165.397C177.936 166.27 178.571 167.381 178.571 167.857C178.571 168.333 179.286 169.206 180.159 169.841C181.032 170.476 181.746 171.27 181.746 171.667C181.746 173.333 189.048 181.746 200.714 193.333C207.698 200.317 213.492 206.508 213.492 207.063C213.492 208.254 208.254 213.492 207.063 213.492C206.587 213.492 200.238 207.54 192.857 200.159C178.889 186.19 174.841 182.54 173.254 182.54C172.698 182.54 172.222 182.222 172.222 181.825C172.222 181.429 171.19 180.714 169.841 180.159C168.571 179.603 167.46 178.889 167.46 178.651C167.46 178.333 166.19 177.46 164.683 176.746C163.175 176.032 161.905 175.079 161.905 174.603C161.905 174.206 161.349 173.81 160.714 173.81C160.079 173.81 159.524 173.413 159.524 173.016C159.524 172.54 158.968 172.222 158.333 172.222C157.698 172.222 157.143 171.825 157.143 171.429C157.143 170.952 156.587 170.635 155.952 170.635C155.317 170.635 154.762 170.238 154.762 169.841C154.762 169.365 154.286 169.048 153.73 169.048C153.175 169.048 152.222 168.333 151.587 167.46C150.952 166.587 149.921 165.873 149.206 165.873C148.492 165.873 147.46 165.159 146.825 164.286C146.19 163.413 145.397 162.698 145.079 162.698C144.683 162.698 142.143 161.111 139.365 159.127C136.508 157.143 133.889 155.556 133.571 155.556C133.175 155.556 132.381 154.841 131.746 153.968C131.111 153.095 130.238 152.381 129.762 152.381C129.286 152.381 123.651 147.222 117.222 140.873C110.794 134.524 105.238 129.365 104.921 129.365C104.524 129.365 103.175 128.175 101.825 126.746C97.5397 122.143 70.6349 96.0317 70.1587 96.0317C69.9206 96.0317 66.3492 92.6984 62.3016 88.6508C51.1905 77.619 35.5556 62.6984 35.0794 62.6984C34.8413 62.6984 30.6349 58.6508 25.7143 53.7302C20.873 48.8889 15.7143 43.9682 14.3651 42.8571C13.0159 41.746 11.9048 40.2381 11.9048 39.5238C11.9048 38.8095 11.4286 38.0952 10.9524 37.8571C10.2381 37.6984 9.92063 35.873 10 32.3016C10 27.9365 10.3175 26.746 11.746 25.5555C12.6984 24.6825 13.4921 23.6508 13.4921 23.0952C13.4921 22.619 13.8889 22.2222 14.2857 22.2222C14.7619 22.2222 15.0794 21.8254 15.0794 21.4286C15.0794 20.5555 20.2381 15.0794 21.0317 15.0794C21.2698 15.0794 22.2222 14.3651 23.1746 13.4921C24.127 12.619 25.3968 11.9048 25.9524 11.9048C26.5079 11.9048 26.9841 11.5079 26.9841 11.1111C26.9841 10.6349 27.6984 10.3175 28.4921 10.3175C29.3651 10.3175 30.3175 9.92062 30.5556 9.5238C30.7936 9.04761 31.9048 8.73015 33.0159 8.73015C34.0476 8.73015 34.9206 9.04761 34.9206 9.5238ZM245.873 238.413C259.048 251.667 269.841 262.857 269.841 263.413C269.841 264.603 264.603 269.841 263.413 269.841C262.936 269.841 251.667 258.968 238.333 245.635C221.905 229.206 214.365 221.111 214.762 220.476C216.111 218.333 220.159 214.286 220.952 214.286C221.429 214.286 232.619 225.159 245.873 238.413ZM286.984 264.603C287.619 265.238 288.095 266.111 288.095 266.587C288.095 267.063 288.492 267.46 288.889 267.46C289.365 267.46 289.683 268.73 289.683 270.238C289.683 272.698 288.73 273.968 281.349 281.349C273.889 288.81 272.698 289.683 270.238 289.683C267.46 289.683 263.492 286.905 263.492 285C263.492 283.81 283.492 263.651 284.762 263.571C285.317 263.492 286.349 263.968 286.984 264.603Z" fill="#1D3557"/>
<path d="M214.683 40.4768C214.445 40.8736 212.937 41.2704 211.429 41.2704C209.921 41.2704 208.73 41.5879 208.73 42.0641C208.73 42.4609 207.857 42.8577 206.746 42.8577C204.842 42.8577 198.175 46.191 196.191 48.1752C195.635 48.7307 194.842 49.2069 194.445 49.2069C193.413 49.2069 188.889 53.7307 188.889 54.7625C188.889 55.318 188.254 56.3498 187.381 57.0641C185.397 58.8101 182.778 64.1276 182.143 67.8577C181.826 69.6037 181.191 71.4291 180.794 71.9847C179.683 73.3339 180.476 86.191 181.905 90.8736C184.048 97.9371 185.794 100.794 192.143 107.143C197.778 112.858 203.572 116.667 206.508 116.667C207.143 116.667 208.016 117.064 208.572 117.62C209.127 118.175 212.699 118.731 217.143 118.889C223.334 119.207 225.715 118.889 230.397 117.54C237.778 115.239 239.603 114.366 242.222 111.747C243.334 110.477 244.762 109.524 245.238 109.524C246.429 109.524 250 105.556 250 104.286C250 103.731 250.556 103.175 251.191 102.858C252.54 102.382 257.143 93.2545 257.143 91.1117C257.143 90.318 257.54 89.6831 257.937 89.6831C259.048 89.6831 258.889 73.4133 257.699 69.0482C255.397 60.9529 249.762 52.699 242.699 47.2228C240.556 45.5561 234.683 42.8577 233.334 42.8577C232.461 42.8577 231.588 42.4609 231.349 42.0641C231.111 41.5879 229.603 41.2704 228.095 41.2704C226.588 41.2704 225.397 40.8736 225.397 40.4768C225.397 40.0006 223.175 39.6831 220.318 39.6831C217.461 39.6831 214.921 40.0006 214.683 40.4768ZM228.572 50.7942C228.572 51.191 229.683 51.5879 230.953 51.5879C232.302 51.5879 233.334 51.9053 233.334 52.3815C233.334 52.7783 234.048 53.1752 234.921 53.1752C235.794 53.1752 236.508 53.3339 236.508 53.4926C236.508 53.6514 236.746 54.3656 236.984 55.0006C237.619 56.6672 233.968 60.0006 228.73 62.3815C225.238 64.0482 223.016 64.5244 219.127 64.445C216.349 64.445 213.73 64.0482 213.254 63.572C212.778 63.0958 211.667 62.699 210.873 62.699C210 62.699 208.73 62.0641 208.016 61.2704C207.302 60.5561 206.032 59.5244 205.238 59.0482C202.222 57.4609 201.984 55.8736 204.207 53.6514C205.318 52.5403 207.143 51.5879 208.334 51.5879C209.445 51.5879 210.318 51.191 210.318 50.7942C210.318 50.318 213.889 50.0006 219.445 50.0006C225 50.0006 228.572 50.318 228.572 50.7942ZM199.207 65.8736C200.476 67.1434 201.905 68.2545 202.381 68.2545C202.778 68.2545 203.175 68.572 203.175 68.8895C203.175 69.2863 204.445 70.0006 205.953 70.6355C207.461 71.2704 208.73 71.9847 208.73 72.3815C208.73 72.699 209.842 73.0164 211.191 73.0164C212.619 73.0164 215.08 73.4133 216.826 73.9688C219.286 74.6831 220.318 74.6831 221.508 73.9688C222.302 73.4133 224.286 73.0164 225.794 73.0164C227.302 73.0164 228.572 72.6196 228.572 72.2228C228.572 71.7466 229.683 71.4291 230.953 71.4291C232.302 71.4291 233.334 71.0323 233.334 70.6355C233.334 70.1593 233.968 69.8418 234.762 69.8418C235.556 69.8418 236.667 69.1276 237.302 68.2545C237.937 67.3815 238.73 66.6672 239.127 66.6672C239.445 66.6672 240.476 65.9529 241.429 65.0799C242.381 64.2069 243.81 63.4926 244.524 63.4926C246.191 63.4926 248.413 67.6196 248.413 70.7942C248.413 71.9847 248.81 73.0164 249.207 73.0164C249.683 73.0164 250 75.6355 250 79.3656C250 83.0958 249.683 85.7149 249.207 85.7149C248.81 85.7149 248.413 86.5879 248.413 87.6196C248.413 88.7307 248.095 89.8418 247.619 90.0799C247.222 90.318 246.826 91.2704 246.826 92.1434C246.826 93.8101 245.08 96.0323 243.889 96.0323C243.572 96.0323 242.064 94.9212 240.635 93.572C233.81 87.1434 223.413 84.1276 214.207 85.8736C211.191 86.4291 208.73 87.1434 208.73 87.4609C208.73 87.7783 208.016 88.0958 207.143 88.0958C206.27 88.0958 205.556 88.4133 205.556 88.8895C205.556 89.2863 204.842 89.6831 203.968 89.6831C203.095 89.6831 202.381 90.0006 202.381 90.4768C202.381 90.8736 201.984 91.2704 201.508 91.2704C201.032 91.2704 199.603 92.3022 198.413 93.6514C197.222 94.9212 195.715 96.0323 195.08 96.0323C193.889 96.0323 192.064 92.8577 192.064 90.8736C192.064 90.2387 191.746 89.6831 191.27 89.6831C190.873 89.6831 190.476 88.0958 190.476 86.1117C190.476 84.1276 190.159 82.5402 189.683 82.5402C189.286 82.5402 188.889 81.2704 188.889 79.7625C188.889 78.2545 189.286 76.9847 189.683 76.9847C190.159 76.9847 190.476 75.6355 190.476 74.0482C190.476 70.0006 193.492 63.4926 195.397 63.4926C196.191 63.4926 197.937 64.5244 199.207 65.8736ZM224.921 95.1593C225.159 95.4768 226.349 96.0323 227.54 96.2704C230.953 96.9847 237.619 102.54 237.064 104.207C236.905 104.762 235.715 105.477 234.445 105.953C233.175 106.35 231.984 106.905 231.746 107.143C230.476 108.413 224.842 109.524 219.445 109.524C214.127 109.524 212.461 109.128 207.778 107.064C204.842 105.635 202.381 104.128 202.381 103.572C202.381 101.588 209.921 96.0323 212.619 96.0323C213.492 96.0323 214.445 95.6355 214.683 95.2387C215.318 94.2863 224.365 94.2069 224.921 95.1593Z" fill="#1D3557"/>
<path d="M20.2381 160.714C16.746 161.27 12.2222 161.984 10.1587 162.302C8.01587 162.619 6.34921 163.175 6.34921 163.571C6.34921 163.889 5.63492 164.444 4.7619 164.683C3.73016 165 3.1746 165.873 3.1746 167.143C3.1746 168.175 2.85714 169.048 2.38095 169.048C1.98413 169.048 1.5873 170.794 1.5873 173.016C1.5873 175.159 1.26984 176.984 0.793651 176.984C0.31746 176.984 0 182.302 0 191.27C0 200.238 0.31746 205.556 0.793651 205.556C1.26984 205.556 1.5873 207.302 1.5873 209.524C1.5873 211.667 1.98413 213.492 2.38095 213.492C2.85714 213.492 3.1746 215.079 3.1746 217.063C3.1746 219.048 3.57143 220.635 3.96825 220.635C4.44444 220.635 4.7619 221.667 4.7619 223.016C4.7619 224.286 5.15873 225.397 5.55556 225.397C6.03175 225.397 6.34921 226.111 6.34921 226.984C6.34921 227.857 6.74603 228.571 7.14286 228.571C7.61905 228.571 7.93651 229.365 7.93651 230.397C7.93651 231.429 9.20635 234.524 10.7143 237.302C12.2222 240.159 13.4921 243.016 13.4921 243.651C13.4921 244.365 14.2063 245.397 15.0794 246.032C15.9524 246.667 16.6667 247.698 16.6667 248.413C16.6667 249.127 17.381 250.159 18.254 250.794C19.127 251.429 19.8413 252.46 19.8413 253.175C19.8413 253.81 20.5556 254.841 21.4286 255.397C22.3016 255.952 23.0159 256.746 23.0159 257.143C23.0159 257.619 24.5238 259.603 26.4286 261.508C28.254 263.492 30.5556 265.873 31.4286 266.825C35.0794 270.714 41.8254 276.667 43.8889 277.698C45.0794 278.333 46.0317 279.127 46.0317 279.524C46.0317 279.841 46.5873 280.159 47.2222 280.159C47.8571 280.159 48.4127 280.476 48.4127 280.952C48.4127 281.349 48.9683 281.746 49.6032 281.746C50.2381 281.746 50.7937 282.063 50.7937 282.54C50.7937 282.937 51.2698 283.333 51.9048 283.333C52.5397 283.333 53.1746 283.651 53.3333 283.968C53.6508 284.841 68.0159 292.063 69.3651 292.063C70.7937 292.063 74.6032 293.968 74.6032 294.603C74.6032 295 76.0317 295.238 77.7778 295.238C79.5238 295.238 80.9524 295.556 80.9524 296.032C80.9524 296.429 82.381 296.825 84.127 296.825C85.873 296.825 87.3016 297.143 87.3016 297.619C87.3016 298.095 89.8413 298.413 93.254 298.413C96.6667 298.413 99.2064 298.73 99.2064 299.206C99.2064 299.683 101.746 300 105.159 300C108.571 300 111.111 299.683 111.111 299.206C111.111 298.73 113.889 298.413 117.857 298.413C121.825 298.413 124.603 298.095 124.603 297.619C124.603 297.143 126.429 296.825 128.571 296.825C130.794 296.825 132.54 296.429 132.54 296.032C132.54 295.556 133.016 295.238 133.651 295.238C135.238 295.238 135.317 294.921 137.381 287.619C138.81 282.302 139.048 279.286 139.048 267.46C139.048 257.143 138.73 252.143 137.698 248.016C136.984 244.921 136.19 241.27 135.952 239.841C135.714 238.413 135.238 237.063 134.841 236.825C134.444 236.587 134.127 235.714 134.127 234.841C134.127 234.048 133.81 233.333 133.333 233.333C132.937 233.333 132.54 232.222 132.54 230.952C132.54 229.603 132.222 228.571 131.746 228.571C131.349 228.571 130.952 227.857 130.952 226.984C130.952 226.111 130.635 225.397 130.159 225.397C129.762 225.397 129.365 224.683 129.365 223.81C129.365 222.937 129.048 222.222 128.571 222.222C128.175 222.222 127.778 221.508 127.778 220.635C127.778 219.762 127.46 219.048 126.984 219.048C126.587 219.048 126.19 218.333 126.19 217.46C126.19 216.587 125.873 215.873 125.476 215.873C125.079 215.873 124.524 215 124.286 213.889C123.968 212.778 123.492 211.905 123.095 211.905C122.698 211.905 121.984 210.794 121.429 209.524C120.873 208.175 120.159 207.143 119.762 207.143C119.365 207.143 119.048 206.667 119.048 206.032C119.048 205.476 118.016 203.889 116.667 202.54C115.397 201.111 114.286 199.841 114.286 199.603C114.286 199.048 102.937 187.857 98.3333 183.889C96.4286 182.222 93.6508 180.238 92.3016 179.524C90.873 178.889 89.6825 178.016 89.6825 177.698C89.6825 177.46 88.6508 176.746 87.3016 176.19C86.0317 175.635 84.9206 174.921 84.9206 174.524C84.9206 174.127 84.2064 173.81 83.3333 173.81C82.4603 173.81 81.746 173.492 81.746 173.175C81.746 172.778 80.4762 172.063 78.9683 171.429C77.4603 170.794 76.1905 170.079 76.1905 169.683C76.1905 169.365 75.4762 169.048 74.6032 169.048C73.7302 169.048 73.0159 168.651 73.0159 168.254C73.0159 167.778 72.3016 167.46 71.5079 167.46C70.6349 167.46 69.6825 167.063 69.4444 166.667C69.2064 166.19 68.1746 165.873 67.1429 165.873C66.1905 165.873 65.0794 165.635 64.7619 165.317C63.6508 164.206 53.3333 161.825 44.4444 160.714C33.8889 159.365 28.9683 159.365 20.2381 160.714ZM26.1905 169.365C26.1905 169.921 10.873 185.714 10.3175 185.714C10.0794 185.714 10 183.095 10.1587 179.921C10.5556 172.619 12.0635 170.635 17.381 170.556C19.3651 170.556 21.746 170.238 22.619 169.841C24.3651 169.048 26.1905 168.889 26.1905 169.365ZM48.254 170.635C50 170.635 50.7937 171.032 50.7937 171.825C50.7937 173.492 11.9048 212.222 11.0317 211.349C10.7143 211.032 10.3175 208.175 10.1587 205.079L9.92064 199.524L24.9206 184.603C39.7619 169.841 39.9206 169.683 42.7778 170.159C44.3651 170.397 46.8254 170.635 48.254 170.635ZM65.6349 175.476C66.8254 175.952 68.5714 176.667 69.4444 176.984C74.8413 179.127 76.1905 179.841 76.1905 180.317C76.1905 180.714 76.6667 180.952 77.2222 180.952C77.7778 180.952 79.0476 181.667 80 182.54C80.9524 183.413 82.1429 184.127 82.6984 184.127C83.3333 184.127 84.2857 184.841 84.9206 185.714C85.5556 186.587 86.5079 187.302 87.0635 187.302C87.6191 187.302 88.0952 187.619 88.0952 188.095C88.0952 188.492 88.5714 188.889 89.127 188.889C90 188.889 96.9048 194.683 100.238 198.175C106.508 204.683 109.365 208.016 110.238 209.762C110.873 210.952 111.667 211.905 112.063 211.905C112.381 211.905 112.698 212.46 112.698 213.095C112.698 213.73 113.095 214.286 113.492 214.286C113.968 214.286 114.286 214.841 114.286 215.476C114.286 216.111 114.683 216.667 115.079 216.667C115.556 216.667 115.873 217.222 115.873 217.857C115.873 218.492 116.19 219.048 116.508 219.048C116.905 219.048 118.095 220.714 119.127 222.778C120.159 224.921 121.27 226.667 121.667 226.825C121.984 226.984 122.222 227.778 122.222 228.571C122.222 229.286 122.778 231.27 123.413 232.778C124.048 234.365 124.603 236.032 124.603 236.429C124.603 237.619 76.9841 284.921 75.7143 284.921C75.0794 284.921 74.6032 284.524 74.6032 284.127C74.6032 283.651 73.8889 283.333 73.0159 283.333C72.1429 283.333 71.4286 282.937 71.4286 282.54C71.4286 282.063 70.7143 281.746 69.9206 281.746C69.0476 281.746 68.0952 281.349 67.8571 280.952C67.619 280.476 66.6667 280.159 65.873 280.159C65.0794 280.159 64.2857 279.921 64.127 279.524C64.0476 279.206 61.8254 277.937 59.3651 276.587C56.8254 275.317 54.7619 274.048 54.7619 273.73C54.7619 273.413 53.7302 272.778 52.381 272.222C51.1111 271.667 50 270.952 50 270.556C50 270.159 49.6032 269.841 49.127 269.841C48.6508 269.841 46.5873 268.016 44.4444 265.873C42.3016 263.651 40.3175 261.905 39.9206 261.905C39.2064 261.905 36.5079 259.048 36.5079 258.254C36.5079 258.095 34.7619 256.111 32.5397 253.968C30.3968 251.825 28.5714 249.683 28.5714 249.286C28.5714 248.889 28.0952 248.016 27.5397 247.46C25.3175 245.079 21.4286 238.492 21.4286 236.984C21.4286 236.508 20.7143 235.556 19.8413 234.921C18.9683 234.286 18.254 232.937 18.254 231.984C18.254 230.952 17.9365 230.159 17.4603 230.159C17.0635 230.159 16.6667 229.444 16.6667 228.571C16.6667 227.698 16.3492 226.984 15.873 226.984C15.4762 226.984 15.0794 225.794 15.0794 224.286C15.0794 221.905 16.9841 219.762 36.2698 200.397C56.4286 180.317 62.3016 174.603 63.0952 174.603C63.254 174.603 64.4444 175 65.6349 175.476ZM128.413 251.032C128.968 252.46 129.365 255 129.365 256.667C129.365 259.444 128.492 260.476 114.365 274.683C99.7619 289.286 99.2857 289.683 96.1111 289.683C94.2857 289.683 92.8571 289.286 92.8571 288.889C92.8571 288.413 91.8254 288.095 90.4762 288.095C89.2064 288.095 88.0952 287.857 88.0952 287.46C88.0952 287.143 89.5238 285.476 91.2698 283.73C93.0952 281.984 97.1429 277.857 100.317 274.603C103.492 271.349 108.016 266.825 110.397 264.524C112.778 262.302 117.302 257.778 120.476 254.444C123.651 251.111 126.508 248.413 126.905 248.413C127.222 248.413 127.857 249.603 128.413 251.032ZM129.365 274.762C129.365 275.317 128.968 278.571 128.413 281.905L127.54 288.095H124.921C123.492 288.095 122.063 288.413 121.825 288.889C121.111 290.079 114.286 289.921 114.286 288.73C114.286 287.778 127.698 274.048 128.81 273.889C129.127 273.81 129.365 274.286 129.365 274.762Z" fill="#1D3557"/>
<path d="M73.3333 192.222L70 195.397L86.5873 211.984C95.7143 221.111 103.492 228.571 103.81 228.571C104.603 228.571 109.524 223.174 109.524 222.301C109.524 221.667 77.0635 188.73 76.746 188.968C76.6667 188.968 75.0794 190.476 73.3333 192.222Z" fill="#1D3557"/>
<path d="M46.0318 206.032L42.6191 209.524L45.5556 212.143C47.143 213.572 48.4128 215.318 48.4128 215.952C48.4128 216.587 47.143 218.492 45.635 220.079L42.8572 223.016L45.635 225.794C47.143 227.302 48.5715 228.572 48.889 228.572C49.1271 228.572 50.3969 227.46 51.5874 226.191C52.7779 224.841 54.6033 223.81 55.4763 223.81C57.143 223.81 62.6985 228.572 62.6985 230C62.6985 230.397 61.2699 232.064 59.4445 233.572L56.1906 236.429L59.0477 239.286C60.5556 240.794 62.2223 242.064 62.7779 242.064C63.2541 242.064 64.6826 240.952 65.8731 239.683C67.0636 238.333 68.6509 237.302 69.3652 237.302C70.8731 237.302 76.1906 242.302 76.1906 243.651C76.1906 244.206 74.762 245.873 73.0953 247.54L70.0001 250.556L72.6985 253.016C74.2064 254.445 75.8731 255.556 76.4287 255.556C77.0636 255.556 78.4922 254.445 79.762 253.175C82.6191 250.159 83.5715 250.159 86.508 253.175C87.7779 254.445 89.3652 255.556 90.0001 255.556C91.3493 255.556 96.0318 251.27 96.0318 250C96.0318 249.524 94.6033 247.699 92.7779 245.952L89.5239 242.857L92.8572 239.683C96.508 236.191 96.508 236.27 92.381 232.064L90.7144 230.318L87.6191 233.016C85.8731 234.445 84.1271 235.714 83.5715 235.714C83.0953 235.714 81.1906 234.286 79.3652 232.54L76.0318 229.365L79.4445 226.111L82.7779 222.857L79.6033 219.683L76.4287 216.508L73.5715 219.365C71.9842 220.952 70.2382 222.222 69.762 222.222C69.2858 222.222 67.4604 220.714 65.7937 218.889L62.6985 215.476L65.4763 212.699C69.2858 208.81 69.2064 208.492 64.5239 204.524C62.8572 203.095 62.7779 203.095 60.0001 205.873C58.4922 207.46 56.8255 208.73 56.3493 208.73C55.7937 208.73 54.0477 207.302 52.4604 205.635L49.4445 202.54L46.0318 206.032Z" fill="#1D3557"/>
<path d="M32.3017 233.174C30.7144 234.841 29.3652 236.428 29.3652 236.666C29.3652 237.46 61.8256 269.841 62.5398 269.841C63.4922 269.841 68.2541 264.761 68.2541 263.73C68.2541 263.015 36.1113 230.158 35.397 230.158C35.3176 230.158 33.889 231.507 32.3017 233.174Z" fill="#1D3557"/>
</svg>
