<svg width="327" height="300" viewBox="0 0 327 300" fill="none" xmlns="http://www.w3.org/2000/svg">
<path d="M185.543 1.03942C179.539 3.91358 176.026 10.5561 176.09 19.0508C176.154 23.6495 178.006 30.9946 179.603 32.9107C179.986 33.4216 179.22 35.0184 177.048 38.0203C171.3 45.9402 163.508 59.6723 163.508 61.9078C163.508 63.9516 165.999 66.3148 168.234 66.3148C170.661 66.3148 172.258 64.7819 174.366 60.5665C176.729 55.8401 181.328 48.4311 185.415 42.8744C190.206 36.1681 190.461 34.5074 187.779 27.7372C182.222 14.0051 188.8 4.04132 197.615 12.8554C200.744 16.0489 202.66 19.8173 203.746 25.1185C204.193 27.2262 205.215 29.9088 206.109 31.0584C208.792 34.5713 210.005 34.8906 221.31 34.8268C232.041 34.7629 238.683 35.8487 245.773 38.9145L248.583 40.128L244.879 42.8744C236.32 49.1976 231.338 58.4588 230.763 69.1251C230.508 74.6818 230.955 77.7476 233.446 85.2204C233.829 86.4978 233.765 86.5617 229.486 85.9868C227.123 85.6675 222.46 84.7094 219.139 83.7514C210.772 81.4521 210.516 81.5798 207.131 89.9468C203.938 97.9306 200.425 109.427 198.381 118.688L196.912 125.395L176.026 125.586L155.205 125.714V124.309C155.205 118.944 160.059 96.5893 163.188 87.392C165.105 81.7075 165.168 81.005 163.444 78.8334C161.656 76.534 158.143 76.7257 156.354 79.1527C153.8 82.5379 147.476 107.894 145.944 120.668L145.496 124.309L140.962 119.519C138.471 116.9 134.638 113.579 132.403 112.11C127.868 109.172 127.74 108.661 129.337 103.104C132.467 92.31 130.998 77.8115 125.888 69.1251L124.675 67.0813L126.208 64.9097C129.72 60.1833 130.679 51.2414 128.379 44.9821C126.591 40.3196 122.056 35.5932 117.202 33.2939C113.945 31.761 112.603 31.5055 107.941 31.5055C103.278 31.5694 102.001 31.8249 98.9989 33.3578C94.8473 35.4655 91.7815 38.2119 89.6738 41.7886L88.1409 44.4073L80.9236 44.7905C67.0638 45.4931 53.9704 50.7305 45.2201 59.0975L42.9208 61.3329L39.7912 60.1833C34.8732 58.2672 28.039 58.5226 23.3765 60.822C11.0496 66.8896 7.0896 81.7075 14.8179 92.9487C17.1172 96.3977 21.7159 99.8467 25.4204 100.932C28.8055 101.954 28.9332 102.146 29.9551 106.553C30.9132 111.152 34.4899 118.369 37.6834 122.457L40.2383 125.714H23.1849C7.34508 125.714 5.93993 125.842 4.02383 126.992C0 129.419 0 129.355 0 157.649V183.261L1.59676 184.794C3.57673 186.838 6.0038 186.838 7.98378 184.794L9.58054 183.261V159.246V135.295H130.615H251.649V188.626V241.958H243.154H234.595L232.615 238.828C231.466 237.104 228.911 234.166 226.867 232.25C213.071 219.54 191.994 218.454 176.921 229.759C173.344 232.441 167.596 238.828 166.957 240.808C166.637 241.894 164.402 241.958 130.998 241.958H95.3583L92.9312 238.381C89.4183 233.272 84.1171 228.801 78.241 225.99C71.7263 222.797 68.2134 222.03 60.6767 222.03C48.222 222.03 36.7254 227.907 29.6358 237.87L26.6978 241.958H18.1391H9.58054V222.158V202.295L7.98378 200.762C6.0038 198.718 3.57673 198.718 1.59676 200.762L0 202.295V223.883C0 244.385 0.0638702 245.599 1.2774 247.579C3.25738 250.836 5.81219 251.539 15.0095 251.539H23.0572L22.5462 253.902C21.7159 257.926 22.0991 266.931 23.2488 271.019C25.4204 278.3 28.1029 282.835 33.5319 288.264C37.3641 292.16 39.855 294.012 43.4956 295.801C58.9522 303.401 76.5166 300.527 88.6519 288.456C93.0589 284.048 95.997 279.386 98.2324 273.127C99.5737 269.294 99.8931 267.314 99.8931 261.758C99.9569 258.053 99.7653 254.285 99.446 253.263L98.9989 251.539H130.487H161.975L161.719 258.756C161.528 264.057 161.719 267.059 162.486 270.061C167.787 291.266 188.992 304.104 209.75 298.803C227.506 294.268 239.577 278.747 239.513 260.544C239.513 258.245 239.258 255.243 238.939 253.902L238.364 251.539H261.165C285.947 251.539 287.927 251.283 292.206 248.09C295.272 245.726 297.635 241.383 298.082 237.359C298.849 229.823 295.208 224.01 287.544 220.498C287.416 220.434 293.292 197.44 300.509 169.401C328.357 61.6523 327.207 66.1871 326.632 64.4626C326.313 63.5684 325.227 62.4187 324.205 61.9078C321.459 60.6304 318.329 62.2271 317.499 65.4845C316.86 67.7838 308.94 98.3777 287.097 183.006L277.644 219.603H269.405H261.229V175.533C261.229 127.119 261.357 128.716 257.397 126.672C255.864 125.842 251.713 125.714 231.21 125.714C210.261 125.714 206.94 125.586 206.94 124.756C206.94 121.307 215.307 93.1403 216.329 93.1403C216.52 93.1403 218.308 93.5874 220.288 94.0984C225.717 95.5035 235.234 96.1422 241.877 95.6313C258.164 94.29 270.427 87.4559 275.728 76.7257C277.772 72.5741 278.091 71.2328 278.347 66.3148C278.602 61.7162 278.347 59.9278 277.197 56.4788C272.598 42.5551 257.461 30.9946 237.981 26.5875C233.573 25.5656 229.933 25.2462 222.843 25.2462H213.518L212.816 21.6695C211.091 13.558 205.598 5.63808 199.275 2.18908C194.868 -0.237986 189.184 -0.685078 185.543 1.03942ZM113.561 42.108C117.585 44.088 120.076 48.1757 120.076 52.9021C120.076 54.9459 119.693 56.9898 119.182 57.6923C118.352 58.842 118.224 58.842 115.861 56.7981C112.22 53.5408 107.174 50.5389 102.192 48.495L97.7215 46.7066L99.1266 44.9183C102.192 40.9583 108.579 39.7448 113.561 42.108ZM262.251 49.8363C270.682 59.2891 271.193 69.8915 263.592 77.3644C260.207 80.6217 253.756 83.943 248.775 85.0288C245.262 85.7314 245.134 85.7314 243.92 84.1985C242.132 81.8991 240.152 75.0012 240.152 71.1689C240.152 61.4607 245.837 52.455 254.523 48.3673C256.631 47.3453 258.547 46.515 258.802 46.515C258.994 46.515 260.527 48.0479 262.251 49.8363ZM95.5499 56.4149C107.238 60.1194 115.477 67.6561 119.501 78.3863C122.056 85.2204 122.12 94.9287 119.693 102.274C117.266 109.619 119.118 114.728 126.08 119.391C128.443 121.052 131.189 123.095 132.084 124.054L133.808 125.714H94.4002H55.0562L51.9265 123.223C42.8569 116.07 38.3221 106.745 38.3221 95.3119C38.3221 68.0393 68.2773 47.6647 95.5499 56.4149ZM36.0867 68.9974C36.2783 69.1251 35.3841 71.1051 34.2345 73.4044C31.6158 78.2585 29.6997 83.943 29.061 88.5417C28.8055 90.3939 28.4223 91.8629 28.2306 91.8629C26.8894 91.8629 22.8017 88.0946 21.7159 85.8591C18.6501 79.4082 21.1411 72.5741 27.7836 69.3806C30.0829 68.2948 35.1925 68.0393 36.0867 68.9974ZM286.522 231.356C288.885 233.719 289.268 235.826 287.799 238.701C286.266 241.575 284.478 241.958 272.407 241.958H261.229V235.571V229.184H272.79H284.35L286.522 231.356ZM70.7044 233.08C83.9894 237.615 92.3564 251.347 90.1848 265.079C87.5022 282.388 70.6405 293.884 54.0981 289.541C39.3441 285.709 29.5719 271.402 31.8713 256.904C34.6815 238.573 53.3317 227.14 70.7044 233.08ZM210.005 233.08C221.821 237.104 229.869 248.409 229.933 260.8C229.933 280.025 211.666 294.332 193.207 289.541C184.585 287.242 177.751 281.621 173.855 273.446C171.555 268.528 171.492 268.336 171.492 260.8C171.492 253.518 171.619 252.944 173.535 248.792C180.114 234.996 195.826 228.226 210.005 233.08Z" fill="#1D3557"/>
<path d="M91.0787 70.2748C88.6516 72.5102 88.5878 75.5122 91.0787 78.3863C93.0587 80.8134 95.6135 81.005 97.5296 78.8973C99.8289 76.4702 99.7012 73.2767 97.1464 70.7219C94.9109 68.4864 93.2503 68.3587 91.0787 70.2748Z" fill="#1D3557"/>
<path d="M55.5675 82.73C53.5237 83.4965 52.374 85.0932 52.374 87.2009C52.374 90.139 53.9708 93.0131 55.8869 93.5241C61.7629 94.9931 64.3816 88.0951 59.5914 83.6881C58.0585 82.2829 57.292 82.0913 55.5675 82.73Z" fill="#1D3557"/>
<path d="M80.4763 87.9672C70.257 91.2246 65.7861 95.5677 65.7861 101.891C65.85 107.767 70.6403 113.835 76.5163 115.495C88.013 118.625 99.1264 110.833 99.2541 99.5277C99.3819 89.3085 91.462 84.3904 80.4763 87.9672ZM89.7375 98.1225C90.5678 102.146 86.7356 106.553 82.3285 106.553C76.7718 106.553 73.259 102.21 76.8996 99.847C79.1989 98.3142 85.0111 96.3981 87.3104 96.3342C88.971 96.3342 89.3542 96.5897 89.7375 98.1225Z" fill="#1D3557"/>
<path d="M55.2476 244.066C49.9464 246.11 45.9226 250.197 44.1981 255.307C43.751 256.52 43.4316 259.203 43.4316 261.375C43.4955 268.145 46.9445 273.638 53.3315 276.959C57.1637 278.939 63.9979 279.258 67.8301 277.598C71.2152 276.065 75.6861 271.722 77.2829 268.273C81.5622 259.267 76.5803 247.451 67.1914 244.257C63.8062 243.044 57.9941 242.98 55.2476 244.066ZM65.0837 253.71C71.5984 257.095 70.0655 267.442 62.7205 269.103C57.9941 270.125 53.0122 265.973 53.0122 260.991C53.0122 254.668 59.4631 250.836 65.0837 253.71Z" fill="#1D3557"/>
<path d="M193.208 244.705C182.35 249.878 179.22 263.61 186.885 272.488C194.996 281.941 210.836 280.216 216.201 269.167C220.608 260.161 217.67 250.453 209.048 245.343C204.768 242.852 197.679 242.533 193.208 244.705ZM204.896 254.093C209.431 256.84 209.942 263.291 205.918 266.804C203.108 269.358 200.106 269.869 197.04 268.4C193.591 266.804 192.122 264.121 192.441 260.225C193.016 253.966 199.467 250.772 204.896 254.093Z" fill="#1D3557"/>
<path d="M214.668 44.3441C212.752 46.7712 212.88 50.6034 214.924 52.5834C218.117 55.8408 222.908 53.4137 222.908 48.5595C222.908 45.1106 220.928 42.6835 218.117 42.6835C216.584 42.6835 215.626 43.1306 214.668 44.3441Z" fill="#1D3557"/>
</svg>
