<svg width="299" height="300" viewBox="0 0 299 300" fill="none" xmlns="http://www.w3.org/2000/svg">
<path d="M117.795 0.397279C94.5274 2.9589 76.4893 17.4748 67.4168 40.9563C65.9226 44.692 65.4956 50.9893 65.0687 74.8978L64.4283 104.25L49.4855 104.783C32.6215 105.424 28.3521 106.811 22.4817 113.856C18.6393 118.552 17.4652 122.288 15.3305 136.697C13.516 149.078 13.6228 149.612 19.7066 149.612H23.1221L25.0433 136.59C26.6443 125.383 27.2848 123.142 29.9531 120.153C34.4359 115.03 37.4245 114.283 51.6202 114.603L64.4283 114.923L64.7485 120.9C65.0687 126.664 64.7485 127.518 59.6252 135.203L54.2885 143.528V171.599V199.777H51.3C46.7104 199.777 45.2161 201.698 42.1208 210.984C38.7053 221.444 38.0649 240.016 41.0535 242.898C42.441 244.285 45.5363 244.605 58.6646 244.605C67.737 244.605 75.6354 244.072 76.8095 243.538C78.6239 242.471 78.8374 241.19 78.8374 230.303C78.8374 220.27 78.4105 216.961 76.169 210.45C72.8603 200.844 72.0064 199.777 67.5236 199.777H63.8946V186.969V174.161H82.3596C92.3927 174.161 101.465 173.627 102.319 173.093C103.6 172.346 103.92 169.358 103.92 157.403V142.674L98.9034 135.203C94.1004 128.265 93.7802 127.304 93.7802 121.114V114.389H124.199H154.619V121.114C154.619 127.198 154.192 128.372 149.816 134.882L145.013 142.034V156.87C145.013 166.903 145.44 172.026 146.293 172.88C148.108 174.694 191.015 174.694 192.83 172.88C193.683 172.026 194.11 167.009 194.11 157.403V143.101L189.307 135.95C184.825 129.226 184.504 128.372 184.504 121.647V114.389H207.986C229.439 114.389 233.922 114.923 230.4 117.058C228.479 118.232 227.198 125.49 220.26 172.026C211.508 230.73 210.227 242.577 210.014 261.576C209.907 276.626 209.907 276.946 213.109 283.136L216.418 289.434L118.863 289.22L21.4144 288.9L17.2517 285.591C10.4207 280.148 9.46013 277.053 9.46013 261.149C9.46013 245.352 10.8477 232.758 17.0383 190.918C19.3864 174.481 21.2009 161.032 20.9874 160.819C20.774 160.712 18.746 160.178 16.3979 159.858L12.0217 159.111L7.53891 189.851C1.13485 233.078 -0.359426 248.128 0.0675114 264.992C0.387714 278.974 0.494449 279.614 3.58974 284.631C7.21871 290.608 14.0497 296.158 19.9201 298.186C25.3635 300 262.527 300.748 273.307 299.04C285.048 297.012 293.373 290.288 297.109 279.934C298.07 277.053 298.71 271.502 298.71 265.312V255.279H294.014H289.317L288.89 266.379C288.57 276.946 288.357 277.693 285.262 281.642C282.273 285.378 275.442 289.967 274.375 288.9C274.161 288.687 272.88 258.481 271.6 221.764L269.358 154.949H272.667C275.976 154.949 276.082 155.055 277.256 161.566C279.071 172.773 287.93 235.213 288.25 239.802C288.57 243.965 288.677 244.072 293.16 244.392L297.643 244.712V240.549C297.643 232.971 282.486 128.799 280.352 121.647C278.751 116.311 273.841 110.547 268.504 107.665C264.662 105.637 261.78 105.21 249.079 104.783L234.136 104.25L233.495 74.8978C232.855 43.091 232.855 42.8775 226.024 29.9627C213.536 6.6946 181.943 -5.79331 156.647 2.6387L149.069 5.20032L143.518 3.17237C136.687 0.504013 126.121 -0.56333 117.795 0.397279ZM142.024 12.565C154.192 17.2613 166.36 29.1088 170.629 40.4226C174.365 50.3489 174.898 58.354 174.898 104.463V149.612H179.701H184.504V157.083V164.555H169.028H153.551V157.083V149.612H158.995H164.332L164.011 100.194C163.691 51.6297 163.584 50.7759 161.236 44.7987C157.821 36.3667 150.67 28.7886 142.344 24.626C117.689 12.565 89.6176 26.7606 85.3482 53.5509C84.7078 57.6069 84.1741 79.0604 84.1741 104.997V149.612H89.5108H94.8475V157.083V164.555H79.3711H63.8946V157.083V149.612H68.5909H73.2872L73.7142 100.194C74.1411 51.9499 74.1411 50.7759 76.596 44.0516C79.5845 35.5129 85.1347 26.9741 91.0051 21.9576C96.0216 17.5815 105.841 12.3515 111.712 10.8572C117.902 9.25622 136.26 10.3236 142.024 12.565ZM195.391 14.2727C211.935 22.4913 221.861 36.4735 223.996 54.6183C224.636 59.6348 224.957 72.7631 224.85 83.9702L224.53 104.25L219.513 104.57L214.39 104.89V82.6894C214.39 70.5217 213.856 57.3934 213.216 53.5509C210.227 34.9792 194.324 20.6768 176.179 20.3566C170.842 20.2499 169.562 19.7162 165.826 16.4074C163.478 14.2727 161.45 12.2448 161.236 11.8178C160.596 10.4303 164.652 9.89663 176.072 10.1101C186.746 10.3236 187.813 10.537 195.391 14.2727ZM119.076 36.9004C115.234 46.1863 114.06 57.6069 114.06 83.1163V104.783H103.813H93.5667L93.9937 78.847C94.3139 55.2587 94.5273 52.5903 96.5553 48.1075C99.5439 41.7034 104.881 35.7263 110.217 33.058C114.38 30.9233 120.571 29.0021 121.424 29.6425C121.638 29.8559 120.571 33.058 119.076 36.9004ZM188.347 33.058C193.683 35.7263 199.02 41.7034 202.009 48.1075C204.037 52.5903 204.25 55.2587 204.57 78.847L204.997 104.783H194.751H184.504V83.1163C184.504 57.8203 183.224 46.0795 179.701 37.2206C178.207 33.6984 177.033 30.3896 177.033 29.9627C177.033 28.7886 183.437 30.4963 188.347 33.058ZM138.182 32.8445C142.344 34.8724 142.558 35.5129 139.783 40.1024C135.193 47.6806 134.339 53.6577 134.339 79.9143V104.783H129.003H123.666V82.2625C123.666 69.988 124.199 56.326 124.84 52.1634C126.014 44.5853 131.564 31.1368 133.485 31.1368C134.126 31.1368 136.154 31.8839 138.182 32.8445ZM153.018 50.6691C154.192 54.8318 154.619 61.8762 154.619 80.448V104.783H149.175H143.839L144.159 78.3133C144.479 55.4722 144.799 51.3095 146.507 47.3604C148.962 41.8102 150.67 42.6641 153.018 50.6691ZM263.274 115.884C268.824 118.766 270.959 122.181 272.56 130.827C273.414 135.416 274.161 140.326 274.161 141.713V144.275H254.095H233.922L235.417 134.882C237.124 123.035 239.259 118.872 244.809 116.417C249.932 114.069 259.218 113.856 263.274 115.884ZM238.939 162.633C238.939 175.228 234.669 288.687 234.243 289.113C233.389 289.967 227.732 286.445 224.957 283.35C219.727 277.8 219.3 275.985 219.513 260.615C219.833 243.858 221.434 229.342 227.305 189.637C232.855 151.853 232.108 154.949 235.844 154.949H238.939V162.633ZM261.673 212.798C262.741 244.712 263.808 274.918 264.235 280.041L264.875 289.434H254.522C247.051 289.434 244.276 289.113 244.276 288.046C244.276 287.406 245.236 260.295 246.41 228.061C247.584 195.721 248.545 166.156 248.545 162.1V154.949H254.202H259.859L261.673 212.798ZM67.5236 214.4C68.4842 217.175 69.2313 222.832 69.2313 227.208V234.999H59.0916H48.9518V227.848C48.9518 224.006 49.8057 218.242 50.7663 215.04L52.5808 209.383H59.1983H65.8158L67.5236 214.4Z" fill="#1D3557"/>
</svg>
