<svg width="301" height="300" viewBox="0 0 301 300" fill="none" xmlns="http://www.w3.org/2000/svg">
<path d="M34.8683 0.835736C21.214 3.76585 8.79033 14.2556 3.22312 27.4997C0.0586022 35.0594 0 35.2938 0 83.289V127.651L1.52366 128.823C3.04731 129.995 3.80914 130.054 18.8113 130.054H34.5753V157.597C34.5753 188.187 34.6339 188.539 38.0914 189.769C39.4979 190.238 54.5587 190.414 91.185 190.414C123.006 190.414 142.403 190.648 142.403 190.941C142.403 191.293 139.473 208.288 135.899 228.857L129.452 266.187L129.628 281.54C129.804 296.953 129.804 296.953 131.21 298.476L132.617 300H152.6H172.525L183.777 288.69L194.97 277.438L204.873 245.617C210.265 228.154 214.894 213.855 215.07 213.855C215.246 213.855 219.7 227.743 224.974 244.797C230.248 261.791 234.936 276.325 235.346 277.145C235.757 277.966 240.914 283.416 246.832 289.276L257.615 300H277.54H297.523L298.754 298.652C300.043 297.304 300.043 296.953 300.043 279.958V262.612L290.14 205.533C284.631 174.181 280.001 148.044 279.826 147.517C279.591 146.99 278.829 146.111 278.067 145.642C276.778 144.821 270.449 144.704 220.93 144.704H165.258V137.379V130.054H221.223H277.247L278.653 128.589L280.119 127.182V112.473V97.7638L278.653 96.3573L277.247 94.8923H238.863H200.478L200.244 66.2944C200.009 34.4734 200.009 34.4148 195.79 25.5073C190.164 13.5524 179.03 4.35187 166.196 1.12875C161.683 0.0153054 159.691 -0.0432968 99.9754 0.0153054C51.5113 0.0153054 37.6226 0.191112 34.8683 0.835736ZM72.0807 34.825C85.442 48.1863 97.1039 59.3793 97.9829 59.7896C98.8619 60.1412 100.327 60.2584 101.206 60.0826C102.319 59.7896 110.993 51.5266 127.577 35.0008L152.249 10.3293L157.464 10.6223C169.595 11.3841 180.378 18.5336 185.769 29.4336C189.695 37.3449 189.871 38.9858 189.871 68.6385V94.8923H177.565H165.258V77.3116V59.731H159.984H154.71V77.3116C154.71 91.7864 154.593 94.8923 153.889 94.8923C153.479 94.8923 152.424 95.4197 151.545 96.1229L150.022 97.295V112.473V127.651L151.545 128.823C152.424 129.526 153.479 130.054 153.889 130.054C154.534 130.054 154.71 131.577 154.71 137.262V144.47L152.952 145.114C151.78 145.525 150.901 146.462 150.373 147.751C149.963 148.806 148.439 156.483 147.033 164.746L144.454 179.865H94.8184H45.1237V119.798V59.731H39.8495H34.5753V89.6181V119.505H22.5618H10.5484V79.7729C10.5484 36.0557 10.4898 36.7589 14.2403 29.2578C16.7602 24.1008 24.1441 16.7169 29.3011 14.197C34.2823 11.6771 38.6189 10.5637 43.6586 10.5637L47.7608 10.5051L72.0807 34.825ZM87.8447 20.1159C93.1775 25.4487 98.1001 29.9024 98.8033 30.0782C101.323 30.7229 103.491 29.1406 112.809 19.8229L122.244 10.4465L129.394 10.6223L136.543 10.7981L118.259 29.1406L99.9168 47.4245L81.4571 28.9648L62.9974 10.5051H70.6157H78.2339L87.8447 20.1159ZM106.656 10.6809C106.656 10.7395 105.132 12.3218 103.257 14.197L99.8582 17.5374L96.4006 14.0212L92.9431 10.5051H99.7996C103.55 10.5051 106.656 10.5637 106.656 10.6809ZM194.559 112.473V119.505H177.565H160.57V112.473V105.441H177.565H194.559V112.473ZM225.032 112.473V119.505H215.07H205.108V112.473V105.441H215.07H225.032V112.473ZM269.57 112.473V119.505H252.576H235.581V112.473V105.441H252.576H269.57V112.473ZM270.742 155.78C270.742 156.073 274.962 180.569 280.119 210.221L289.495 264.077V276.794V289.452H275.841H262.245L253.396 280.485L244.488 271.578L232.299 232.314C223.685 204.713 219.641 192.582 218.703 191.469C217.063 189.535 213.605 189.183 211.613 190.824C210.675 191.645 207.276 201.783 197.9 231.904L185.359 271.93L176.627 280.72L167.895 289.452H154.007H140.059V278.259V267.007L149.729 211.452C155.061 180.862 159.398 155.721 159.398 155.546C159.398 155.37 184.48 155.253 215.07 155.253C247.594 155.253 270.742 155.487 270.742 155.78Z" fill="#1D3557"/>
<path d="M54.5 165.215V170.489H59.7742H65.0484V165.215V159.941H59.7742H54.5V165.215Z" fill="#1D3557"/>
<path d="M75.0107 165.215V170.489H80.2849H85.5591V165.215V159.941H80.2849H75.0107V165.215Z" fill="#1D3557"/>
<path d="M94.9355 165.215V170.489H100.21H105.484V165.215V159.941H100.21H94.9355V165.215Z" fill="#1D3557"/>
<path d="M36.5092 201.197L34.8683 202.603L34.5753 226.864C34.2823 252.767 34.3409 252.181 31.1178 255.638C28.8323 258.158 26.8398 258.978 20.9796 259.857C11.5446 261.264 5.45 265.483 1.81666 273.043C0.351604 276.09 0.293002 276.852 0.117195 286.756C-0.0586117 296.894 -0.0586117 297.246 1.23064 298.594L2.51989 300H59.8914H117.263L118.669 298.535L120.135 297.128V249.895V202.662L118.611 201.255L117.029 199.79H77.5893H38.15L36.5092 201.197ZM69.7366 229.502C69.7366 241.105 69.5022 249.602 69.092 250.95C68.3888 253.528 65.6345 256.927 63.1146 258.158C62.1769 258.685 58.8952 259.447 55.9065 259.857C41.9592 261.791 34.5753 270.757 34.5753 285.76V289.452H22.5618H10.5484V284.588C10.5484 278.962 11.7204 275.914 14.7091 273.395C17.229 271.226 18.5183 270.816 24.0269 270.171C32.7 269.234 39.7909 264.311 43.1898 256.986L44.8307 253.411L45.0065 231.846L45.1823 210.339H57.4302H69.7366V229.502ZM109.586 235.245V260.15L108.004 260.502C98.6861 262.553 90.306 268.296 85.3248 276.149C84.0942 278.024 82.4533 281.775 81.5743 284.529L79.992 289.452H62.5871H45.1237V285.76C45.1237 280.485 46.4129 276.676 49.05 274.098C51.8043 271.461 53.5624 270.757 59.364 270.113C67.0409 269.234 72.6667 265.835 76.5345 259.799C79.992 254.349 80.285 252.239 80.285 230.146V210.339H94.9356H109.586V235.245ZM109.586 280.368V289.452H100.21H90.892L91.771 286.99C93.8221 281.13 98.8619 275.563 104.546 272.809C109.762 270.23 109.586 269.996 109.586 280.368Z" fill="#1D3557"/>
</svg>
