<svg width="300" height="300" viewBox="0 0 300 300" fill="none" xmlns="http://www.w3.org/2000/svg">
<path d="M98.8931 1.99417C92.3799 4.59947 84.9648 11.6137 81.4577 18.5278C76.6479 28.0471 74.243 47.2862 76.9485 55.1021C77.5498 57.006 79.5538 60.914 81.4577 63.8199C83.2614 66.7258 84.7644 69.4313 84.7644 69.9323C84.7644 70.8341 79.2532 74.0406 77.7502 74.0406C77.3493 74.0406 75.8463 72.3372 74.5436 70.2329C71.3371 65.5233 65.0243 62.3168 56.1062 61.1144C46.9876 59.9119 40.1738 61.0142 34.9632 64.4211C27.7485 69.2309 26.7465 71.736 22.5379 96.0855C20.9347 105.705 18.4296 120.134 17.0267 128.151C14.221 144.384 14.4214 148.191 18.4296 154.103C23.6402 161.819 30.0532 164.925 42.6789 165.827C46.7872 166.128 50.6952 166.529 51.2964 166.729C52.6992 167.13 46.4866 198.894 44.0817 203.504C43.1799 205.307 34.863 215.829 25.6442 226.951C16.4255 237.974 8.10858 248.495 7.20675 250.199C4.90206 254.708 5.10247 265.029 7.60756 269.237L9.61164 272.444L5.70369 276.753C-1.11016 284.168 -1.91179 292.986 3.79982 298.196C5.70369 299.9 11.8161 300 147.793 300H289.881L293.489 297.194C295.493 295.691 297.697 293.387 298.399 292.184C299.401 290.481 299.701 277.955 299.701 237.673C299.701 186.469 299.701 185.367 297.597 182.661C292.787 176.248 291.384 175.747 275.853 175.747C263.428 175.747 260.822 176.048 255.311 178.152C246.894 181.359 240.982 187.972 232.866 203.604C229.459 210.217 225.15 217.132 223.246 218.935C218.536 223.545 211.923 225.348 199.798 225.348H189.978V185.267C189.978 150.095 190.179 144.684 191.582 141.979C195.289 134.864 195.189 128.952 191.381 122.639C190.68 121.537 189.978 115.224 189.778 108.11C189.377 98.1897 188.876 94.883 187.473 92.7787C181.361 83.3596 168.535 83.3596 162.422 92.7787C161.12 94.7828 160.418 98.1897 160.118 105.304L159.617 115.124H153.003C142.983 115.124 141.881 114.022 131.359 95.0834C126.449 86.0651 122.341 78.4496 122.441 78.149C122.541 77.8484 124.746 76.2451 127.451 74.7421C137.371 68.9302 141.68 62.918 144.486 50.9938C145.488 46.7852 146.29 39.4704 146.29 34.4602C146.39 26.7445 145.989 24.6402 143.684 19.7302C140.578 12.9164 133.463 5.70171 126.95 2.6956C120.136 -0.611123 106.308 -0.911735 98.8931 1.99417ZM123.543 12.716C128.654 15.4215 133.163 20.5319 135.367 26.3437C138.874 35.5624 135.568 53.9999 129.155 61.1144C119.335 72.0366 104.304 72.8382 93.4821 63.1184C88.973 59.1103 84.7644 51.094 84.7644 46.4846C84.7644 41.9755 87.2695 29.951 89.1734 25.4418C91.9791 18.9286 99.0936 12.3152 105.206 10.8121C110.116 9.50945 119.134 10.5115 123.543 12.716ZM57.6092 71.1347C63.3208 72.3372 68.2308 76.2451 69.3331 80.5539C69.7339 82.3575 69.3331 85.4639 67.9302 89.472C66.7278 92.7787 63.9221 105.304 61.7176 117.128C54.4027 156.007 55.4047 152.901 48.9917 155.807C46.2862 157.009 44.7831 157.009 39.4723 155.907C31.456 154.204 29.0512 152.901 26.6463 148.893C24.041 144.684 24.1412 143.281 27.7485 122.339C29.3518 112.619 31.6565 99.292 32.7587 92.7787C34.9632 79.652 35.6646 77.4476 38.2699 74.4415C42.3783 69.9323 47.689 68.9302 57.6092 71.1347ZM104.605 79.5518C107.41 80.4537 111.018 82.1571 112.521 83.4598C114.024 84.8626 118.934 92.4781 123.343 100.595C132.662 117.729 136.57 122.339 143.183 123.942C145.788 124.644 155.107 125.145 164.326 125.145C179.657 125.145 181.16 125.345 182.964 127.149C184.167 128.351 184.968 130.455 184.968 132.66C184.968 134.864 184.167 136.969 182.964 138.171C181.06 140.075 179.657 140.175 158.414 140.175C137.672 140.175 135.468 139.975 131.459 138.071C125.948 135.566 124.545 133.962 119.335 124.844C115.727 118.431 114.926 117.629 112.32 117.629C108.312 117.629 107.511 119.533 104.404 136.768C100.396 158.913 99.0936 155.105 119.836 181.559C131.96 196.991 137.973 205.408 138.373 207.712C138.774 209.516 138.073 216.43 136.87 223.444C135.668 230.258 133.564 242.182 132.261 249.898C130.758 258.716 129.155 264.828 127.952 266.432C123.744 272.244 113.523 271.041 110.817 264.428C109.615 261.622 109.916 259.017 113.623 240.479C118.333 217.132 118.633 213.224 116.128 208.614C114.625 205.909 98.6927 187.471 91.0773 179.555C88.1713 176.549 84.1632 176.549 82.6601 179.455C81.9587 180.758 80.4557 185.567 79.153 190.277C73.742 211.22 71.6377 218.635 70.4353 221.34C68.6316 225.749 33.8609 267.334 30.5542 268.937C25.7444 271.442 21.8365 270.841 18.0287 267.033C15.3232 264.327 14.6218 262.824 14.6218 259.618C14.6218 255.109 15.0226 254.508 34.6626 230.859C55.3045 206.009 54.1021 208.514 59.1123 181.76C60.5151 174.545 63.0202 161.318 64.7237 152.2C67.83 135.967 69.2328 128.451 73.8422 105.104C75.0447 98.791 76.6479 92.1775 77.5498 90.5743C80.5559 84.3616 85.7665 80.3535 92.7807 78.9506C98.1917 77.8484 99.0936 77.9486 104.605 79.5518ZM178.154 96.7869C179.657 98.0895 179.958 99.8932 179.958 106.807V115.124H174.948H169.938V106.106C169.938 98.6908 170.238 96.9873 171.741 96.1857C174.246 94.6826 176.05 94.883 178.154 96.7869ZM118.633 141.378C119.936 142.881 123.543 145.285 126.65 146.789C131.76 149.193 133.864 149.494 146.089 149.995L159.917 150.496V197.492V244.587L154.707 252.203C148.594 260.921 142.582 267.434 140.377 267.434C138.574 267.434 138.674 267.935 139.876 261.321C140.478 258.315 142.382 247.994 143.985 238.375C150.298 202.101 150.698 204.907 136.269 186.77C118.733 164.625 110.918 154.103 111.318 152.901C111.519 152.3 112.22 148.392 112.821 144.384C114.124 136.668 114.525 136.468 118.633 141.378ZM179.958 189.275V228.254L175.349 230.358C172.743 231.461 170.539 232.362 170.338 232.362C170.138 232.362 169.938 213.825 169.938 191.279V150.195H174.948H179.958V189.275ZM288.98 186.469C290.683 188.173 290.683 287.575 288.98 289.278C287.477 290.781 9.61164 291.082 9.61164 289.479C9.61164 288.978 10.1127 287.374 10.8141 285.971C13.3192 280.36 12.718 280.46 74.1428 280.46C133.864 280.46 137.973 280.16 145.588 275.851C151.5 272.444 155.208 268.436 162.823 257.013C170.238 246.09 176.05 240.078 181.862 237.673C184.066 236.671 190.88 235.769 199.999 235.268C209.117 234.868 216.532 233.866 219.839 232.763C227.455 230.258 234.369 222.442 241.583 208.113C248.898 193.584 251.203 190.578 257.516 187.672C262.025 185.567 264.029 185.267 275.151 185.267C283.669 185.267 288.178 185.668 288.98 186.469ZM98.6927 202.402C103.202 207.412 107.31 212.622 107.911 214.025C108.613 215.829 107.711 221.641 104.805 236.27C100.697 256.712 100.196 261.722 101.699 267.133C102.5 269.839 102.3 270.34 100.496 270.841C97.2899 271.642 48.4907 271.442 46.3864 270.54C44.1819 269.738 45.685 267.734 63.421 246.591C79.2532 227.853 79.153 228.054 85.2654 204.806C88.1713 194.085 88.472 193.283 89.6744 193.283C90.1754 193.283 94.1836 197.391 98.6927 202.402Z" fill="#1D3557"/>
</svg>
