<svg width="234" height="300" viewBox="0 0 234 300" fill="none" xmlns="http://www.w3.org/2000/svg">
<path d="M190.13 1.40096C186.128 3.2022 183.626 6.10418 182.625 10.3071C181.625 14.7101 183.726 20.8143 187.028 23.5161L189.63 25.6175L176.321 38.8266C169.016 46.0315 162.712 52.0356 162.311 52.0356C161.811 52.0356 159.609 50.7347 157.308 49.2337C126.887 28.7197 89.4614 26.8184 58.0399 44.0301L51.0351 47.8327L49.434 44.0301C48.0331 40.8279 47.933 40.0274 49.1338 38.8266C50.835 37.1254 49.8343 33.2227 47.4326 32.5223C46.432 32.2221 44.6307 32.4222 43.53 33.0226C40.628 34.6237 32.7226 31.6216 32.3223 28.7197C32.1222 27.6189 31.2216 26.2179 30.3209 25.6175C28.0194 24.2166 25.1174 25.8177 24.7171 28.7197C24.2168 31.7217 16.6116 34.5236 13.2092 32.9225C11.1078 32.0219 10.2072 32.0219 9.00634 33.0226C7.30518 34.4236 7.00497 38.1261 8.60607 39.7272C9.40662 40.5277 9.40662 41.3283 8.60607 42.6292C8.00566 43.7299 7.10504 45.7313 6.50463 47.2323C5.90422 49.0336 4.80347 50.0343 3.60265 50.0343C0.800728 50.0343 -0.900436 53.4366 0.500523 56.0384C1.10093 57.1391 2.40182 58.0397 3.50258 58.0397C5.90422 58.0397 10.1071 66.8458 8.506 68.4469C6.90491 70.0479 7.30518 73.8506 9.30655 74.9513C10.5074 75.5517 11.8083 75.4516 13.4094 74.551C15.4107 73.5503 16.4114 73.5503 19.5135 74.9513L23.2161 76.4523L19.9138 83.0569C11.8083 98.8677 8.90628 112.877 9.80689 131.39C10.7075 150.803 16.6116 167.515 27.9193 182.525C43.0296 202.539 60.5416 213.346 87.8603 219.55L90.5622 220.151V235.061V249.971L85.0584 250.672C73.6506 252.073 68.447 261.879 74.3511 270.985C76.4525 274.288 80.7555 276.189 86.0591 276.189H90.5622V282.994C90.5622 291.099 92.6636 295.702 97.667 298.404C102.67 301.206 107.974 300.306 112.477 295.802C115.88 292.3 116.08 291.8 116.38 284.195L116.78 276.189H121.183C126.787 276.189 130.189 274.588 132.491 270.785C136.093 264.981 135.593 258.977 131.29 254.674C128.588 251.972 126.887 251.272 122.284 250.672L116.58 249.971V246.169C116.58 241.866 114.779 239.864 111.376 240.365C109.175 240.665 109.075 241.165 108.775 248.67C108.374 258.277 109.175 259.177 118.081 259.177C124.385 259.177 126.587 260.278 126.587 263.28C126.587 266.683 123.785 268.184 117.581 268.184C108.474 268.184 108.574 268.084 108.574 278.09C108.574 287.397 107.174 291.199 103.571 291.199C99.6684 291.199 98.5677 288.598 98.5677 279.291C98.5677 273.887 98.1674 270.185 97.3668 269.384C96.6663 268.684 93.5642 268.184 90.262 268.184C83.3572 268.184 80.5553 266.983 80.5553 263.881C80.5553 260.278 82.5567 259.177 88.861 259.177C99.068 259.177 98.5677 260.278 98.5677 235.861C98.5677 224.153 98.1674 214.147 97.7671 213.446C97.3668 212.846 94.1646 211.845 90.5622 211.145C80.3552 209.443 73.6506 207.242 65.2448 203.039C22.7157 181.824 5.50395 130.289 26.6184 87.9602C30.5211 80.1549 40.3278 67.3461 46.2318 62.4427C63.3435 47.9328 81.9563 41.0281 103.571 41.0281C121.884 41.0281 138.995 46.4318 153.205 56.6388C157.408 59.6408 161.711 62.0425 162.912 62.0425C164.513 62.0425 170.917 56.2385 184.426 42.7293C195.034 32.122 203.64 23.0158 203.64 22.6155C203.64 19.8136 201.338 18.0123 197.635 18.0123C191.932 18.0123 188.529 13.5093 191.831 10.207C193.533 8.50583 221.752 8.50583 223.453 10.207C225.154 11.9082 225.154 40.1275 223.453 41.8286C220.251 45.0308 215.648 41.7286 215.648 36.1247C215.648 32.2221 214.247 30.0206 211.645 30.0206C209.644 30.0206 170.617 69.0473 170.617 71.0486C170.617 71.8492 172.618 75.6518 175.12 79.5545C177.522 83.3571 180.324 87.8601 181.324 89.5613C183.326 92.8636 186.028 93.8643 188.129 92.063C190.431 90.1617 189.93 88.0603 185.127 79.5545L180.624 71.649L194.333 57.8396L208.043 44.1302L210.945 47.0322C218.95 55.1377 231.459 51.0349 233.16 39.6271C233.56 37.2255 233.66 29.3201 233.56 22.1151C233.16 10.9075 232.86 8.80603 231.058 6.30432C227.156 0.90062 223.653 3.2986e-06 207.642 3.2986e-06C197.836 0.100072 192.132 0.500346 190.13 1.40096ZM32.4224 40.0274C36.8254 41.2282 41.1283 45.4311 42.6294 49.8341C43.7301 53.2364 43.7301 53.3365 36.4251 60.6415C28.6198 68.5469 26.7185 69.2474 21.5149 66.5456C13.9097 62.5428 11.7082 52.0356 17.212 45.231C18.9131 43.2296 21.715 41.0281 23.6163 40.3276C27.9193 38.8266 28.3196 38.8266 32.4224 40.0274Z" fill="#1D3557"/>
<path d="M84.5579 52.0362C53.9369 59.9417 31.4215 86.0595 27.3187 118.482C26.318 126.387 26.4181 129.389 27.7189 137.695C29.7203 149.903 33.1226 159.009 35.9246 160.11C41.4283 162.112 42.429 157.909 38.9266 147.502C35.124 136.294 34.5236 121.684 37.3255 110.376C43.5298 85.6593 61.7422 67.2467 86.5592 60.442C96.3659 57.7402 112.877 57.9403 122.584 60.9423C163.512 73.4509 183.125 118.482 164.312 157.108C158.508 169.116 146.6 180.924 134.592 186.929C107.574 200.138 77.7532 195.735 56.4386 175.421C48.7333 168.016 46.9321 167.115 44.7306 169.317C42.2289 171.818 43.5298 174.72 49.8341 180.824C83.4571 213.847 138.094 209.444 165.213 171.418C175.22 157.609 179.823 142.999 179.823 126.087C179.823 112.678 177.822 104.172 171.918 92.0636C167.915 83.9581 165.813 81.1562 157.608 72.9506C149.102 64.3447 146.901 62.7436 137.594 58.2405C131.79 55.4386 123.885 52.4365 119.882 51.636C109.975 49.4345 94.0644 49.6346 84.5579 52.0362Z" fill="#1D3557"/>
<path d="M115.779 97.6664C114.378 98.567 113.578 100.268 113.578 102.069C113.578 104.471 113.077 104.971 110.376 105.572C108.574 105.972 104.672 107.573 101.67 109.174L96.1659 112.076L93.9644 109.975C92.2632 108.374 90.9623 107.973 89.1611 108.474C86.1591 109.274 85.6587 112.376 88.1604 115.879C89.5614 117.98 89.4613 118.481 86.6594 124.285C84.9582 127.687 83.5573 131.389 83.5573 132.59C83.5573 134.392 82.8568 134.992 80.155 135.492C75.5518 136.393 73.9507 138.394 75.3517 141.596C76.2523 143.598 77.253 144.098 80.0549 144.098C83.0569 144.098 83.5573 144.398 83.5573 146.3C83.5573 147.601 84.9582 151.303 86.5593 154.605C89.9617 161.51 90.0617 162.411 87.9603 164.112C86.059 165.813 86.4593 170.116 88.7608 171.517C90.0617 172.317 91.1625 172.017 93.5641 170.316L96.5662 168.015L100.869 170.516C103.171 171.817 106.873 173.418 109.175 174.019C112.677 174.919 113.378 175.52 114.178 178.822C114.879 181.824 115.579 182.725 117.681 182.925C120.683 183.325 122.284 181.724 122.784 177.721C122.984 175.32 123.785 174.619 127.087 173.618C129.289 173.018 132.991 171.417 135.393 170.216L139.596 168.115L142.598 170.216C145.4 172.317 145.6 172.317 148.001 170.716C151.204 168.715 151.204 168.115 148.402 164.612L146.2 161.81L148.902 157.107C150.403 154.505 151.904 150.603 152.404 148.501C153.105 145.199 153.605 144.598 156.507 143.998C160.81 143.097 162.011 141.797 161.21 138.694C160.71 136.593 159.809 135.993 156.607 135.492C153.305 134.992 152.605 134.392 152.605 132.59C152.605 131.389 151.204 127.587 149.502 124.285L146.4 118.08L148.502 115.479C152.404 110.475 146.5 105.172 142.197 109.975C140.396 111.976 140.396 111.976 135.193 109.074C132.391 107.473 128.388 105.872 126.387 105.572C123.084 104.971 122.584 104.471 122.584 102.069C122.584 99.4676 120.382 96.0653 118.781 96.0653C118.381 96.0653 116.98 96.7658 115.779 97.6664ZM126.787 114.678C142.097 119.882 148.902 137.093 141.597 151.803C136.794 161.51 129.189 166.113 118.381 166.113C107.874 166.113 98.3674 160.309 93.8643 151.203C91.0624 145.499 91.3626 133.891 94.5648 127.687C100.669 115.779 114.178 110.375 126.787 114.678Z" fill="#1D3557"/>
<path d="M113.577 121.884C104.471 123.485 99.6677 134.493 104.871 142.198C109.775 149.703 118.681 150.704 125.385 144.6C128.287 141.998 128.888 140.597 129.288 136.494C130.089 127.188 122.583 120.283 113.577 121.884ZM119.581 132.091C121.483 133.993 121.383 136.094 119.281 138.796C116.779 142.098 109.875 138.195 111.276 134.193C112.877 129.69 116.279 128.789 119.581 132.091Z" fill="#1D3557"/>
<path d="M188.028 104.571C187.728 105.372 187.928 110.675 188.529 116.479C191.331 141.997 182.825 167.314 165.413 185.727C151.703 200.136 135.692 208.242 114.378 211.644C109.274 212.445 107.573 214.446 107.573 219.65C107.573 225.554 109.274 229.156 112.076 229.156C114.978 229.156 116.379 227.455 116.78 223.152C117.08 219.95 117.38 219.65 121.483 218.949C138.294 216.147 156.807 206.14 170.216 192.731C187.328 175.52 196.234 155.506 197.335 131.489C197.935 119.381 196.534 106.873 194.433 104.371C193.032 102.57 188.729 102.77 188.028 104.571Z" fill="#1D3557"/>
</svg>
