<svg width="392" height="300" viewBox="0 0 392 300" fill="none" xmlns="http://www.w3.org/2000/svg">
<path d="M357.551 2.44898C357.092 3.82653 356.633 11.6327 356.633 20.051V35.2041L351.735 38.2653C345.306 42.2449 337.653 42.0918 331.224 38.1122L326.02 34.898V18.9796C326.02 6.27551 325.561 2.7551 323.724 2.14285C322.5 1.68367 315 4.59183 306.888 8.72449L292.347 16.0714V36.2755V56.6327H287.908C285.612 56.6327 277.5 57.7041 270 58.9286C222.704 67.0408 192.551 85.8673 157.653 129.337C152.296 136.071 147.245 142.041 146.48 142.5C145.714 143.112 132.245 143.878 116.48 144.337C91.5306 144.949 86.3265 145.561 74.5408 149.082C52.8061 155.51 34.1327 166.684 19.898 181.378L14.5408 186.888L13.7755 205.561L13.0102 224.235L6.58163 224.694L0 225.153V247.959C0 267.245 0.306122 270.765 2.44898 271.531C3.82653 271.99 14.6939 272.449 26.6327 272.449H48.5204L54.0306 279.49C65.8163 294.49 79.898 300.918 98.7245 299.694C114.031 298.622 124.592 293.418 135 281.48L142.959 272.449H166.684H190.255L199.286 281.633C204.184 286.684 208.929 290.816 210 290.816C211.071 290.816 213.367 288.98 215.051 286.837C218.112 283.01 218.571 282.857 223.929 284.847C229.286 286.684 229.592 287.296 229.592 293.418V300H243.98C259.592 300 260.204 299.694 260.204 290.816C260.204 287.602 261.276 286.224 264.796 284.694C269.082 282.857 269.847 283.01 273.827 286.837C276.122 288.98 278.571 290.816 279.49 290.816C280.255 290.816 285.459 286.378 290.816 280.867L300.612 270.918L295.867 266.02C290.663 260.663 290.816 258.673 297.092 251.786C298.469 250.102 300 246.276 300.306 243.367C300.765 238.316 301.531 237.551 312.704 231.735C319.439 228.367 325.408 224.541 326.173 223.316C327.551 221.02 328.163 85.5612 326.633 80.2041C326.173 78.2143 321.122 74.5408 313.316 70.2551L300.765 63.5204V42.0918V20.6633L309.184 16.5306C313.776 14.2347 318.061 12.398 318.827 12.398C319.439 12.2449 319.898 18.6735 319.898 26.4796V40.7143L327.245 44.3878C342.857 52.5 341.48 52.3469 353.112 46.8367C359.082 43.9286 364.286 40.5612 364.898 39.0306C365.357 37.6531 365.816 31.0714 365.816 24.4898V12.398L371.633 14.8469C374.694 16.0714 379.133 18.5204 381.582 20.2041C385.714 23.1122 385.714 23.2653 385.714 41.7857C385.714 52.0408 385.102 61.3775 384.337 62.602C383.571 63.8265 377.602 67.6531 370.867 71.0204L358.929 77.2959L358.469 151.071L358.163 224.847L370.714 231.429L383.418 238.01L383.878 259.745L384.337 281.48L375 286.224L365.816 290.816V277.347C365.816 266.327 365.357 263.265 363.214 261.429C359.235 257.908 344.847 251.02 341.786 251.02C340.255 251.02 334.898 253.316 329.847 256.071L320.663 260.969L320.204 275.816L319.745 290.816L312.245 286.99L304.745 283.163L303.061 286.378C300.918 290.204 300.153 289.439 311.786 295.255C326.173 302.449 326.02 302.602 326.02 284.235C326.02 275.663 326.633 267.857 327.245 266.939C332.449 259.439 346.071 257.908 353.418 264.184C358.163 268.163 358.163 268.163 358.163 284.082C358.163 297.092 358.622 300 360.459 300C361.684 300 369.337 296.786 377.296 292.806L391.837 285.459V259.286V232.959L378.52 225.612L365.051 218.112L364.592 149.694L364.286 81.4286L377.602 73.9286L391.071 66.5816L391.531 41.0204L391.837 15.6122L376.684 7.80612C368.265 3.52041 360.765 -2.98023e-06 360 -2.98023e-06C359.235 -2.98023e-06 358.01 1.07143 357.551 2.44898ZM293.418 66.2755C294.031 67.3469 297.398 69.949 300.765 72.0918L306.888 75.7653L283.929 76.6837C258.98 77.7551 247.806 80.3571 230.357 89.0816C216.735 95.9694 208.776 101.786 196.531 114.337C188.724 121.99 184.133 125.51 181.684 125.51C179.694 125.51 176.173 126.888 173.878 128.724C170.357 131.48 169.898 132.857 169.898 141.582C169.898 150.306 170.204 151.224 173.418 152.143C175.255 152.602 206.173 153.061 242.296 153.061H307.653V148.469V143.878H264.796H221.939V137.908C221.939 128.724 216.276 123.98 205.255 123.98L196.684 123.827L207.551 113.571C213.367 107.908 222.092 101.02 226.837 98.2653C246.122 86.7857 274.286 81.4286 303.673 83.4184L319.133 84.4898L318.673 151.684C318.367 216.888 318.214 218.878 315.306 220.408C312.551 221.939 305.663 221.48 298.01 219.337C296.48 218.878 294.184 216.429 293.112 213.827C291.122 209.235 291.276 208.776 295.714 205.102C301.531 200.204 300.765 198.52 288.673 187.041C281.327 180.153 279.643 179.235 277.041 180.612C275.357 181.531 273.367 183.52 272.449 185.204C270.918 188.112 270.612 188.112 265.561 185.663C261.122 183.52 260.204 182.296 260.204 178.469C260.204 170.357 258.98 169.745 243.98 170.204L230.357 170.663L229.592 177.398C228.98 182.908 228.061 184.286 224.235 185.969C219.949 187.806 219.337 187.5 214.592 183.214L209.694 178.469L199.745 188.265C194.235 193.622 189.796 198.827 189.796 199.592C189.796 200.51 191.48 202.959 193.622 205.102C197.143 208.776 197.296 209.541 195.612 213.98C193.929 218.265 193.01 218.878 188.112 218.878C185.051 218.878 181.684 219.949 180.612 221.173C179.082 223.01 174.949 223.469 161.173 223.469H143.724L132.704 212.143C119.541 198.827 111.582 195.306 93.5204 195.459C78.0612 195.612 65.051 202.041 55.102 214.592L48.2143 223.469H34.898H21.4286V208.163V192.857H36.4286C52.6531 192.857 58.6224 190.714 63.5204 183.061C66.8878 177.857 67.3469 169.286 64.2857 168.98C63.0612 168.673 59.2347 168.061 55.8673 167.602L49.7449 166.531L58.0102 162.857C78.2143 153.827 84.6429 152.602 117.092 151.99C133.929 151.531 148.469 150.765 149.388 150.153C150.459 149.694 155.816 143.418 161.48 136.224C189.337 101.327 214.592 82.1939 246.888 71.9388C267.398 65.3571 291.122 62.449 293.418 66.2755ZM210.153 133.01C215.357 135 216.276 138.827 212.602 142.5C209.847 145.255 207.857 145.408 193.163 145.102L176.786 144.643L176.327 140.51C175.561 134.082 180.612 131.633 194.694 131.633C201.122 131.633 208.163 132.245 210.153 133.01ZM58.1633 178.163C58.1633 179.388 56.3265 181.837 54.1837 183.52C50.9694 186.122 47.9082 186.735 39.3367 186.735C29.2347 186.735 28.6224 186.582 30.9184 184.286C33.9796 181.224 48.2143 176.173 54.0306 176.02C56.6327 176.02 58.1633 176.786 58.1633 178.163ZM254.388 186.276C254.847 191.633 255.306 192.092 263.571 195L272.296 198.061L276.276 194.388L280.255 190.561L285.459 196.684C290.51 202.653 290.663 202.806 287.755 204.949C283.929 207.551 283.929 212.143 287.755 221.02C290.51 227.143 291.582 228.061 295.408 228.061C298.01 228.061 300 228.673 300 229.592C300 230.357 299.388 231.122 298.622 231.122C295.714 231.122 292.347 236.02 292.347 240.459C292.347 242.908 291.735 244.898 291.122 244.898C289.745 244.898 283.163 259.898 283.163 262.806C283.163 263.878 284.847 265.867 287.143 267.245L290.969 269.847L285.306 275.663L279.49 281.633L275.51 277.806L271.531 273.98L263.112 277.347C253.622 281.173 252.551 282.245 252.551 288.061C252.551 291.429 251.786 292.347 249.184 292.347C247.194 292.347 244.133 292.806 242.296 293.265C239.388 294.031 238.929 293.571 238.469 288.367C238.01 283.01 237.245 282.092 231.122 279.031C222.398 274.745 218.571 274.745 215.051 278.571C212.143 281.633 212.143 281.633 207.092 276.735C201.122 270.918 200.969 270 205.408 266.327L208.776 263.724L204.796 254.694C201.276 246.276 200.663 245.663 195.459 245.204L189.796 244.745V237.245V229.745L195.459 229.286C200.663 228.827 201.276 228.214 204.796 219.949L208.622 211.071L204.49 206.939L200.51 202.653L206.327 196.99L212.143 191.327L215.969 195.306L219.949 199.133L228.98 194.847C236.939 191.02 238.01 189.949 238.469 185.51C238.929 180.765 239.082 180.612 246.429 180.612H253.929L254.388 186.276ZM113.265 207.398C123.367 212.602 129.949 218.878 134.541 228.367C143.878 246.888 139.898 268.01 124.592 281.48C116.173 288.98 106.378 292.347 94.2857 292.347C82.9592 292.347 74.6939 288.827 65.3571 280.255C51.2755 267.245 46.9898 244.898 55.4082 228.673C60.3061 219.337 71.3265 209.235 80.051 206.02C88.4694 202.959 106.071 203.571 113.265 207.398ZM44.0816 248.265L43.6224 264.031H26.0204H8.41837L7.95918 248.265L7.5 232.653H26.0204H44.5408L44.0816 248.265ZM180.612 239.847C180.612 249.337 181.684 250.714 189.031 251.327C194.388 251.786 195.153 252.398 196.531 256.837C197.602 260.816 197.449 262.347 195.765 263.418C194.541 264.184 183.52 264.796 171.122 264.796H148.469V248.724V232.653H164.541H180.612V239.847Z" fill="#1D3557"/>
<path d="M234.949 207.244C222.245 211.989 212.755 227.601 215.051 240.152C217.347 251.938 223.316 259.897 233.112 264.03C248.265 270.305 265.714 263.571 272.602 248.724C276.581 240.152 276.275 231.734 271.53 222.244C264.796 208.775 248.724 202.193 234.949 207.244ZM253.775 214.897C256.071 216.122 259.592 218.877 261.581 221.02L265.255 224.999H244.898H224.541L227.449 221.785C234.949 213.214 245.357 210.612 253.775 214.897ZM267.398 238.775C264.49 261.122 235.408 266.326 224.847 246.428C223.163 243.52 221.939 239.234 221.939 236.938V232.652H245.051H268.316L267.398 238.775Z" fill="#1D3557"/>
<path d="M83.1121 223.316C67.0407 230.663 62.755 252.398 74.5407 266.48C89.9999 284.694 120.918 275.663 123.52 251.939C126.122 229.439 104.082 213.827 83.1121 223.316ZM106.837 230.663C117.092 237.092 119.235 253.01 110.969 261.735C108.52 264.184 104.235 267.092 101.326 268.01C86.3264 272.908 71.3264 256.99 76.3774 241.378C78.5203 234.796 82.1938 231.429 89.8468 228.827C96.1223 226.531 101.326 227.143 106.837 230.663Z" fill="#1D3557"/>
</svg>
