<svg width="67" height="65" viewBox="0 0 67 65" fill="none" xmlns="http://www.w3.org/2000/svg">
<path fill-rule="evenodd" clip-rule="evenodd" d="M5.91357 34.0355C7.97457 25.6555 7.83961 17.5855 8.08661 9.08554C8.13461 7.42554 6.8306 6.04545 5.1756 5.99545C3.5196 5.94545 2.13756 7.25549 2.08856 8.91549C1.85456 16.9755 2.04358 24.6454 0.0875835 32.6054C-0.308416 34.2154 0.676605 35.8454 2.28461 36.2354C3.89161 36.6354 5.51857 35.6455 5.91357 34.0355Z" fill="#AF8E60"/>
<path fill-rule="evenodd" clip-rule="evenodd" d="M23.4234 50.2749C37.4054 37.4949 50.5794 21.0549 59.7874 4.45493C60.5904 3.00493 60.0674 1.17486 58.6194 0.374855C57.1714 -0.425145 55.3434 0.0948989 54.5404 1.5449C45.6364 17.5949 32.8954 33.4949 19.3754 45.8449C18.1534 46.9649 18.0684 48.8649 19.1854 50.0849C20.3024 51.3049 22.2014 51.3949 23.4234 50.2749Z" fill="#AF8E60"/>
<path fill-rule="evenodd" clip-rule="evenodd" d="M26.9657 64.235C39.7537 66.345 52.9347 62.7451 64.5627 57.6551C66.0797 56.9851 66.7717 55.2151 66.1087 53.7051C65.4447 52.1851 63.6736 51.4951 62.1566 52.1551C51.5666 56.7951 39.5897 60.2351 27.9427 58.3151C26.3087 58.0451 24.7637 59.1551 24.4947 60.7851C24.2247 62.4151 25.3327 63.965 26.9657 64.235Z" fill="#AF8E60"/>
</svg>
