<svg width="65" height="69" viewBox="0 0 65 69" fill="none" xmlns="http://www.w3.org/2000/svg">
<path fill-rule="evenodd" clip-rule="evenodd" d="M25.7275 13.795C25.54 12.6825 25.3988 11.5827 25.3075 10.4827C25.17 8.83266 25.255 7.17004 25.2063 5.52004C25.185 4.82004 25.1013 2.99507 25.135 2.73257C25.4413 0.445066 27.2875 0.0950235 27.8275 0.0325235C28.0887 -0.00497647 30.7712 -0.304842 31.35 2.67016C32.06 6.30766 32.2875 9.97011 32.0363 13.5576C32.6225 16.6076 33.625 19.645 34.9488 22.395C40.2163 33.3325 50.2537 34.3951 61.1287 34.2951C62.8012 34.2701 64.19 35.5825 64.2775 37.245C64.365 38.92 63.12 40.37 61.455 40.52C55.3763 41.1075 44.5912 45.9826 40.8625 51.0576C40.0825 52.1201 39.6287 54.6827 39.0287 57.1952C38.1912 60.6827 37.195 64.1326 36.0788 65.5826C35.9113 65.8076 33.875 68.1077 33.2675 68.4452C31.8075 69.2452 30.6388 68.7826 29.975 68.3576C29.3113 67.9326 28.56 67.0951 28.26 65.7076C27.9463 64.2576 28.2113 61.2825 28.1625 60.645C27.985 58.3325 27.5225 53.795 26.5788 49.895C26.07 47.795 25.5275 45.8575 24.63 44.895C21.3075 41.3325 15.995 41.8576 11.5213 42.4451C11.0075 42.5076 10.4938 42.5826 9.98127 42.6451C8.16002 43.1826 6.22622 43.5826 4.18247 43.8201C1.09622 44.1826 0.588759 41.3451 0.561259 41.1576C0.503759 40.7451 0.289986 38.6201 2.61624 37.7701C2.86999 37.6826 4.7425 37.2701 5.46376 37.1076C6.46876 36.8826 7.48498 36.7076 8.50498 36.5451C19.0412 33.2701 24.7638 24.07 25.7275 13.795ZM29.3438 25.1576C33.3213 33.3826 39.3575 37.3576 46.5125 39.1576H46.5113C42.0438 41.4951 37.98 44.4202 35.8262 47.3577C35.0087 48.4702 34.2587 50.7076 33.5825 53.2201C33.2162 50.8826 32.7213 48.395 32.0675 46.27C31.3238 43.845 30.3225 41.8327 29.205 40.6327C27.0475 38.3202 24.34 37.0326 21.4287 36.3951C24.9137 33.3076 27.5563 29.4576 29.3438 25.1576Z" fill="#1D3557"/>
</svg>
