<svg width="514" height="518" viewBox="0 0 514 518" fill="none" xmlns="http://www.w3.org/2000/svg">
<path d="M234.712 2.96881L234.707 2.96945C180.198 10.4117 127.149 34.5425 77.9699 74.0867L77.9674 74.0887C38.7716 105.747 16.1504 138.71 6.15504 178.99C2.01495 195.45 1.4096 201.784 1.50987 225.359C1.50991 244.389 1.91048 250.786 3.73104 261.507L3.73152 261.51C14.3736 323.454 38.1054 369.033 75.5724 399.027L75.5765 399.03C76.7581 399.969 77.8563 400.83 78.8774 401.631C86.441 407.564 89.7752 410.179 91.4855 416.592C92.4847 420.339 92.9165 425.404 93.0664 433.181C93.1805 439.105 93.1312 446.516 93.0681 456.007C93.0485 458.947 93.0277 462.088 93.0099 465.446L93.0099 465.448M234.712 2.96881L94.5099 465.456L93.0099 465.448M234.712 2.96881C240.81 2.15564 252.34 1.65576 263.756 1.53076C275.168 1.40576 286.631 1.65344 292.587 2.36621C337.326 7.69458 382.749 24.5792 420.742 49.9076L420.745 49.9098C481.871 90.8955 514.026 153.283 511.609 226.405L511.609 226.407C509.899 276.096 494.598 316.276 465.991 345.996L465.988 345.999C430.188 383.005 372.034 416.148 321.259 428.314L321.259 428.314C292.714 435.149 267.487 437.657 230.79 437.156C230.79 437.156 230.79 437.156 230.789 437.156M234.712 2.96881L198.79 440.092M93.0099 465.448L92.7099 511.546L92.7033 512.555L93.6353 512.941L97.7353 514.641L97.7461 514.646L97.7569 514.65C103.911 517.091 111.87 516.911 117.302 514.086L117.304 514.086C118.629 513.394 120.701 511.782 122.916 509.865C125.174 507.912 127.704 505.533 129.982 503.205L129.994 503.193L130.005 503.181C134.367 498.521 150.134 483.152 165.137 469.049L165.141 469.045C176.244 458.542 183.343 451.967 188.349 447.669C193.349 443.376 196.193 441.415 198.785 440.095M93.0099 465.448L198.785 440.095M198.785 440.095L198.781 440.097L198.11 438.756M198.785 440.095L128.91 502.156C133.31 497.456 149.11 482.056 164.11 467.956C186.31 446.956 192.61 441.556 198.11 438.756M198.11 438.756L198.79 440.092M198.11 438.756L204.91 435.356L230.81 435.656L230.789 437.156M198.79 440.092L205.256 436.86L230.789 437.156M198.79 440.092L230.789 437.156M392.516 72.4281L392.514 72.4272C360.151 52.1754 313.193 37.7357 269.295 34.3512C261.925 33.7998 258.318 33.5309 254.677 33.5432C251.035 33.5554 247.351 33.8491 239.829 34.4509L239.824 34.4513C194.414 37.9215 148.805 58.7495 105.385 95.8955C74.2453 122.544 52.9955 149.129 45.8282 169.944L45.8251 169.953C43.2803 177.196 39.3957 196.966 37.9005 210.224L37.899 210.236C37.1126 216.724 36.9098 227.634 37.1844 238.417C37.4592 249.209 38.208 259.705 39.2836 265.376L39.2848 265.383C45.4379 298.629 58.0294 325.906 80.1864 353.925L80.1885 353.928C83.8186 358.539 99.6443 375.069 115.364 390.588L115.369 390.593C117.504 392.722 119.485 394.693 121.321 396.519C126.12 401.293 129.924 405.078 132.886 408.098C136.954 412.247 139.526 415.047 140.906 417.039C141.591 418.029 142.088 418.966 142.253 419.874C142.439 420.897 142.19 421.797 141.59 422.539C141.07 423.181 140.33 423.644 139.665 424.018C139.329 424.207 138.963 424.4 138.596 424.593L138.55 424.617C138.163 424.82 137.764 425.03 137.347 425.262C133.555 427.433 129.909 432.539 128.985 437.428C128.815 438.366 128.753 440.019 128.803 442.092C128.852 444.133 129.006 446.477 129.228 448.734C129.45 450.994 129.738 453.14 130.052 454.791C130.146 455.282 130.239 455.719 130.331 456.095C130.426 456.023 130.526 455.946 130.631 455.865C131.786 454.971 133.435 453.631 135.462 451.941C139.511 448.565 145.025 443.825 151.017 438.531C178.408 414.328 183.222 410.315 190.169 407.099C198.821 402.932 207.043 402.147 220.106 403.869L220.11 403.869C274.756 411.221 327.542 400.606 383.307 371.031C435.022 343.581 465.963 306.8 476.045 261.232L476.046 261.23C477.315 255.517 478.237 245.776 478.623 235.81C479.01 225.848 478.856 215.825 478.023 209.553L478.023 209.551C470.277 150.465 440.01 102.075 392.516 72.4281Z" fill="#1D3557" stroke="#1D3557" stroke-width="3"/>
<path d="M374.965 190.323L374.979 190.318L374.993 190.314C377.115 189.7 380.675 189.455 384.002 189.493C385.692 189.512 387.375 189.605 388.854 189.773C390.303 189.937 391.657 190.184 392.634 190.55C398.317 192.655 402.654 196.297 404.991 200.602C407.339 204.927 407.645 209.906 405.243 214.444C404.731 215.456 403.444 217.043 401.935 218.711C400.366 220.446 398.41 222.427 396.429 224.256C393.147 227.292 391.183 229.086 389.5 229.999C387.601 231.029 386.054 230.952 383.964 230.748L383.956 230.747L383.949 230.747C374.544 229.73 367.111 227.095 362.281 223.028C357.372 218.894 355.233 213.333 356.435 206.883C357.071 203.414 359.546 199.962 362.821 197.09C366.127 194.19 370.412 191.736 374.965 190.323Z" fill="#1D3557" stroke="#1D3557" stroke-width="3"/>
<path d="M322.501 215.019L322.5 215.026C321.474 224.061 318.325 231.429 313.51 236.377C308.664 241.357 302.213 243.794 294.86 243.049C281.137 241.676 271.818 231.773 271.71 218.371C271.603 208.955 277.867 200.108 288.017 194.826C290.534 193.513 293.689 192.723 296.776 192.474C299.857 192.224 303.02 192.501 305.54 193.453L305.571 193.465L305.601 193.477C306.107 193.694 306.755 194.107 307.429 194.581C308.133 195.075 308.96 195.706 309.852 196.426C311.635 197.866 313.718 199.695 315.652 201.577C315.653 201.578 315.655 201.58 315.656 201.581L322.647 208.273L323.181 208.784L323.101 209.519L322.501 215.019Z" fill="#1D3557" stroke="#1D3557" stroke-width="3"/>
<path d="M169.61 237.775L169.605 237.77L169.6 237.764C167.946 235.945 166.293 233.081 165.061 230.27C163.843 227.493 162.91 224.48 162.91 222.355C162.91 213.202 169.114 204.116 178.164 199.801C180.423 198.724 182.126 198.079 184.175 197.772C186.176 197.473 188.439 197.507 191.777 197.657L191.778 197.657C195.077 197.807 197.329 198.01 199.233 198.534C201.191 199.073 202.701 199.929 204.565 201.223L204.565 201.223L204.576 201.231C210.828 205.651 213.91 212.14 213.91 220.655C213.91 225.179 213.506 228.768 212.466 231.793C211.413 234.857 209.735 237.264 207.32 239.464L207.319 239.465C202.55 243.8 197.336 245.355 188.91 245.355C185.35 245.355 181.565 244.562 178.177 243.24C174.801 241.924 171.709 240.04 169.61 237.775Z" fill="#1D3557" stroke="#1D3557" stroke-width="3"/>
</svg>
